<svg width="113" height="113" viewBox="0 0 113 113" fill="none" xmlns="http://www.w3.org/2000/svg">
<circle cx="56.4275" cy="56.4275" r="55.566" stroke="white" stroke-width="1.72298"/>
<circle cx="56.8583" cy="56.8583" r="33.0851" stroke="white" stroke-width="1.0259"/>
<path d="M56.325 95.6678V96.1507C55.9536 96.1672 55.6771 96.2002 55.4956 96.2497C55.314 96.3075 55.1943 96.4065 55.1365 96.5468C55.0788 96.6954 55.0499 96.9182 55.0499 97.2154V102.885C55.0499 103.183 55.0788 103.401 55.1365 103.542C55.1861 103.69 55.3016 103.793 55.4832 103.851C55.6648 103.909 55.9454 103.942 56.325 103.95V104.433C56.127 104.425 55.8628 104.416 55.5327 104.408C55.2026 104.4 54.8353 104.396 54.4309 104.396C53.9604 104.396 53.5478 104.4 53.1929 104.408C52.8297 104.416 52.545 104.425 52.3386 104.433V103.95C52.7678 103.942 53.0856 103.909 53.2919 103.851C53.4982 103.793 53.6344 103.69 53.7004 103.542C53.7665 103.401 53.7995 103.183 53.7995 102.885V97.2154C53.7995 96.9182 53.7665 96.6954 53.7004 96.5468C53.6344 96.4065 53.4982 96.3075 53.2919 96.2497C53.0856 96.2002 52.7678 96.1672 52.3386 96.1507V95.6678C52.545 95.6844 52.8297 95.6926 53.1929 95.6926C53.5478 95.7009 53.9604 95.705 54.4309 95.705C54.8353 95.705 55.2026 95.7009 55.5327 95.6926C55.8628 95.6926 56.127 95.6844 56.325 95.6678ZM62.0075 95.6678V96.1507C61.5783 96.1672 61.2647 96.2002 61.0666 96.2497C60.8603 96.3075 60.7241 96.4065 60.6581 96.5468C60.5921 96.6954 60.559 96.9182 60.559 97.2154V102.885C60.559 103.183 60.5921 103.401 60.6581 103.542C60.7241 103.69 60.8603 103.793 61.0666 103.851C61.2647 103.909 61.5783 103.942 62.0075 103.95V104.433C61.8012 104.425 61.5206 104.416 61.1657 104.408C60.8025 104.4 60.3898 104.396 59.9277 104.396C59.515 104.396 59.1436 104.4 58.8134 104.408C58.4833 104.416 58.2192 104.425 58.0211 104.433V103.95C58.3925 103.942 58.6731 103.909 58.863 103.851C59.0445 103.793 59.1642 103.69 59.222 103.542C59.2798 103.401 59.3086 103.183 59.3086 102.885V97.2154C59.3086 96.9265 59.2798 96.7078 59.222 96.5592C59.1642 96.4107 59.0445 96.3075 58.863 96.2497C58.6731 96.2002 58.3925 96.1672 58.0211 96.1507V95.6678C58.2192 95.6844 58.4833 95.6926 58.8134 95.6926C59.1436 95.7009 59.515 95.705 59.9277 95.705C60.3981 95.705 60.8108 95.7009 61.1657 95.6926C61.5206 95.6926 61.8012 95.6844 62.0075 95.6678ZM59.7791 99.84V100.31H54.5794V99.84H59.7791Z" fill="white"/>
<path d="M48.9274 94.5078C49.5044 94.65 49.9776 94.9026 50.3471 95.2657C50.7067 95.6348 50.9424 96.0925 51.0543 96.6386C51.1662 97.1847 51.1402 97.7903 50.9763 98.4554C50.8103 99.1286 50.5509 99.6809 50.1981 100.112C49.8432 100.552 49.4128 100.85 48.9069 101.006C48.401 101.161 47.8435 101.164 47.2345 101.014C46.7136 100.886 46.2895 100.675 45.9622 100.382C45.627 100.087 45.4125 99.698 45.3188 99.2159C45.2171 98.7318 45.2602 98.1431 45.4481 97.4499L50.124 98.6024L50.0234 99.0621L46.5375 98.2029C46.4327 98.5936 46.3909 98.9531 46.412 99.2813C46.4331 99.6095 46.5261 99.8874 46.691 100.115C46.8479 100.341 47.0866 100.493 47.4071 100.572C47.8158 100.673 48.2189 100.589 48.6164 100.322C49.0058 100.052 49.3195 99.5559 49.5573 98.8325L49.5541 98.7934C49.5819 98.7153 49.6076 98.6281 49.6313 98.532C49.655 98.4358 49.6797 98.3356 49.7054 98.2314C49.9148 97.382 49.9125 96.6844 49.6985 96.1386C49.4825 95.6009 49.066 95.256 48.4489 95.1039C48.0482 95.0051 47.6679 95.0134 47.308 95.1287C46.9381 95.25 46.5976 95.4933 46.2865 95.8587L45.9251 95.5146C46.2618 95.0451 46.6941 94.7223 47.222 94.5464C47.7419 94.3686 48.3103 94.3557 48.9274 94.5078Z" fill="white"/>
<path d="M41.164 92.0084L40.9396 92.436C40.4753 92.2016 40.1268 92.0932 39.8938 92.1108C39.6536 92.1245 39.4548 92.2812 39.2976 92.5808L36.2196 98.4455C36.0431 98.7817 36.0079 99.0708 36.1139 99.3129C36.2126 99.5511 36.4883 99.7983 36.941 100.055L36.7166 100.482C36.5743 100.398 36.4283 100.312 36.2787 100.224C36.1218 100.133 35.9629 100.045 35.8021 99.9602C35.5463 99.8259 35.2994 99.7103 35.0614 99.6134C34.8122 99.5198 34.5791 99.4488 34.3623 99.4002L38.2343 92.0228C38.3915 91.7231 38.4076 91.4706 38.2824 91.2651C38.1572 91.0596 37.87 90.8342 37.4208 90.5891L37.6451 90.1616C37.7509 90.2265 37.9025 90.3107 38.0998 90.4142C38.286 90.5212 38.4904 90.6379 38.7131 90.7641C38.9358 90.8903 39.1568 91.0109 39.3761 91.126C39.7122 91.3024 40.0522 91.4716 40.3961 91.6334C40.7361 91.8025 40.992 91.9275 41.164 92.0084Z" fill="white"/>
<path d="M33.3805 87.0854L33.0604 87.4468C32.6657 87.1082 32.3532 86.9195 32.1228 86.8808C31.8863 86.8367 31.6558 86.9413 31.4314 87.1945L27.0393 92.1522C26.7875 92.4364 26.6841 92.7087 26.7291 92.969C26.7679 93.2239 26.9765 93.53 27.3547 93.8871L27.0345 94.2485C26.9165 94.1329 26.7953 94.0145 26.671 93.8934C26.5406 93.7668 26.4074 93.6433 26.2715 93.5229C26.0553 93.3314 25.8432 93.16 25.6353 93.0089C25.4157 92.8585 25.2064 92.7337 25.0075 92.6347L30.5325 86.3982C30.7569 86.1449 30.8329 85.9035 30.7606 85.674C30.6883 85.4445 30.4633 85.1571 30.0858 84.8115L30.4059 84.4501C30.4931 84.5384 30.6201 84.6564 30.7869 84.8042C30.9421 84.9527 31.1127 85.1148 31.2987 85.2907C31.4847 85.4665 31.6704 85.6365 31.8558 85.8007C32.1399 86.0525 32.4296 86.2981 32.7247 86.5375C33.0144 86.7831 33.233 86.9657 33.3805 87.0854Z" fill="white"/>
<path d="M26.6185 79.5825C26.942 80.0512 27.1376 80.538 27.2052 81.0428C27.2614 81.5456 27.1608 82.0463 26.9033 82.545C26.6457 83.0436 26.1977 83.5133 25.5592 83.9541C24.914 84.3995 24.3125 84.6541 23.755 84.7181C23.1974 84.782 22.6946 84.6929 22.2465 84.4506C21.7917 84.2129 21.4048 83.8632 21.086 83.4013C20.7625 82.9326 20.5727 82.4469 20.5165 81.9442C20.4488 81.4393 20.5437 80.9375 20.8012 80.4389C21.0587 79.9402 21.5101 79.4682 22.1554 79.0228C22.7939 78.582 23.3919 78.3297 23.9495 78.2658C24.5071 78.2018 25.0133 78.2886 25.4681 78.5263C25.9115 78.7618 26.295 79.1139 26.6185 79.5825ZM26.2211 79.8568C25.9398 79.4493 25.5209 79.242 24.9645 79.2349C24.408 79.2279 23.7155 79.5104 22.8868 80.0824C22.0581 80.6544 21.545 81.2041 21.3475 81.7316C21.15 82.259 21.1919 82.7265 21.4732 83.1341C21.7592 83.5484 22.1838 83.7567 22.747 83.7591C23.3056 83.7547 23.9992 83.4664 24.8278 82.8944C25.6565 82.3224 26.1686 81.7785 26.364 81.2625C26.5547 80.7397 26.5071 80.2712 26.2211 79.8568Z" fill="white"/>
<path d="M19.685 61.6524L12.0301 65.5749L12.0555 65.7839L18.2988 65.0258C18.6101 64.988 18.8473 64.9218 19.0104 64.8272C19.1643 64.7253 19.2652 64.5634 19.3131 64.3414C19.3518 64.1123 19.3535 63.7837 19.3181 63.3556L19.7974 63.2974C19.8009 63.4633 19.8216 63.7019 19.8594 64.0132C19.888 64.3174 19.9247 64.6538 19.9695 65.0225C20.0152 65.3994 20.0606 65.7389 20.1056 66.041C20.1424 66.3442 20.1795 66.5808 20.2168 66.7509L19.7375 66.8091C19.6733 66.4178 19.596 66.1237 19.5056 65.9268C19.406 65.7228 19.2698 65.5938 19.097 65.54C18.916 65.4871 18.6698 65.4796 18.3585 65.5174L12.8772 66.1829C12.574 66.2198 12.3568 66.2794 12.2255 66.3618C12.0941 66.4443 12.0122 66.5914 11.9797 66.8032C11.9473 67.015 11.9523 67.3303 11.9948 67.7492L11.5155 67.8074C11.5018 67.6261 11.4807 67.3835 11.4521 67.0793C11.4235 66.7752 11.3863 66.4346 11.3405 66.0578C11.3057 65.771 11.2693 65.5052 11.2312 65.2604C11.1922 65.0074 11.1591 64.8036 11.132 64.6489L18.216 61.0576L18.3114 61.4326L10.559 59.9296C10.5426 59.6572 10.526 59.4181 10.5093 59.2123C10.4834 58.9993 10.4576 58.7863 10.4317 58.5732C10.386 58.1963 10.3386 57.8404 10.2896 57.5055C10.2406 57.1706 10.2001 56.9053 10.168 56.7096L10.6473 56.6515C10.7063 57.0683 10.7768 57.3757 10.8591 57.5735C10.9331 57.7724 11.0483 57.8998 11.2048 57.9556C11.352 58.0042 11.5772 58.0101 11.8803 57.9733L17.5091 57.2899C17.8041 57.2541 18.0213 57.1944 18.1608 57.111C18.2911 57.0203 18.3726 56.8691 18.405 56.6573C18.4293 56.4465 18.4243 56.1312 18.3899 55.7113L18.8692 55.6531C18.8797 55.8763 18.9063 56.1641 18.9491 56.5164C18.9837 56.8697 19.0274 57.2635 19.0801 57.6977C19.1318 58.1238 19.1822 58.5043 19.2312 58.8392C19.271 59.1669 19.3105 59.424 19.3498 59.6105L18.8704 59.6687C18.8093 59.302 18.7391 59.032 18.6599 58.8587C18.5806 58.6854 18.4679 58.5785 18.3216 58.5381C18.1672 58.4986 17.9466 58.4963 17.6598 58.5311L11.0847 59.3295L11.1101 59.5384L19.6313 61.21L19.685 61.6524Z" fill="white"/>
<path d="M19.8081 53.1494L14.3088 54.7888C14.0153 54.8779 13.7947 55.0174 13.6469 55.2073C13.491 55.3962 13.3895 55.65 13.3425 55.9685L12.8632 55.9103C12.9154 55.6173 12.961 55.3444 13 55.0914C13.0391 54.8384 13.077 54.5603 13.1138 54.2571C13.1576 53.8966 13.1913 53.5848 13.2149 53.3216C13.2386 53.0584 13.2551 52.8193 13.2646 52.6043L13.7439 52.6625C13.7105 53.0742 13.757 53.3417 13.8834 53.4651C14.0107 53.5804 14.26 53.5815 14.6312 53.4687L18.4723 52.3388L18.5099 52.5429L15.6913 51.0034C15.3323 50.8101 15.0294 50.7027 14.7826 50.681C14.5287 50.6502 14.3308 50.7052 14.189 50.8459C14.04 50.9775 13.9389 51.1938 13.8857 51.495L13.4064 51.4368C13.4404 51.2248 13.471 51.0414 13.4981 50.8867C13.517 50.7311 13.539 50.5841 13.5641 50.4458C13.582 50.2983 13.6019 50.1345 13.6238 49.9542C13.6526 49.7166 13.6774 49.4785 13.6981 49.2399C13.7187 49.0013 13.7354 48.7955 13.7481 48.6224L14.2274 48.6806C14.2112 49.0195 14.2952 49.3207 14.4793 49.5842C14.6563 49.8385 14.9633 50.0836 15.4002 50.3195L19.8603 52.7193L19.8081 53.1494ZM22.4243 55.2255C22.3766 55.6188 22.2354 55.9259 22.0007 56.1468C21.766 56.3678 21.4807 56.4578 21.1448 56.417C20.8908 56.3862 20.6913 56.283 20.5464 56.1074C20.4096 55.9328 20.3561 55.7227 20.386 55.4769C20.4089 55.2884 20.4718 55.1464 20.5749 55.0508C20.6861 54.9563 20.8237 54.9189 20.9876 54.9388C21.1023 54.9528 21.1981 54.9852 21.2751 55.0361C21.3612 55.0798 21.4387 55.1266 21.5074 55.1765C21.5762 55.2265 21.6474 55.2559 21.7212 55.2649C21.8687 55.2828 21.9533 55.2016 21.9752 55.0213C21.9971 54.8411 21.9474 54.6688 21.826 54.5044C21.7128 54.341 21.5316 54.1901 21.2823 54.0518L19.4483 53.0309L19.7434 52.6552L21.4035 53.5676C21.6681 53.7162 21.8816 53.8751 22.044 54.0445C22.2073 54.2056 22.319 54.3813 22.379 54.5715C22.4391 54.7617 22.4542 54.9797 22.4243 55.2255Z" fill="white"/>
<path d="M28.1148 33.0905L18.9022 32.5983L18.7827 32.7715L23.7853 36.2246C24.0366 36.398 24.2547 36.5034 24.4395 36.5408C24.6176 36.5734 24.7981 36.5225 24.9811 36.3881C25.1689 36.2469 25.3938 36.001 25.6558 35.6504L26.0532 35.9246C25.9458 36.0511 25.8031 36.2434 25.6249 36.5015C25.44 36.7549 25.2443 37.0311 25.0381 37.33C24.8224 37.6424 24.6312 37.9266 24.4645 38.1826C24.2911 38.434 24.1619 38.6356 24.077 38.7877L23.6796 38.5134C23.8958 38.1712 24.0319 37.8941 24.088 37.6821C24.1488 37.4633 24.13 37.2798 24.0316 37.1317C23.9312 36.9721 23.7553 36.8056 23.504 36.6321L18.9599 33.4955C18.7153 33.3267 18.5166 33.2296 18.3636 33.2043C18.2038 33.1742 18.0416 33.2277 17.8768 33.3647C17.712 33.5017 17.5067 33.741 17.2608 34.0828L16.8634 33.8085C16.9734 33.6637 17.1185 33.4681 17.2988 33.2214C17.479 32.9748 17.677 32.6953 17.8927 32.3828C18.0427 32.1654 18.1776 31.9627 18.2974 31.7746C18.4172 31.5866 18.5159 31.429 18.5935 31.3021L25.9463 31.699L26.0659 31.5258L22.2961 28.9237C22.038 28.7455 21.8199 28.6401 21.6418 28.6075C21.4638 28.5749 21.2832 28.6257 21.1002 28.7601C20.9104 28.8899 20.6878 29.1324 20.4326 29.4877L20.0352 29.2134C20.1404 29.0755 20.2832 28.8832 20.4635 28.6365C20.6484 28.3831 20.8441 28.107 21.0503 27.8081C21.266 27.4956 21.4572 27.2114 21.6239 26.9554C21.7906 26.6994 21.9197 26.4977 22.0114 26.3504L22.4087 26.6247C22.1858 26.9622 22.0439 27.2404 21.9832 27.4592C21.9271 27.6712 21.9493 27.857 22.0497 28.0166C22.1434 28.1715 22.3193 28.338 22.5774 28.5161L28.4664 32.5811L28.1148 33.0905Z" fill="white"/>
<path d="M31.5176 29.7899C31.0975 30.1621 30.6681 30.3495 30.2294 30.3522C29.7915 30.3432 29.4083 30.1534 29.0799 29.7828C28.8227 29.4924 28.6827 29.1975 28.6599 28.8979C28.6371 28.5983 28.6872 28.3003 28.8104 28.0037C28.9398 27.7016 29.0948 27.4099 29.2756 27.1285C29.457 26.8354 29.6312 26.5653 29.7981 26.3182C29.9713 26.0656 30.0902 25.8389 30.155 25.6382C30.2205 25.4258 30.193 25.2517 30.0726 25.1157L29.6785 24.6709C29.4213 24.3806 29.1405 24.2379 28.8362 24.2429C28.5319 24.2479 28.2098 24.4009 27.87 24.7019C27.6229 24.9208 27.4461 25.1381 27.3395 25.3538C27.2329 25.5696 27.2234 25.7269 27.3109 25.8257C27.3657 25.8875 27.4447 25.9332 27.5482 25.9628C27.6462 25.9863 27.7493 26.0218 27.8575 26.0692C27.9664 26.1051 28.0619 26.1693 28.144 26.262C28.248 26.3794 28.2865 26.5162 28.2595 26.6724C28.2387 26.8231 28.1572 26.9615 28.0151 27.0873C27.8483 27.2351 27.6659 27.303 27.4679 27.291C27.2643 27.2729 27.0832 27.1742 26.9245 26.9951C26.722 26.7665 26.6278 26.486 26.6421 26.1536C26.6564 25.8212 26.7649 25.477 26.9677 25.1209C27.1712 24.7531 27.4583 24.4051 27.8289 24.0767C28.2119 23.7374 28.5759 23.5197 28.9208 23.4236C29.2658 23.3275 29.6033 23.3538 29.9334 23.5024C30.2697 23.6455 30.613 23.9148 30.9633 24.3102L33.1306 26.7566C33.2619 26.9048 33.3824 26.991 33.492 27.0152C33.6017 27.0394 33.709 27.0049 33.814 26.9119C33.919 26.8189 34.0022 26.7011 34.0634 26.5586C34.1192 26.41 34.1636 26.2548 34.1968 26.0931L34.6356 26.2337C34.6008 26.5181 34.5267 26.7767 34.4132 27.0095C34.3114 27.2431 34.1462 27.4611 33.9176 27.6636C33.3246 28.189 32.7872 28.1799 32.3056 27.6363C32.3618 28.0606 32.3262 28.4561 32.1988 28.8225C32.0659 29.1828 31.8388 29.5053 31.5176 29.7899ZM31.3689 28.9127C31.5975 28.7102 31.7614 28.4657 31.8605 28.1794C31.9597 27.8931 31.9904 27.5792 31.9526 27.2378L30.4913 25.5883C30.5225 25.7481 30.4911 25.9304 30.3968 26.1351C30.3033 26.3283 30.1939 26.5409 30.0688 26.7731C29.9382 26.999 29.8247 27.2319 29.7284 27.4716C29.6382 27.7059 29.5977 27.9402 29.6069 28.1746C29.6161 28.4091 29.7165 28.6344 29.9081 28.8506C30.116 29.0854 30.3482 29.2105 30.6045 29.226C30.867 29.236 31.1218 29.1316 31.3689 28.9127Z" fill="white"/>
<path d="M41.9422 22.5765L41.7178 22.149C42.0209 21.9806 42.1985 21.8128 42.2506 21.6456C42.3061 21.4673 42.2572 21.232 42.1038 20.9397L40.7518 18.3636C40.5063 17.8959 40.2326 17.5875 39.9306 17.4384C39.6286 17.2893 39.3059 17.3048 38.9624 17.4851C38.6555 17.6462 38.4184 17.8871 38.2512 18.2079C38.0802 18.5214 37.994 18.9255 37.9927 19.4202L37.7422 19.0763C37.7052 18.5085 37.8065 18.0266 38.046 17.6305C38.2929 17.2306 38.621 16.9233 39.0302 16.7085C39.5856 16.417 40.109 16.3753 40.6004 16.5835C41.088 16.7843 41.5063 17.2172 41.8553 17.8823L43.1671 20.3816C43.3205 20.674 43.5156 20.8325 43.7524 20.8574C43.9926 20.8712 44.3449 20.7609 44.8091 20.5265L45.0335 20.954C44.92 21.0043 44.7646 21.0812 44.5673 21.1847C44.3735 21.2771 44.1614 21.3791 43.931 21.4907C43.7006 21.6023 43.4794 21.7137 43.2675 21.825C43.0044 21.9631 42.7488 22.1065 42.5007 22.2554C42.2561 22.3931 42.0699 22.5001 41.9422 22.5765ZM34.488 26.4888L34.2636 26.0612C34.7202 25.8123 35.0074 25.587 35.1252 25.3853C35.2466 25.1725 35.2305 24.9199 35.0771 24.6276L33.4834 21.5911C33.2993 21.2403 33.0795 21.0434 32.8239 21.0005C32.5683 20.9575 32.2102 21.0476 31.7494 21.2708L31.525 20.8433C31.675 20.7739 31.8287 20.7026 31.986 20.6293C32.1433 20.5561 32.306 20.4754 32.474 20.3871C32.7225 20.2567 32.9543 20.1211 33.1693 19.9803C33.3805 19.8322 33.575 19.6788 33.7528 19.5203L36.1404 24.0695C36.2938 24.3618 36.4561 24.5377 36.627 24.5971C36.8015 24.6453 37.0441 24.5926 37.3549 24.4388L37.5793 24.8663C37.4147 24.9434 37.2099 25.0416 36.9649 25.1608C36.7233 25.2689 36.471 25.392 36.2079 25.5301C35.9083 25.6874 35.6015 25.8577 35.2877 26.0411C34.9699 26.2172 34.7034 26.3664 34.488 26.4888ZM38.4234 24.4233L38.199 23.9958C38.5021 23.8274 38.6797 23.6596 38.7318 23.4925C38.7873 23.3142 38.7384 23.0788 38.585 22.7865L37.2329 20.2104C36.9875 19.7427 36.7137 19.4343 36.4118 19.2852C36.1098 19.1361 35.7871 19.1517 35.4436 19.3319C35.1513 19.4854 34.925 19.7113 34.7647 20.0098C34.6006 20.301 34.508 20.6572 34.4867 21.0785L34.2445 20.5904C34.2435 20.1622 34.3539 19.7687 34.5757 19.4099C34.8049 19.0473 35.1204 18.7605 35.5223 18.5496C36.0705 18.2619 36.5883 18.2185 37.0759 18.4193C37.5634 18.6202 37.9837 19.0568 38.3365 19.7291L39.6483 22.2284C39.8017 22.5208 39.9639 22.6966 40.1349 22.756C40.3094 22.8043 40.552 22.7515 40.8628 22.5977L41.0871 23.0252C40.9591 23.0831 40.7652 23.1756 40.5056 23.3025C40.2495 23.4183 39.9935 23.5433 39.7377 23.6775C39.4819 23.8118 39.23 23.9533 38.9819 24.1022C38.7372 24.2399 38.5511 24.347 38.4234 24.4233Z" fill="white"/>
<path d="M47.9751 20.7203C47.3981 20.8625 46.8616 20.8587 46.3657 20.7089C45.8758 20.5492 45.4544 20.2535 45.1015 19.822C44.7487 19.3904 44.4902 18.8421 44.3263 18.177C44.1604 17.5038 44.1334 16.8942 44.2453 16.3481C44.3552 15.794 44.598 15.3304 44.9735 14.9573C45.3491 14.5842 45.8414 14.3226 46.4504 14.1725C46.9713 14.0441 47.4448 14.0337 47.8708 14.1412C48.3048 14.2467 48.6753 14.4911 48.9823 14.8745C49.2974 15.2559 49.5328 15.7971 49.6886 16.4983L45.0127 17.6508L44.888 17.197L48.374 16.3378C48.2852 15.9431 48.1552 15.6054 47.984 15.3246C47.8128 15.0438 47.6012 14.8409 47.3494 14.7159C47.1056 14.589 46.8235 14.5651 46.5029 14.6441C46.0942 14.7448 45.7761 15.006 45.5485 15.4276C45.3289 15.8472 45.2819 16.4326 45.4075 17.1837L45.4285 17.2168C45.4402 17.2989 45.4579 17.388 45.4816 17.4842C45.5053 17.5803 45.53 17.6805 45.5557 17.7847C45.7651 18.6341 46.0913 19.2507 46.5344 19.6346C46.9756 20.0103 47.5047 20.1222 48.1217 19.9701C48.5224 19.8714 48.8553 19.6873 49.1204 19.4179C49.3916 19.1386 49.58 18.7649 49.6856 18.2968L50.1656 18.4335C50.0856 19.0058 49.8528 19.4924 49.4671 19.8935C49.0895 20.2926 48.5921 20.5682 47.9751 20.7203Z" fill="white"/>
<path d="M64.5646 19.9133L64.6801 19.4445C65.0927 19.5292 65.4052 19.5722 65.6174 19.5735C65.8315 19.5668 65.9874 19.5033 66.0851 19.3828C66.1848 19.2544 66.2702 19.0459 66.3413 18.7574L67.6982 13.2521C67.7693 12.9636 67.7896 12.7433 67.7591 12.5913C67.7305 12.4313 67.623 12.2985 67.4365 12.193C67.25 12.0875 66.9534 11.9804 66.5466 11.8717L66.6622 11.4029C66.8686 11.4623 67.1431 11.5384 67.4857 11.6314C67.8283 11.7243 68.224 11.8261 68.6727 11.9367C69.0974 12.0414 69.4871 12.1332 69.8417 12.2121C70.1962 12.291 70.4827 12.3531 70.701 12.3984L70.5855 12.8672C70.1748 12.7745 69.8624 12.7315 69.6482 12.7382C69.4341 12.7449 69.2731 12.8115 69.1655 12.9379C69.0678 13.0584 68.9834 13.2628 68.9123 13.5513L67.5553 19.0567C67.4842 19.3451 67.463 19.5694 67.4915 19.7295C67.5301 19.8835 67.6426 20.0132 67.8291 20.1187C68.0176 20.2161 68.3142 20.3233 68.7189 20.44L68.6034 20.9088C68.389 20.8475 68.1065 20.7693 67.7559 20.6744C67.4053 20.5795 67.0176 20.4797 66.5929 20.375C66.1441 20.2644 65.7464 20.1706 65.3999 20.0937C65.0533 20.0168 64.7749 19.9567 64.5646 19.9133Z" fill="white"/>
<path d="M75.8154 24.1725C75.5011 24.0076 75.2536 23.8311 75.0727 23.6429C74.8953 23.4659 74.7525 23.3117 74.6443 23.1804C74.54 23.0417 74.4403 22.9475 74.3453 22.8976C74.1772 22.8094 73.9935 22.8575 73.7942 23.0418L73.3777 22.8232C73.4843 22.6555 73.595 22.4712 73.7097 22.2704C73.8244 22.0697 73.9508 21.8377 74.0889 21.5746C74.2381 21.3081 74.3992 21.0011 74.5722 20.6538L74.9888 20.8724C74.7727 21.5327 74.7395 22.0932 74.8892 22.5539C75.0462 23.0185 75.3878 23.3888 75.914 23.665C76.294 23.8644 76.6321 23.9394 76.9285 23.8899C77.2286 23.833 77.4573 23.6548 77.6146 23.3551C77.7642 23.0701 77.7754 22.7824 77.6482 22.4919C77.5321 22.198 77.2457 21.8379 76.7889 21.4118C76.2198 20.8801 75.8585 20.3875 75.705 19.9341C75.5553 19.4733 75.5974 19.0201 75.8314 18.5743C76.0807 18.0993 76.4354 17.8054 76.8954 17.6926C77.3592 17.5725 77.8578 17.6525 78.3913 17.9325C78.6763 18.082 78.9002 18.2415 79.063 18.4108C79.2258 18.5802 79.3558 18.7322 79.4528 18.8671C79.5571 19.0057 79.6641 19.1038 79.7737 19.1613C79.8468 19.1997 79.9223 19.2067 80.0003 19.1824C80.0783 19.1581 80.1663 19.0971 80.2642 18.9993L80.6917 19.2237C80.5966 19.3695 80.4993 19.5282 80.3999 19.6997C80.3044 19.864 80.1935 20.0575 80.0673 20.2802C79.9523 20.4994 79.8159 20.7681 79.6583 21.0862L79.2308 20.8618C79.407 20.3484 79.409 19.874 79.2366 19.4387C79.0681 18.9961 78.7647 18.6597 78.3262 18.4296C78.0046 18.2608 77.7159 18.2071 77.4599 18.2685C77.2151 18.3265 77.0218 18.4907 76.8799 18.761C76.7303 19.0461 76.7226 19.3449 76.8567 19.6577C76.9947 19.9631 77.3101 20.3477 77.8031 20.8115C78.343 21.3279 78.6808 21.7942 78.8166 22.2103C78.9597 22.6303 78.9143 23.0632 78.6803 23.509C78.4042 24.0352 78.0101 24.3597 77.4983 24.4825C76.9902 24.598 76.4292 24.4947 75.8154 24.1725Z" fill="white"/>
<path d="M86.1681 31.7698L86.5655 31.4955C86.7385 31.7171 86.9196 31.8778 87.109 31.9778C87.303 32.0845 87.5271 32.1405 87.7813 32.1455C88.047 32.1527 88.3566 32.1145 88.7101 32.0309L96.0059 30.4399L96.2591 30.8066L91.9332 37.4631C91.7166 37.8031 91.6071 38.1094 91.6046 38.3819C91.6136 38.6564 91.739 38.9761 91.9807 39.3408L91.5833 39.615C91.4797 39.4358 91.3341 39.2104 91.1466 38.9387C90.9658 38.6623 90.7535 38.3475 90.5097 37.9943C90.2331 37.5936 89.9883 37.2461 89.7752 36.9519C89.5736 36.6598 89.4097 36.437 89.2836 36.2833L89.681 36.0091C89.9316 36.3576 90.1369 36.5969 90.297 36.7271C90.4685 36.8594 90.6191 36.8959 90.7486 36.8366C90.8849 36.7726 91.0357 36.6133 91.201 36.3588L94.6426 31.08L94.9322 31.1509L89.4504 32.3624C88.9872 32.4614 88.6459 32.5917 88.4265 32.7532C88.207 32.9147 88.1062 33.1247 88.1241 33.3831C88.1535 33.6436 88.2927 33.9688 88.5417 34.3585L88.1443 34.6328C88.0245 34.4447 87.9013 34.259 87.7747 34.0756C87.6549 33.8875 87.5317 33.7017 87.4052 33.5183C87.29 33.337 87.1692 33.1547 87.0426 32.9713C86.902 32.7675 86.7602 32.5695 86.6175 32.3772C86.4815 32.1802 86.3317 31.9778 86.1681 31.7698ZM89.9935 31.9724L90.5034 31.8612L92.7398 35.1011L92.4479 35.5282L89.9935 31.9724Z" fill="white"/>
<path d="M94.0909 46.217L94.5424 46.0458C94.673 46.367 94.8182 46.5635 94.9778 46.6353C95.1481 46.712 95.3876 46.6918 95.6963 46.5747L98.4166 45.543C98.9105 45.3557 99.2496 45.1212 99.434 44.8394C99.6185 44.5576 99.6419 44.2354 99.5043 43.8727C99.3814 43.5485 99.1708 43.2842 98.8725 43.0795C98.582 42.8719 98.1912 42.7377 97.7002 42.6767L98.0719 42.4696C98.64 42.5013 99.1062 42.6599 99.4705 42.9454C99.8377 43.2387 100.103 43.6014 100.267 44.0336C100.49 44.6201 100.468 45.1447 100.202 45.6074C99.9438 46.0672 99.4636 46.4303 98.7614 46.6966L96.1221 47.6975C95.8135 47.8146 95.6325 47.9892 95.5793 48.2212C95.5367 48.458 95.6037 48.821 95.7804 49.3101L95.3289 49.4813C95.2927 49.3626 95.2351 49.1991 95.1561 48.9907C95.0877 48.7872 95.0121 48.5643 94.929 48.3222C94.846 48.08 94.7621 47.847 94.6772 47.6232C94.5719 47.3454 94.4602 47.0744 94.3424 46.8101C94.2351 46.5507 94.1513 46.353 94.0909 46.217ZM91.1057 38.3456L91.5571 38.1744C91.7492 38.6576 91.9383 38.9699 92.1243 39.1112C92.3209 39.2573 92.5736 39.2718 92.8823 39.1547L96.0887 37.9387C96.4591 37.7982 96.6811 37.6037 96.7545 37.3552C96.828 37.1066 96.7817 36.7402 96.6157 36.2559L97.0671 36.0847C97.118 36.242 97.1702 36.4031 97.224 36.5681C97.2777 36.7331 97.3383 36.9043 97.4056 37.0818C97.5051 37.3442 97.6118 37.5906 97.7257 37.821C97.8472 38.0486 97.976 38.2601 98.112 38.4557L93.3081 40.2776C92.9994 40.3946 92.8053 40.5345 92.7257 40.6971C92.6568 40.8644 92.6799 41.1116 92.7951 41.4387L92.3437 41.6099C92.287 41.4372 92.2143 41.222 92.1254 40.9645C92.0472 40.7117 91.9554 40.4463 91.85 40.1685C91.73 39.8521 91.5979 39.5271 91.4537 39.1934C91.3172 38.8568 91.2012 38.5742 91.1057 38.3456ZM92.6817 42.5012L93.1332 42.33C93.2638 42.6512 93.409 42.8477 93.5686 42.9196C93.7389 42.9962 93.9784 42.976 94.2871 42.8589L97.0074 41.8273C97.5013 41.64 97.8404 41.4054 98.0248 41.1236C98.2093 40.8418 98.2327 40.5196 98.0951 40.1569C97.9781 39.8482 97.781 39.5963 97.504 39.4013C97.2348 39.2033 96.8923 39.0683 96.4766 38.9965L96.9904 38.8149C97.4156 38.8655 97.7929 39.0225 98.1223 39.2859C98.4547 39.5571 98.7013 39.9049 98.8623 40.3294C99.0818 40.9081 99.0625 41.4274 98.8043 41.8872C98.5462 42.3471 98.0621 42.7116 97.3522 42.9808L94.7129 43.9818C94.4042 44.0988 94.2101 44.2387 94.1305 44.4013C94.0616 44.5686 94.0848 44.8158 94.2 45.1429L93.7485 45.3141C93.7065 45.18 93.6381 44.9764 93.5434 44.7034C93.4593 44.4351 93.3661 44.166 93.2636 43.8959C93.1612 43.6258 93.051 43.3586 92.9332 43.0944C92.8259 42.8349 92.7421 42.6372 92.6817 42.5012Z" fill="white"/>
<path d="M95.2251 52.6865L100.172 49.7787C100.436 49.622 100.617 49.4337 100.715 49.214C100.821 48.9932 100.859 48.7226 100.828 48.402L101.308 48.3438C101.327 48.6408 101.348 48.9168 101.371 49.1717C101.393 49.4267 101.423 49.7058 101.46 50.0089C101.504 50.3694 101.545 50.6803 101.585 50.9415C101.626 51.2027 101.667 51.4388 101.709 51.6498L101.23 51.708C101.163 51.3003 101.054 51.0517 100.902 50.9621C100.751 50.8807 100.509 50.9392 100.175 51.1377L96.7161 53.154L96.6307 52.9648L99.7359 53.785C100.131 53.8867 100.45 53.9185 100.695 53.8805C100.949 53.8497 101.128 53.749 101.232 53.5784C101.345 53.415 101.392 53.1807 101.371 52.8756L101.851 52.8174C101.868 53.0314 101.883 53.2167 101.893 53.3734C101.912 53.5291 101.926 53.677 101.935 53.8173C101.953 53.9648 101.972 54.1287 101.994 54.3089C102.023 54.5465 102.056 54.7836 102.093 55.0202C102.13 55.2568 102.163 55.4607 102.192 55.6317L101.713 55.6899C101.648 55.357 101.494 55.0847 101.252 54.8729C101.02 54.6684 100.663 54.5038 100.182 54.3793L95.2774 53.1167L95.2251 52.6865ZM92.1881 51.2969C92.1403 50.9036 92.2039 50.5716 92.3789 50.3009C92.5539 50.0303 92.8094 49.8746 93.1453 49.8338C93.3993 49.8029 93.6176 49.8554 93.8004 49.9912C93.975 50.1279 94.0772 50.3192 94.107 50.565C94.1299 50.7535 94.1028 50.9064 94.0256 51.0239C93.9402 51.1423 93.8156 51.2115 93.6517 51.2314C93.537 51.2453 93.4362 51.2368 93.3493 51.2057C93.2552 51.1839 93.1688 51.157 93.09 51.125C93.0113 51.093 92.9351 51.0814 92.8614 51.0904C92.7139 51.1083 92.6511 51.2074 92.673 51.3876C92.6949 51.5679 92.7844 51.7233 92.9416 51.8539C93.0906 51.9854 93.3027 52.0885 93.5778 52.1632L95.6028 52.7155L95.4062 53.1509L93.576 52.6623C93.2835 52.5814 93.0382 52.4782 92.84 52.3526C92.6429 52.2352 92.4924 52.0913 92.3886 51.921C92.2847 51.7507 92.2179 51.5427 92.1881 51.2969Z" fill="white"/>
<path d="M94.4872 67.7315L94.9387 67.9027C94.8048 68.3021 94.7245 68.6071 94.6976 68.8176C94.6785 69.031 94.7228 69.1934 94.8306 69.3049C94.9461 69.4193 95.1427 69.5292 95.4205 69.6346L100.722 71.6452C101 71.7506 101.216 71.7973 101.371 71.7853C101.533 71.7762 101.678 71.6855 101.805 71.5131C101.932 71.3406 102.074 71.0591 102.231 70.6684L102.683 70.8396C102.349 71.6489 101.843 72.9487 101.164 74.739C101.056 75.0246 100.949 75.3062 100.844 75.5841C100.735 75.8696 100.637 76.1411 100.548 76.3987C100.456 76.664 100.373 76.9062 100.299 77.1252C99.8668 76.9613 99.4365 76.8158 99.0081 76.6886C98.5844 76.5721 98.1665 76.4754 97.7543 76.3985L97.9299 75.9355C98.4909 76.0158 98.9419 76.0368 99.2831 75.9985C99.6242 75.9601 99.8951 75.851 100.096 75.6711C100.296 75.4912 100.464 75.2238 100.599 74.8688L101.24 73.1787L94.9771 70.8037C94.6916 70.6954 94.4648 70.6535 94.2966 70.678C94.1361 70.7054 93.9844 70.8377 93.8416 71.0748C93.6987 71.3119 93.5215 71.6861 93.31 72.1972L92.8585 72.026C92.9511 71.8052 93.0773 71.4956 93.2373 71.0972C93.3972 70.6988 93.5781 70.2334 93.78 69.7009C93.941 69.2765 94.0805 68.8969 94.1987 68.5621C94.3245 68.2303 94.4207 67.9534 94.4872 67.7315ZM97.4559 71.3201L97.9073 71.4913L97.0776 73.6791L96.6262 73.5079L97.4559 71.3201ZM94.7929 73.2098C95.2396 73.3351 95.6026 73.4022 95.8818 73.4109C96.1609 73.4197 96.3828 73.3582 96.5475 73.2265C96.72 73.0977 96.8603 72.8905 96.9686 72.605L97.42 72.7762C97.2708 73.1698 97.2744 73.4977 97.4309 73.7601C97.5844 74.0302 97.9172 74.2932 98.4292 74.5492L98.2755 74.9543C97.8397 74.7537 97.4982 74.6066 97.2513 74.5129C97.0091 74.4299 96.7877 74.3504 96.5871 74.2743C96.425 74.2128 96.2591 74.1499 96.0893 74.0855C95.9244 74.0317 95.7285 73.9663 95.5018 73.8891C95.2721 73.8197 94.9846 73.7283 94.6392 73.615L94.7929 73.2098Z" fill="white"/>
<path d="M89.1618 78.5812C89.4853 78.1126 89.8711 77.7571 90.3191 77.5148C90.7693 77.2839 91.2732 77.2005 91.8307 77.2644C92.3883 77.3284 92.9863 77.5807 93.6248 78.0214C94.2701 78.4669 94.7215 78.9389 94.979 79.4376C95.2365 79.9362 95.3315 80.438 95.2638 80.9428C95.2029 81.4524 95.013 81.9381 94.6942 82.4C94.3707 82.8687 93.9839 83.2184 93.5337 83.4493C93.0857 83.6916 92.5829 83.7807 92.0253 83.7168C91.4677 83.6528 90.8663 83.3982 90.221 82.9528C89.5825 82.512 89.1345 82.0423 88.877 81.5437C88.6195 81.045 88.5212 80.5409 88.582 80.0314C88.645 79.5333 88.8383 79.0499 89.1618 78.5812ZM89.5591 78.8555C89.2778 79.2631 89.2326 79.7282 89.4233 80.251C89.614 80.7738 90.1237 81.3211 90.9524 81.8931C91.7811 82.4651 92.477 82.7499 93.0403 82.7476C93.6035 82.7452 94.0257 82.5403 94.3071 82.1328C94.5931 81.7184 94.6373 81.2475 94.4398 80.7201C94.2375 80.1994 93.7221 79.6531 92.8934 79.0811C92.0648 78.5091 91.3745 78.2232 90.8228 78.2234C90.2664 78.2305 89.8451 78.4412 89.5591 78.8555Z" fill="white"/>
<path d="M82.4349 86.442L82.7551 86.8034C82.6061 86.9464 82.5202 87.0611 82.4975 87.1474C82.474 87.2454 82.4986 87.3229 82.5711 87.3799C82.6375 87.4424 82.7317 87.4802 82.8537 87.4934L88.0071 88.4191C88.2387 88.4565 88.4399 88.4657 88.6106 88.4468C88.7751 88.4334 88.9328 88.3874 89.0837 88.3088C89.2285 88.2357 89.3928 88.1287 89.5767 87.9878L89.8969 88.3492C89.7493 88.4689 89.5589 88.6211 89.3255 88.8058C89.0915 89.0021 88.8725 89.1906 88.6687 89.3712C88.5389 89.4861 88.4119 89.6041 88.2877 89.7252C88.1634 89.8464 88.0391 89.9675 87.9149 90.0886C87.7844 90.2152 87.6636 90.3277 87.5524 90.4262L87.2323 90.0648C87.375 89.9273 87.4582 89.8095 87.4816 89.7116C87.5106 89.6198 87.4919 89.5426 87.4255 89.4802C87.3584 89.4293 87.2611 89.3942 87.1337 89.3748L81.9977 88.4502C81.7024 88.4031 81.4299 88.413 81.1803 88.4797C80.9245 88.5519 80.6834 88.6718 80.457 88.8394L80.1368 88.478C80.2658 88.3747 80.4443 88.2276 80.6721 88.0368C80.8993 87.8576 81.1117 87.6804 81.3094 87.5053C81.5133 87.3247 81.7179 87.1324 81.9231 86.9285C82.1277 86.7362 82.2983 86.5741 82.4349 86.442ZM85.7524 83.503L86.0726 83.8644C85.892 84.0464 85.7518 84.2367 85.6521 84.4353C85.5524 84.6339 85.4801 84.8634 85.4351 85.1238C85.3956 85.3904 85.3769 85.6991 85.3791 86.0501L85.4206 88.2626L84.9745 88.2444L84.9685 86.8935C84.9511 86.6001 84.907 86.3635 84.836 86.1838C84.7588 86.0096 84.6579 85.8895 84.5333 85.8235C84.4087 85.7575 84.2665 85.7401 84.1067 85.7714C83.9524 85.8088 83.7922 85.8956 83.6262 86.0317L83.306 85.6703C83.4405 85.5732 83.6189 85.4261 83.8413 85.2291C84.063 85.0437 84.3036 84.8361 84.5631 84.6063C84.699 84.4858 84.8322 84.3623 84.9626 84.2358C85.0923 84.1208 85.2224 84.0001 85.3529 83.8735C85.4826 83.7586 85.6158 83.6351 85.7524 83.503ZM84.7208 88.6676L85.1763 88.6776L85.2355 90.1633C85.2521 90.4683 85.3083 90.6998 85.404 90.8576C85.5051 91.0215 85.6346 91.1054 85.7922 91.1091C85.9437 91.1182 86.1241 91.0356 86.3334 90.8612L86.6536 91.2226C86.5122 91.3368 86.3832 91.4401 86.2665 91.5324C86.1491 91.6364 86.0321 91.7346 85.9154 91.8269C85.8042 91.9254 85.6868 92.0294 85.5633 92.1389C85.3779 92.303 85.2046 92.4621 85.0433 92.6161C84.882 92.77 84.7237 92.9212 84.5686 93.0697L84.2484 92.7083C84.3919 92.5591 84.5073 92.3907 84.5947 92.203C84.6875 92.0216 84.753 91.8092 84.7911 91.5659C84.823 91.3282 84.8314 91.0451 84.8161 90.7168L84.7208 88.6676Z" fill="white"/>
<path d="M71.0761 92.6231C71.3486 92.5559 71.5937 92.5847 71.8115 92.7096C72.0293 92.8344 72.1707 93.029 72.2359 93.2935C72.2991 93.5499 72.2633 93.784 72.1285 93.9958C71.9937 94.2075 71.79 94.3469 71.5176 94.4141C71.2451 94.4813 71 94.4524 70.7822 94.3276C70.5644 94.2028 70.4239 94.0121 70.3607 93.7557C70.2955 93.4912 70.3304 93.2531 70.4652 93.0414C70.6 92.8297 70.8037 92.6902 71.0761 92.6231Z" fill="white"/>
</svg>
