<svg width="136" height="74" viewBox="0 0 136 74" fill="none" xmlns="http://www.w3.org/2000/svg">
<path d="M67.2971 0.0478901C67.7598 0.41315 68.0132 0.697506 68.2753 1.22168C68.4736 2.97333 67.7766 4.68875 66.808 6.13691C66.3346 6.68141 66.0167 7.0328 65.3408 7.28624C64.7906 7.12729 64.7906 7.12729 64.3627 6.89498C64.2314 5.47748 64.6402 4.59468 65.3408 3.37362C65.2763 3.30906 65.2117 3.2445 65.1452 3.17799C59.185 7.64363 55.7121 15.9706 52.6248 22.5455C54.7068 22.3261 56.7061 21.9735 58.7383 21.4573C59.0153 21.3882 59.2925 21.3194 59.5696 21.2506C60.1515 21.106 60.7332 20.9603 61.3146 20.8138C62.2189 20.5864 63.1245 20.3645 64.0302 20.1429C66.9828 19.4184 69.9159 18.6602 72.8291 17.7884C74.056 17.423 75.2914 17.0916 76.5285 16.7621C79.0916 16.0783 81.6436 15.3607 84.1871 14.6071C89.9758 12.8949 95.7864 11.3713 101.691 10.1164C102.26 9.99515 102.828 9.87221 103.397 9.74928C106.809 9.01157 110.226 8.30201 113.662 7.67751C113.891 7.63564 114.12 7.59378 114.356 7.55065C120.121 6.50889 125.849 5.72173 131.696 6.357C132.005 6.38901 132.005 6.38901 132.32 6.42166C133.562 6.57381 134.501 6.82454 135.572 7.48188C135.964 8.06877 135.964 8.06877 135.951 8.75348C135.768 9.43819 135.768 9.43819 135.365 9.82945C134.282 10.1981 133.264 9.91509 132.247 9.43819C132.247 8.92172 132.247 8.40525 132.247 7.87314C125.665 7.33971 119.358 7.91462 112.879 9.04692C112.636 9.08926 112.392 9.13159 112.141 9.17521C105.425 10.3572 98.7371 11.811 92.1423 13.5464C91.9088 13.6074 91.6752 13.6683 91.4346 13.7311C87.1029 14.863 82.8014 16.0926 78.5028 17.3433C73.5631 18.7804 68.6085 20.1492 63.6316 21.4513C63.1831 21.5688 62.7347 21.6868 62.2864 21.8049C53.5252 24.1105 53.5252 24.1105 51.8423 24.1105C51.927 24.276 52.0117 24.4414 52.099 24.6118C53.7867 28.0498 54.005 31.1743 52.7915 34.8018C52.343 36.0387 51.7833 37.2271 51.226 38.4177C51.0272 38.8543 50.8577 39.2983 50.6929 39.7488C48.2761 45.9084 48.2761 45.9084 46.1598 46.8825C45.9691 46.921 45.7785 46.9596 45.5821 46.9994C44.9952 46.6081 44.9952 46.6081 44.863 46.2627C43.9626 40.0579 46.7344 31.0006 49.4947 25.4799C48.2551 25.738 47.066 26.0644 45.8633 26.4581C45.4805 26.5813 45.0976 26.7043 44.7147 26.8272C44.4053 26.9268 44.4053 26.9268 44.0897 27.0285C22.8432 33.8624 22.8432 33.8624 18.0867 31.7103C16.6091 30.9213 15.8624 29.9091 15.1859 28.4022C15.0298 27.6687 15.0378 27.0117 15.0636 26.2625C14.9345 26.2625 14.8054 26.2625 14.6723 26.2625C14.6058 26.4198 14.6058 26.4198 14.5378 26.5804C14.1919 27.2063 13.7848 27.6887 13.3029 28.2188C13.1738 28.2188 13.0447 28.2188 12.9117 28.2188C12.8625 28.334 12.8133 28.4493 12.7626 28.568C12.4902 29.0554 12.2033 29.3188 11.7746 29.6738C11.3105 30.0645 10.8857 30.4439 10.4663 30.8843C9.62263 31.6857 8.84825 32.2689 7.67852 32.4249C7.01236 32.3224 6.72394 32.2217 6.2602 31.7401C5.57321 29.6792 6.13455 27.5553 7.03479 25.6627C7.61394 24.5862 8.40073 23.6646 9.19467 22.7411C9.35329 22.5391 9.51191 22.3371 9.67534 22.129C10.1744 21.5655 10.6334 21.2119 11.2732 20.8215C11.4573 20.7072 11.6414 20.593 11.8311 20.4753C12.6717 20.003 13.3235 19.9049 14.2811 20.0023C15.0416 20.4758 15.475 20.87 15.7239 21.7263C15.7642 21.9321 15.8046 22.1378 15.8461 22.3498C15.9591 22.132 16.0721 21.9141 16.1885 21.6896C16.4445 21.2443 16.6047 20.9984 17.0199 20.687C17.4929 20.5687 17.7428 20.6044 18.1937 20.7848C18.6527 21.2438 18.6475 21.3333 18.6583 21.9586C18.6411 23.1392 18.3634 24.2568 18.0809 25.3974C17.7726 26.6625 17.5958 27.6472 18.2671 28.8301C18.3533 28.992 18.4396 29.1539 18.5284 29.3207C19.4372 30.2606 20.6673 30.5935 21.9497 30.6703C22.3075 30.6736 22.6655 30.6713 23.0233 30.6642C23.2174 30.6618 23.4114 30.6594 23.6113 30.657C27.2603 30.562 30.7527 29.6291 34.2355 28.61C34.535 28.5231 34.8346 28.4363 35.1342 28.3496C41.2633 26.6042 41.2633 26.6042 47.3427 24.6974C46.8908 24.5037 46.4389 24.3101 45.9733 24.1105C45.9038 23.0672 45.9038 23.0672 46.169 22.5699C47.4425 21.8535 49.1783 22.5743 50.4728 22.9367C50.5374 22.7108 50.602 22.4848 50.6685 22.252C51.1104 20.9264 51.775 19.704 52.4117 18.4644C52.6226 18.0503 52.8289 17.6341 53.0336 17.2168C53.6647 15.9319 54.3052 14.6717 55.0618 13.4547C55.4202 12.8668 55.7508 12.2655 56.085 11.6635C57.929 8.39641 60.2251 5.31766 62.7976 2.5911C62.997 2.37624 62.997 2.37624 63.2003 2.15704C64.343 0.963185 65.5243 -0.258946 67.2971 0.0478901ZM13.1073 22.7411C10.9942 23.8585 9.43315 26.2968 8.54969 28.4442C8.41303 28.9977 8.40616 29.2596 8.60777 29.7838C8.83709 29.6306 9.06509 29.4753 9.29248 29.3192C9.41958 29.233 9.54668 29.1467 9.67763 29.0579C9.77649 28.9746 9.87534 28.8914 9.97719 28.8057C9.97719 28.6766 9.97719 28.5474 9.97719 28.4144C10.0918 28.3618 10.2064 28.3093 10.3244 28.2551C10.7623 28.0218 11.092 27.7688 11.4643 27.4424C11.5924 27.3307 11.7205 27.2189 11.8525 27.1038C12.05 26.9295 12.05 26.9295 12.2514 26.7515C12.3846 26.6353 12.5177 26.519 12.6549 26.3993C13.1432 25.9718 13.6264 25.5477 14.0854 25.0887C14.0462 24.5628 14.0462 24.5628 13.9143 23.9883C13.8744 23.7921 13.8346 23.5959 13.7935 23.3937C13.7607 23.2429 13.728 23.0921 13.6942 22.9367C13.5005 22.8722 13.3068 22.8076 13.1073 22.7411ZM50.8641 26.2625C48.7055 32.7839 48.7055 32.7839 46.7558 39.3698C46.6734 39.6599 46.5909 39.9501 46.5083 40.2402C45.9746 42.1403 45.7464 43.857 45.7777 45.8256C47.2797 44.4561 48.1497 42.7339 48.9689 40.8981C49.0605 40.6948 49.152 40.4915 49.2463 40.282C49.5274 39.653 49.805 39.0226 50.0816 38.3916C50.1685 38.1949 50.2553 37.9982 50.3448 37.7955C51.6791 34.776 51.6791 34.776 52.2335 31.5445C52.2466 31.3922 52.2597 31.2399 52.2733 31.0829C52.3556 29.4242 51.8941 27.6927 51.0597 26.2625C50.9952 26.2625 50.9306 26.2625 50.8641 26.2625Z" fill="white"/>
<path d="M131.696 6.35703C131.902 6.37837 132.108 6.39971 132.32 6.4217C133.562 6.57384 134.501 6.82458 135.572 7.48191C135.964 8.0688 135.964 8.0688 135.951 8.75351C135.768 9.43822 135.768 9.43822 135.365 9.82948C134.282 10.1981 133.264 9.91512 132.247 9.43822C132.247 8.92175 132.247 8.40529 132.247 7.87317C125.665 7.33975 119.358 7.91465 112.879 9.04696C112.636 9.08929 112.392 9.13163 112.141 9.17524C105.425 10.3573 98.7371 11.811 92.1423 13.5465C91.9088 13.6074 91.6753 13.6683 91.4347 13.7311C87.464 14.7687 83.513 15.8725 79.5774 17.0361C79.0255 17.1992 78.4734 17.3614 77.9213 17.5237C77.5294 17.6394 77.1378 17.7565 76.7463 17.8736C75.5497 18.2259 74.4113 18.5343 73.1661 18.6329C73.1661 18.5038 73.1661 18.3747 73.1661 18.2416C73.0437 18.2772 72.9213 18.3127 72.7952 18.3494C72.2424 18.5096 71.6894 18.6691 71.1364 18.8285C70.9437 18.8845 70.7511 18.9405 70.5526 18.9982C70.3685 19.0511 70.1844 19.1041 69.9947 19.1586C69.8247 19.2078 69.6546 19.257 69.4794 19.3077C69.0578 19.4154 69.0578 19.4154 68.6666 19.4154C68.6666 19.2863 68.6666 19.1572 68.6666 19.0241C71.5023 18.1686 74.3418 17.3417 77.2042 16.5799C79.542 15.9571 81.8676 15.2944 84.1871 14.6072C89.9758 12.8949 95.7864 11.3714 101.691 10.1164C102.26 9.99518 102.828 9.87224 103.397 9.74931C106.809 9.0116 110.226 8.30204 113.662 7.67754C114.005 7.61475 114.005 7.61475 114.356 7.55068C120.121 6.50892 125.849 5.72176 131.696 6.35703Z" fill="white"/>
<path d="M15.1377 62.4352C15.4105 62.4365 15.6834 62.4388 15.9562 62.4421C16.0952 62.4429 16.2343 62.4438 16.3776 62.4447C16.7221 62.447 17.0667 62.4506 17.4112 62.4543C18.1868 64.1897 18.8678 65.9377 19.4859 67.7348C19.7574 68.5237 20.0498 69.3038 20.3456 70.0839C20.8984 68.7118 21.447 67.3385 21.9825 65.9596C22.0616 65.7562 22.1407 65.5529 22.2221 65.3433C22.3806 64.9353 22.5386 64.527 22.6962 64.1186C22.7691 63.931 22.842 63.7434 22.9171 63.5501C23.015 63.2969 23.015 63.2969 23.1149 63.0386C23.2801 62.6499 23.2801 62.6499 23.4757 62.4543C23.9361 62.4401 24.3968 62.4379 24.8574 62.4421C25.1098 62.4438 25.3622 62.4456 25.6223 62.4474C25.8178 62.4497 26.0132 62.4519 26.2146 62.4543C26.2146 62.7125 26.2146 62.9708 26.2146 63.2368C25.9563 63.3014 25.6981 63.3659 25.432 63.4324C25.432 66.3376 25.432 69.2427 25.432 72.2358C25.7548 72.365 26.0776 72.4941 26.4102 72.6271C26.4102 72.8208 26.4102 73.0145 26.4102 73.214C24.9899 73.214 23.5696 73.214 22.1063 73.214C22.1709 72.9558 22.2354 72.6975 22.3019 72.4315C22.6893 72.3346 22.6893 72.3346 23.0845 72.2358C23.118 71.5675 23.1502 70.8991 23.1823 70.2306C23.1916 70.045 23.2009 69.8594 23.2106 69.6682C23.275 68.306 23.2909 66.948 23.2801 65.5844C23.2329 65.7112 23.1857 65.8381 23.1371 65.9688C22.6759 67.2073 22.2113 68.4443 21.7444 69.6806C21.5498 70.1987 21.3586 70.7179 21.1687 71.2378C21.0697 71.5013 20.9707 71.7647 20.8714 72.028C20.7874 72.2557 20.7034 72.4834 20.6169 72.718C20.3456 73.214 20.3456 73.214 19.9374 73.3428C19.8139 73.3649 19.6904 73.3869 19.5631 73.4096C19.4881 73.2192 19.4131 73.0287 19.3359 72.8325C19.0566 72.1234 18.7773 71.4143 18.498 70.7051C18.3773 70.3987 18.2567 70.0923 18.136 69.7858C17.9622 69.3444 17.7883 68.903 17.6144 68.4615C17.5608 68.3254 17.5072 68.1892 17.452 68.0489C17.1794 67.357 16.9048 66.6661 16.6286 65.9756C16.6286 68.0415 16.6286 70.1074 16.6286 72.2358C16.9514 72.3004 17.2742 72.365 17.6068 72.4315C17.6068 72.6897 17.6068 72.9479 17.6068 73.214C16.5739 73.214 15.5409 73.214 14.4767 73.214C14.4121 73.0849 14.3476 72.9558 14.2811 72.8227C14.3456 72.6936 14.4102 72.5645 14.4767 72.4315C14.978 72.3092 14.978 72.3092 15.4549 72.2358C15.4597 71.045 15.4632 69.8541 15.4656 68.6633C15.4666 68.2579 15.4679 67.8526 15.4696 67.4473C15.472 66.8655 15.4731 66.2838 15.474 65.7021C15.475 65.5201 15.476 65.3381 15.477 65.1506C15.477 64.9822 15.477 64.8138 15.4771 64.6403C15.4777 64.4175 15.4777 64.4175 15.4784 64.1901C15.4775 63.8057 15.4775 63.8057 15.2592 63.4324C15.1301 63.4042 15.001 63.376 14.868 63.3469C14.7388 63.3105 14.6097 63.2742 14.4767 63.2368C14.4121 63.0431 14.3476 62.8495 14.2811 62.6499C14.4767 62.4543 14.4767 62.4543 15.1377 62.4352Z" fill="white"/>
<path d="M73.1661 62.8456C74.3086 63.652 75.0401 64.5845 75.318 65.9757C75.4744 67.7922 75.6565 69.9138 74.5355 71.4533C74.0586 72.0035 74.0586 72.0035 73.5573 72.4315C73.408 72.5727 73.2587 72.7139 73.1049 72.8594C71.9778 73.6196 70.8499 73.6907 69.5377 73.5136C67.8155 73.1406 66.9312 72.1444 65.9644 70.7442C65.3238 68.9235 65.332 66.7239 66.1241 64.9486C66.7712 63.8211 67.644 62.9729 68.801 62.3809C70.3339 62.0917 71.7968 62.0514 73.1661 62.8456ZM68.5985 63.9536C67.6219 65.383 67.3111 67.0017 67.4928 68.7145C67.7714 70.1728 68.1453 71.3473 69.229 72.3948C69.7808 72.7032 70.1851 72.7974 70.8185 72.8227C71.9887 72.4015 72.5198 71.7456 73.0843 70.6655C73.4656 69.7506 73.4663 68.8506 73.4595 67.8708C73.4585 67.6885 73.4576 67.5062 73.4565 67.3184C73.4226 65.9836 73.2735 64.8752 72.3835 63.8237C71.7331 63.2298 71.384 63.0626 70.5128 62.9556C69.6338 63.0675 69.1632 63.2564 68.5985 63.9536Z" fill="white"/>
<path d="M80.4044 62.4542C81.631 62.4542 82.8576 62.4542 84.1214 62.4542C84.1214 62.7125 84.1214 62.9707 84.1214 63.2367C83.8632 63.2367 83.6049 63.2367 83.3389 63.2367C83.9675 64.2971 84.599 65.3493 85.2952 66.3668C85.4082 66.2256 85.5212 66.0844 85.6376 65.9389C85.9195 65.5864 86.2084 65.2393 86.5057 64.8996C86.8751 64.3901 86.9852 64.0509 87.0559 63.4324C86.7331 63.3033 86.4103 63.1741 86.0777 63.0411C86.0777 62.8474 86.0777 62.6538 86.0777 62.4542C87.1752 62.4542 88.2727 62.4542 89.4035 62.4542C89.4035 62.7125 89.4035 62.9707 89.4035 63.2367C89.1257 63.4164 88.847 63.5948 88.5634 63.7652C87.8968 64.2727 87.5113 65.0248 87.0803 65.731C86.983 65.8861 86.8856 66.0412 86.7854 66.201C86.5473 66.581 86.3115 66.9623 86.0777 67.345C86.5862 68.1958 87.0994 69.0437 87.6183 69.8882C87.7008 70.0249 87.7832 70.1616 87.8682 70.3024C88.2626 70.9416 88.6244 71.4567 89.1604 71.9912C89.5991 72.4314 89.5991 72.4314 89.7947 73.2139C88.5681 73.2139 87.3415 73.2139 86.0777 73.2139C86.1423 72.9557 86.2068 72.6975 86.2734 72.4314C86.5639 72.3346 86.5639 72.3346 86.8602 72.2358C86.7518 72.0895 86.6434 71.9433 86.5316 71.7926C86.3899 71.5999 86.2482 71.4072 86.1022 71.2087C85.9615 71.0181 85.8207 70.8274 85.6758 70.631C85.3715 70.1936 85.1226 69.7848 84.9039 69.3013C84.1703 69.5459 84.081 69.7849 83.6935 70.4384C83.538 70.6945 83.538 70.6945 83.3794 70.9558C83.0873 71.4793 83.0873 71.4793 83.1433 72.2358C83.466 72.3649 83.7888 72.494 84.1214 72.627C84.1214 72.8207 84.1214 73.0144 84.1214 73.2139C82.8948 73.2139 81.6682 73.2139 80.4044 73.2139C80.469 72.9557 80.5335 72.6975 80.6001 72.4314C80.7211 72.4153 80.8421 72.3991 80.9669 72.3825C81.4088 72.2793 81.4088 72.2793 81.5629 71.895C81.6673 71.6763 81.6673 71.6763 81.7738 71.4533C81.989 71.132 82.2095 70.8143 82.4341 70.4996C82.5546 70.3281 82.6752 70.1566 82.7994 69.9799C83.0012 69.6965 83.205 69.4146 83.4138 69.1363C83.8289 68.598 83.8289 68.598 83.8776 67.9487C83.7135 67.4944 83.5046 67.1548 83.2288 66.7581C82.8636 66.2278 82.5024 65.697 82.1513 65.1571C82.0147 64.9471 81.878 64.737 81.7372 64.5206C81.6093 64.3231 81.4814 64.1257 81.3497 63.9222C81.0061 63.3936 81.0061 63.3936 80.4044 63.0411C80.4044 62.8474 80.4044 62.6538 80.4044 62.4542Z" fill="white"/>
<path d="M52.8204 62.4542C55.3382 62.4542 57.856 62.4542 60.4501 62.4542C60.4501 63.6163 60.4501 64.7783 60.4501 65.9756C60.1918 65.9756 59.9336 65.9756 59.6675 65.9756C59.6342 65.8248 59.601 65.674 59.5667 65.5186C59.5192 65.3224 59.4718 65.1262 59.423 64.9241C59.3549 64.6313 59.3549 64.6313 59.2854 64.3326C59.1259 63.8153 59.1259 63.8153 58.7505 63.5608C58.1465 63.3894 57.6045 63.3954 56.9776 63.4079C56.5741 63.416 56.1706 63.4241 55.7549 63.4324C55.7549 64.7881 55.7549 66.1438 55.7549 67.5406C56.5296 67.4438 56.5296 67.4438 57.32 67.345C57.4491 66.764 57.5782 66.183 57.7112 65.5843C57.9694 65.5843 58.2277 65.5843 58.4937 65.5843C58.4937 67.1337 58.4937 68.6831 58.4937 70.2795C58.2355 70.2795 57.9773 70.2795 57.7112 70.2795C57.5821 69.6984 57.453 69.1174 57.32 68.5188C56.8035 68.4542 56.287 68.3897 55.7549 68.3232C55.7549 69.6143 55.7549 70.9055 55.7549 72.2358C56.2068 72.3649 56.6587 72.494 57.1243 72.627C57.1243 72.8207 57.1243 73.0144 57.1243 73.2139C55.704 73.2139 54.2838 73.2139 52.8204 73.2139C52.885 72.9557 52.9496 72.6975 53.0161 72.4314C53.3066 72.3346 53.3066 72.3346 53.603 72.2358C53.603 69.3307 53.603 66.4255 53.603 63.4324C53.3447 63.3678 53.0865 63.3033 52.8204 63.2367C52.8204 62.9785 52.8204 62.7203 52.8204 62.4542Z" fill="white"/>
<path d="M4.69515 62.2587C5.44653 62.5894 5.44653 62.5894 5.7268 63.1344C5.79791 63.3377 5.86903 63.5409 5.9423 63.7504C6.06637 64.095 6.06637 64.095 6.19295 64.4465C6.23582 64.5688 6.27869 64.6911 6.32286 64.8171C6.54562 65.4471 6.78254 66.0718 7.01827 66.697C7.11714 66.9594 7.21597 67.2218 7.31477 67.4842C7.36559 67.619 7.4164 67.7539 7.46876 67.8928C7.64183 68.3559 7.8114 68.8202 7.98114 69.2846C8.10025 69.604 8.21946 69.9235 8.33878 70.2429C8.39297 70.3937 8.44715 70.5446 8.50298 70.7C8.81503 71.5259 9.04197 71.9196 9.78156 72.4315C9.78156 72.6897 9.78156 72.948 9.78156 73.214C8.49039 73.214 7.19923 73.214 5.86894 73.214C5.93349 72.9558 5.99805 72.6975 6.06457 72.4315C6.3228 72.4315 6.58103 72.4315 6.84709 72.4315C6.80699 72.3039 6.7669 72.1763 6.72559 72.0448C6.67288 71.8738 6.62017 71.7029 6.56587 71.5267C6.51367 71.3587 6.46147 71.1908 6.40769 71.0177C6.25464 70.4547 6.16048 69.8769 6.06457 69.3014C4.96708 69.3014 3.86958 69.3014 2.73884 69.3014C2.642 69.7856 2.642 69.7856 2.54321 70.2795C2.44528 70.6271 2.3434 70.9736 2.23753 71.3188C2.15847 71.578 2.15847 71.578 2.07782 71.8423C2.03772 71.9722 1.99762 72.102 1.95631 72.2359C2.34366 72.3004 2.73101 72.365 3.1301 72.4315C3.19466 72.6252 3.25922 72.8188 3.32573 73.0184C2.60866 73.4834 2.05597 73.4196 1.22269 73.3363C0.993715 73.3146 0.764734 73.2929 0.528816 73.2706C0.354306 73.2519 0.179797 73.2332 0 73.214C0 72.9558 0 72.6975 0 72.4315C0.146753 72.2892 0.293507 72.1469 0.444707 72.0003C1.11998 71.3079 1.36386 70.6415 1.68808 69.7439C1.74998 69.5796 1.81187 69.4153 1.87564 69.2461C2.07215 68.7234 2.26505 68.1994 2.45762 67.6752C2.65151 67.1534 2.84617 66.6318 3.04169 66.1106C3.16277 65.7872 3.28282 65.4634 3.40165 65.1392C3.77234 64.1414 4.20432 63.2034 4.69515 62.2587ZM4.30389 65.1931C4.10743 65.6737 3.91194 66.1547 3.71699 66.6359C3.66101 66.7726 3.60502 66.9093 3.54734 67.0501C3.23863 67.7615 3.23863 67.7615 3.1301 68.5189C3.96936 68.5189 4.80861 68.5189 5.6733 68.5189C5.51986 68.0374 5.36478 67.5567 5.20868 67.0761C5.1653 66.9394 5.12193 66.8027 5.07724 66.6619C4.81809 65.8543 4.81809 65.8543 4.30389 65.1931Z" fill="white"/>
<path d="M30.9097 62.4542C32.1363 62.4542 33.3629 62.4542 34.6267 62.4542C34.6267 62.7125 34.6267 62.9707 34.6267 63.2367C34.2394 63.4304 34.2394 63.4304 33.8442 63.628C34.0034 63.9465 34.0034 63.9465 34.1659 64.2715C34.776 65.4916 35.3861 66.7117 35.9961 67.9319C36.2453 67.439 36.4938 66.9458 36.742 66.4524C36.8117 66.3146 36.8814 66.1768 36.9533 66.0348C37.3833 65.1786 37.7796 64.3169 38.1481 63.4324C37.6962 63.3033 37.2443 63.1741 36.7787 63.0411C36.7787 62.8474 36.7787 62.6538 36.7787 62.4542C37.8116 62.4542 38.8445 62.4542 39.9088 62.4542C39.9088 63.4055 39.7179 63.5049 39.1262 64.2149C38.8091 64.7176 38.5217 65.2358 38.2337 65.7555C38.1581 65.8889 38.0826 66.0223 38.0048 66.1598C37.1657 67.6606 36.6876 68.8295 36.742 70.5607C36.7446 70.7225 36.7473 70.8842 36.75 71.0509C36.7569 71.4459 36.7674 71.8409 36.7787 72.2358C37.1015 72.3649 37.4242 72.494 37.7568 72.627C37.7568 72.8207 37.7568 73.0144 37.7568 73.2139C36.4011 73.2139 35.0454 73.2139 33.6486 73.2139C33.6486 72.9557 33.6486 72.6975 33.6486 72.4314C34.0359 72.3346 34.0359 72.3346 34.4311 72.2358C34.895 69.276 33.6429 67.0576 32.0835 64.6062C31.7724 64.1837 31.4555 63.7707 31.1226 63.3651C30.9097 63.0411 30.9097 63.0411 30.9097 62.4542Z" fill="white"/>
<path d="M131.696 6.35695C132.005 6.38899 132.005 6.38899 132.32 6.42167C133.562 6.57362 134.501 6.82441 135.572 7.48183C135.964 8.06873 135.964 8.06873 135.951 8.75344C135.768 9.43814 135.768 9.43814 135.365 9.82941C134.282 10.198 133.264 9.91505 132.247 9.43814C132.247 8.92168 132.247 8.40521 132.247 7.87309C131.225 7.81614 130.203 7.76049 129.18 7.70593C128.834 7.68729 128.488 7.66833 128.142 7.649C126.327 7.54781 124.516 7.46444 122.697 7.46349C122.488 7.46337 122.488 7.46337 122.274 7.46325C121.027 7.46989 119.793 7.55475 118.553 7.67746C118.488 7.54835 118.423 7.41923 118.357 7.2862C119.39 7.09253 120.423 6.89885 121.487 6.69931C121.487 6.63475 121.487 6.57019 121.487 6.50368C124.944 6.09564 128.23 5.97562 131.696 6.35695Z" fill="white"/>
<path d="M84.3171 14.9159C83.9297 15.1096 83.5424 15.3032 83.1433 15.5028C83.6597 15.4382 84.1762 15.3737 84.7083 15.3072C84.1423 15.6845 83.7328 15.8406 83.0875 16.0308C82.7716 16.1245 82.7716 16.1245 82.4494 16.22C82.2224 16.2859 81.9955 16.3519 81.7616 16.4198C81.5289 16.488 81.2961 16.5562 81.0563 16.6265C79.3761 17.1155 77.6915 17.5874 76.0027 18.046C75.7858 18.1052 75.569 18.1644 75.3455 18.2253C75.1448 18.2791 74.944 18.3329 74.7372 18.3883C74.4726 18.4595 74.4726 18.4595 74.2027 18.532C73.753 18.6329 73.753 18.6329 73.1661 18.6329C73.1661 18.5038 73.1661 18.3746 73.1661 18.2416C73.0437 18.2772 72.9213 18.3127 72.7952 18.3494C72.2424 18.5096 71.6894 18.6691 71.1364 18.8285C70.9437 18.8845 70.7511 18.9405 70.5526 18.9982C70.2764 19.0776 70.2764 19.0776 69.9947 19.1586C69.8247 19.2078 69.6546 19.257 69.4794 19.3077C69.0578 19.4154 69.0578 19.4154 68.6666 19.4154C68.6666 19.2863 68.6666 19.1572 68.6666 19.0241C71.4992 18.1695 74.3354 17.3432 77.1948 16.5824C78.5941 16.2098 79.9899 15.8264 81.3826 15.4294C81.5557 15.3803 81.7288 15.3313 81.9071 15.2807C82.0649 15.2355 82.2226 15.1902 82.3852 15.1436C82.5917 15.0845 82.5917 15.0845 82.8024 15.0241C83.7135 14.7348 83.7135 14.7348 84.3171 14.9159Z" fill="white"/>
<path d="M73.1661 18.2416C73.1661 18.4353 73.1661 18.6289 73.1661 18.8285C70.8143 19.5228 68.4606 20.2107 66.0989 20.8704C65.922 20.921 65.745 20.9716 65.5627 21.0237C64.6832 21.2666 63.9155 21.4337 62.9932 21.3717C63.0578 21.2426 63.1224 21.1134 63.1889 20.9804C63.0731 21.0087 62.9574 21.0369 62.8381 21.066C62.0297 21.2559 61.2868 21.4257 60.45 21.3717C60.8734 20.9483 61.0402 20.8947 61.6041 20.7564C61.7607 20.7173 61.9173 20.6781 62.0787 20.6378C62.3324 20.5767 62.3324 20.5767 62.5913 20.5143C62.7644 20.4714 62.9376 20.4285 63.1159 20.3844C63.6698 20.2475 64.2241 20.1127 64.7784 19.9778C65.1536 19.8855 65.5288 19.793 65.904 19.7004C66.8245 19.4735 67.7454 19.2484 68.6666 19.0241C68.6666 19.1532 68.6666 19.2823 68.6666 19.4154C68.8397 19.362 68.8397 19.362 69.0164 19.3076C69.5394 19.1471 70.0628 18.9877 70.5862 18.8285C70.7679 18.7725 70.9496 18.7165 71.1368 18.6588C71.3114 18.6059 71.486 18.5529 71.666 18.4983C71.8268 18.4492 71.9877 18.4 72.1534 18.3493C72.5792 18.2416 72.5792 18.2416 73.1661 18.2416Z" fill="white"/>
<path d="M83.9258 68.3232C84.0549 68.3878 84.184 68.4524 84.317 68.5189C84.2142 68.6944 84.2142 68.6944 84.1092 68.8735C83.8606 69.3226 83.8606 69.3226 84.1214 69.8883C83.9265 70.2604 83.9265 70.2604 83.6446 70.6586C83.1998 71.2875 83.1433 71.4165 83.1433 72.2359C83.6274 72.4295 83.6274 72.4295 84.1214 72.6271C84.1214 72.8208 84.1214 73.0145 84.1214 73.214C82.8948 73.214 81.6682 73.214 80.4044 73.214C80.469 72.9558 80.5335 72.6976 80.6001 72.4315C80.7816 72.4073 80.7816 72.4073 80.9669 72.3826C81.4088 72.2794 81.4088 72.2794 81.5629 71.895C81.6673 71.6764 81.6673 71.6764 81.7738 71.4533C81.989 71.1321 82.2095 70.8144 82.4341 70.4996C82.9432 69.7812 83.4419 69.0588 83.9258 68.3232Z" fill="white"/>
<path d="M36.7787 62.4542C37.8116 62.4542 38.8445 62.4542 39.9088 62.4542C39.9088 63.4029 39.7172 63.5088 39.1262 64.2149C38.8312 64.6818 38.5632 65.1629 38.2948 65.6455C38.2237 65.7717 38.1526 65.8979 38.0793 66.0279C37.9058 66.3361 37.7334 66.6449 37.5612 66.9537C37.4321 66.8892 37.3029 66.8246 37.1699 66.7581C36.9117 67.21 36.6534 67.6619 36.3874 68.1275C36.1918 67.5406 36.1918 67.5406 36.5013 66.833C36.6448 66.5543 36.7903 66.2767 36.9376 66C37.0819 65.7236 37.2258 65.447 37.3694 65.1701C37.4371 65.0398 37.5049 64.9095 37.5746 64.7752C37.7933 64.3374 37.978 63.8912 38.1481 63.4324C37.6962 63.3033 37.2443 63.1741 36.7787 63.0411C36.7787 62.8474 36.7787 62.6538 36.7787 62.4542Z" fill="white"/>
<path d="M50.6685 36.631C50.7976 36.631 50.9267 36.631 51.0598 36.631C50.9306 37.0829 50.8015 37.5348 50.6685 38.0004C50.8622 38.0004 51.0558 38.0004 51.2554 38.0004C50.8658 39.5449 50.2402 40.9001 49.4947 42.3043C49.2365 42.3043 48.9782 42.3043 48.7122 42.3043C48.3951 42.7372 48.3951 42.7372 48.1253 43.2824C47.8877 43.6309 47.6473 43.9773 47.4039 44.3217C47.2821 44.4945 47.1603 44.6672 47.0348 44.8452C46.9428 44.9751 46.8507 45.1049 46.7559 45.2388C46.6913 45.1096 46.6268 44.9805 46.5602 44.8475C46.6322 44.7476 46.7042 44.6478 46.7783 44.5449C47.6195 43.3365 48.2385 42.0827 48.8345 40.7392C48.9252 40.538 49.016 40.3368 49.1096 40.1294C49.3701 39.5509 49.6285 38.9715 49.886 38.3917C49.9651 38.2139 50.0442 38.0361 50.1257 37.8529C50.3069 37.4457 50.4878 37.0384 50.6685 36.631Z" fill="white"/>
<path d="M16.2374 67.3451C16.3019 67.3451 16.3665 67.3451 16.433 67.3451C16.4976 68.9591 16.5621 70.573 16.6286 72.2359C16.9514 72.3004 17.2742 72.365 17.6068 72.4315C17.6068 72.6897 17.6068 72.948 17.6068 73.214C16.5739 73.214 15.5409 73.214 14.4767 73.214C14.4121 73.0849 14.3476 72.9558 14.2811 72.8228C14.3456 72.6936 14.4102 72.5645 14.4767 72.4315C14.7995 72.3669 15.1223 72.3024 15.4549 72.2359C15.5194 70.751 15.584 69.2662 15.6505 67.7364C15.7796 67.7364 15.9087 67.7364 16.0417 67.7364C16.1063 67.6072 16.1709 67.4781 16.2374 67.3451Z" fill="white"/>
<path d="M1.76068 69.4969C2.08347 69.4969 2.40626 69.4969 2.73884 69.4969C2.69874 69.6127 2.65864 69.7285 2.61733 69.8477C2.34762 70.6388 2.08983 71.408 1.95631 72.2358C2.53734 72.3326 2.53734 72.3326 3.1301 72.4314C3.19466 72.6251 3.25922 72.8188 3.32573 73.0183C2.60866 73.4833 2.05597 73.4195 1.22269 73.3362C0.993715 73.3145 0.764734 73.2928 0.528816 73.2705C0.354306 73.2518 0.179797 73.2332 0 73.2139C0 72.9557 0 72.6975 0 72.4314C0.217884 72.2256 0.217884 72.2256 0.44017 72.0157C1.15521 71.2682 1.42517 70.4623 1.76068 69.4969Z" fill="white"/>
<path d="M116.401 7.48191C116.28 7.53033 116.158 7.57875 116.034 7.62863C115.585 7.8314 115.585 7.8314 115.488 8.25909C115.227 8.6557 115.227 8.6557 114.573 8.85362C114.302 8.90149 114.031 8.94535 113.76 8.98583C113.619 9.00907 113.478 9.03232 113.333 9.05627C112.922 9.12262 112.509 9.18349 112.097 9.24259C111.892 9.27336 111.687 9.30412 111.475 9.33582C110.226 9.49505 110.226 9.49505 109.553 9.04696C110.199 8.78873 110.845 8.53049 111.51 8.26444C111.51 8.19988 111.51 8.13532 111.51 8.0688C112.251 7.93224 112.993 7.79851 113.735 7.66531C113.946 7.62635 114.158 7.58739 114.375 7.54725C114.577 7.51131 114.779 7.47538 114.987 7.43835C115.173 7.40454 115.36 7.37074 115.552 7.3359C116.009 7.28628 116.009 7.28628 116.401 7.48191Z" fill="white"/>
<path d="M3.91263 64.215C4.04174 64.4086 4.17086 64.6023 4.30389 64.8019C4.36845 64.6727 4.43301 64.5436 4.49952 64.4106C4.56408 64.7334 4.62864 65.0562 4.69515 65.3888C4.50148 65.4856 4.50148 65.4856 4.30389 65.5844C4.12305 65.9984 3.95822 66.4196 3.80259 66.8438C3.33316 68.1127 3.33316 68.1127 3.1301 68.5189C4.09848 68.5189 5.06685 68.5189 6.06457 68.5189C6.06457 68.648 6.06457 68.7771 6.06457 68.9101C4.96708 68.9101 3.86959 68.9101 2.73884 68.9101C2.73884 68.7164 2.73884 68.5228 2.73884 68.3232C2.67428 68.4523 2.60972 68.5815 2.54321 68.7145C2.41409 68.7145 2.28498 68.7145 2.15195 68.7145C3.45289 64.6747 3.45289 64.6747 3.91263 64.215Z" fill="white"/>
<path d="M45.3864 25.6756C44.9523 25.9008 44.5447 26.0862 44.0782 26.2381C43.9289 26.3107 43.7796 26.3833 43.6258 26.4582C43.6094 26.5827 43.593 26.7073 43.5761 26.8357C43.5279 26.9693 43.4798 27.103 43.4301 27.2407C42.8891 27.4883 42.8891 27.4883 42.2074 27.6809C41.9845 27.7464 41.7616 27.812 41.5319 27.8795C40.9618 28.0065 40.4888 28.0537 39.9088 28.0232C40.3 27.6319 40.3 27.6319 40.8013 27.5341C40.9587 27.5018 41.1161 27.4696 41.2782 27.4363C41.3427 27.3072 41.4073 27.1781 41.4738 27.0451C41.3604 27.0806 41.247 27.1162 41.1302 27.1528C40.6134 27.3139 40.0961 27.473 39.5786 27.6319C39.4002 27.6879 39.2218 27.7439 39.038 27.8016C38.8646 27.8546 38.6912 27.9075 38.5126 27.9621C38.2744 28.0358 38.2744 28.0358 38.0314 28.1111C37.5339 28.2251 37.0917 28.2378 36.583 28.2188C37.1411 27.6608 37.8153 27.5369 38.5546 27.3186C38.712 27.2714 38.8693 27.2242 39.0314 27.1756C39.3647 27.076 39.6982 26.977 40.0319 26.8786C40.5405 26.7284 41.048 26.5751 41.5556 26.4215C41.8798 26.325 42.2041 26.2287 42.5284 26.1326C42.6794 26.0868 42.8305 26.0409 42.9861 25.9937C43.8103 25.7536 44.518 25.6241 45.3864 25.6756Z" fill="white"/>
<path d="M57.7112 65.5844C57.9694 65.5844 58.2277 65.5844 58.4937 65.5844C58.4937 67.1337 58.4937 68.6831 58.4937 70.2795C58.2355 70.2795 57.9773 70.2795 57.7112 70.2795C57.7039 70.1592 57.6966 70.0389 57.689 69.915C57.6762 69.7569 57.6633 69.5987 57.6501 69.4358C57.6387 69.2792 57.6274 69.1226 57.6157 68.9613C57.4995 68.4479 57.3282 68.2629 56.9287 67.9319C56.9852 67.8351 57.0417 67.7382 57.0999 67.6385C57.4007 66.9699 57.5446 66.2983 57.7112 65.5844Z" fill="white"/>
<path d="M95.0767 11.7858C95.0767 11.9149 95.0767 12.044 95.0767 12.177C94.8831 12.2416 94.6894 12.3061 94.4899 12.3727C94.619 12.5018 94.7481 12.6309 94.8811 12.7639C93.2618 13.2509 91.6625 13.6784 89.9903 13.9377C90.0549 13.8086 90.1195 13.6795 90.186 13.5464C89.9277 13.4819 89.6695 13.4173 89.4034 13.3508C90.4172 12.7794 91.4427 12.5084 92.5702 12.2382C92.7466 12.1942 92.923 12.1502 93.1048 12.1048C94.4071 11.7858 94.4071 11.7858 95.0767 11.7858Z" fill="white"/>
<path d="M106.032 9.43816C106.032 9.50272 106.032 9.56728 106.032 9.63379C106.419 9.69835 106.807 9.76291 107.206 9.82942C106.233 10.4783 105.047 10.6872 103.88 10.6119C103.945 10.4828 104.009 10.3537 104.076 10.2207C104.577 10.0984 104.577 10.0984 105.054 10.0251C104.917 10.0488 104.78 10.0725 104.638 10.0969C103.773 10.2497 102.918 10.4029 102.071 10.6364C101.32 10.8116 100.731 10.8394 99.9675 10.8076C100.548 10.4207 100.893 10.3095 101.562 10.1641C101.857 10.0998 101.857 10.0998 102.158 10.0342C102.466 9.96916 102.466 9.96916 102.78 9.90278C102.983 9.8579 103.187 9.81301 103.397 9.76676C104.293 9.57424 105.112 9.41093 106.032 9.43816Z" fill="white"/>
<path d="M87.2515 63.6281C87.53 64.185 87.5008 64.5739 87.4471 65.1931C87.1476 65.7785 87.1476 65.7785 86.7624 66.3424C86.6353 66.5316 86.5082 66.7207 86.3773 66.9156C86.2784 67.0573 86.1796 67.199 86.0777 67.345C85.6987 67.2839 85.6987 67.2839 85.2952 67.1494C85.2306 66.9557 85.1661 66.7621 85.0995 66.5625C85.2125 66.4576 85.3255 66.3527 85.4419 66.2446C86.1809 65.4646 86.7087 64.5508 87.2515 63.6281Z" fill="white"/>
<path d="M50.6685 36.631C50.7976 36.631 50.9267 36.631 51.0597 36.631C50.9306 37.0829 50.8015 37.5348 50.6685 38.0004C50.8621 38.0004 51.0558 38.0004 51.2554 38.0004C51.1262 38.3877 50.9971 38.7751 50.8641 39.1742C50.735 38.9805 50.6059 38.7868 50.4728 38.5873C50.3949 38.7431 50.317 38.899 50.2367 39.0596C49.7285 40.0759 49.2203 41.0923 48.7122 42.1087C48.583 42.0441 48.4539 41.9795 48.3209 41.913C49.1034 40.1523 49.8859 38.3917 50.6685 36.631Z" fill="white"/>
<path d="M71.7967 72.2358C71.9258 72.3004 72.0549 72.365 72.1879 72.4315C72.0588 72.5606 71.9297 72.6897 71.7967 72.8227C71.9782 72.7582 72.1598 72.6936 72.3469 72.6271C72.9704 72.4315 72.9704 72.4315 73.5573 72.4315C72.7947 73.1464 72.0484 73.4934 71.0141 73.6053C70.419 73.5803 69.8403 73.5102 69.2534 73.4096C69.5117 73.2805 69.7699 73.1514 70.036 73.0184C69.7777 72.8892 69.5195 72.7601 69.2534 72.6271C69.6447 72.4315 69.6447 72.4315 70.1949 72.5415C70.8852 72.6363 71.1745 72.5124 71.7967 72.2358Z" fill="white"/>
<path d="M38.5393 64.215C38.6731 64.542 38.6731 64.542 38.735 64.9975C38.4973 65.5019 38.4973 65.5019 38.1603 66.0246C38.0496 66.1991 37.9389 66.3736 37.8248 66.5534C37.7378 66.6855 37.6508 66.8177 37.5612 66.9538C37.4321 66.8892 37.303 66.8247 37.1699 66.7582C36.9117 67.2101 36.6535 67.662 36.3874 68.1276C36.1918 67.5407 36.1918 67.5407 36.515 66.8415C36.662 66.5721 36.8112 66.3039 36.9621 66.0368C37.0754 65.8308 37.0754 65.8308 37.1909 65.6207C37.3778 65.2816 37.5671 64.9438 37.7568 64.6062C37.8859 64.7353 38.0151 64.8645 38.1481 64.9975C38.2772 64.7393 38.4063 64.481 38.5393 64.215Z" fill="white"/>
<path d="M21.1282 68.3232C21.2573 68.3878 21.3864 68.4524 21.5194 68.5189C21.5194 68.5834 21.5194 68.648 21.5194 68.7145C21.584 68.5854 21.6486 68.4563 21.7151 68.3232C21.8442 68.3232 21.9733 68.3232 22.1063 68.3232C21.5047 70.3887 21.5047 70.3887 21.1282 71.2577C20.8699 71.1932 20.6117 71.1286 20.3457 71.0621C20.2234 70.7075 20.2234 70.7075 20.15 70.2796C20.2791 70.0859 20.4083 69.8922 20.5413 69.6927C20.6524 69.4545 20.7584 69.214 20.8592 68.9713C20.948 68.7574 21.0367 68.5436 21.1282 68.3232Z" fill="white"/>
<path d="M1.76068 69.4969C2.08348 69.4969 2.40627 69.4969 2.73884 69.4969C2.69874 69.6127 2.65865 69.7285 2.61733 69.8477C2.34763 70.6388 2.08983 71.408 1.95632 72.2358C1.8272 71.9776 1.69808 71.7193 1.56505 71.4533C1.48032 71.6106 1.39559 71.768 1.30829 71.9301C0.978159 72.4314 0.978159 72.4314 0.391266 72.627C0.472216 72.4712 0.472216 72.4712 0.554801 72.3122C0.824998 71.7573 1.06045 71.1922 1.29606 70.6218C1.38331 70.411 1.47057 70.2002 1.56047 69.983C1.65957 69.7424 1.65957 69.7424 1.76068 69.4969Z" fill="white"/>
<path d="M127.283 6.08799C127.445 6.08723 127.608 6.08647 127.776 6.08569C128.574 6.08696 129.316 6.10785 130.095 6.30807C129.393 6.77585 129.084 6.74507 128.252 6.73754C128.007 6.73628 127.762 6.73502 127.509 6.73372C127.125 6.7288 127.125 6.7288 126.732 6.72379C126.471 6.72182 126.21 6.72004 125.949 6.71844C125.309 6.71382 124.67 6.70738 124.03 6.69933C124.03 6.57022 124.03 6.4411 124.03 6.30807C125.122 6.12268 126.176 6.0828 127.283 6.08799Z" fill="white"/>
<path d="M99.7719 10.8076C99.5782 10.9367 99.3846 11.0658 99.185 11.1989C99.3787 11.328 99.5724 11.4571 99.7719 11.5901C99.3363 11.7222 98.9001 11.8522 98.4636 11.9814C98.0994 12.0903 98.0994 12.0903 97.7277 12.2015C97.1307 12.3486 96.6635 12.4099 96.0549 12.3727C96.6603 11.7673 97.3368 11.6025 98.1824 11.5657C98.3196 11.5738 98.4568 11.5818 98.5981 11.5901C98.5981 11.461 98.5981 11.3319 98.5981 11.1989C98.4045 11.2634 98.2108 11.328 98.0112 11.3945C98.0112 11.2654 98.0112 11.1363 98.0112 11.0032C98.6366 10.7948 99.118 10.7931 99.7719 10.8076Z" fill="white"/>
<path d="M52.0379 28.6101C52.6684 29.2406 52.639 29.9536 52.6615 30.811C52.6537 31.7423 52.4711 32.6035 52.2335 33.5009C52.169 33.5009 52.1044 33.5009 52.0379 33.5009C52.0379 31.8869 52.0379 30.273 52.0379 28.6101Z" fill="white"/>
<path d="M83.9258 68.3232C84.0549 68.3878 84.184 68.4524 84.317 68.5189C84.2484 68.6359 84.1798 68.7529 84.1092 68.8735C83.8606 69.3226 83.8606 69.3226 84.1214 69.8883C83.8632 70.1465 83.6049 70.4048 83.3389 70.6708C83.3389 70.4771 83.3389 70.2835 83.3389 70.0839C83.0161 70.4067 82.6933 70.7295 82.3607 71.0621C82.62 70.3534 82.9366 69.7641 83.3633 69.1424C83.4687 68.9879 83.5742 68.8333 83.6828 68.674C83.763 68.5583 83.8431 68.4425 83.9258 68.3232Z" fill="white"/>
<path d="M82.9476 70.8665C83.1433 71.4533 83.1433 71.4533 83.1433 72.2359C83.6274 72.4295 83.6274 72.4295 84.1214 72.6271C84.1214 72.8208 84.1214 73.0145 84.1214 73.214C83.4758 73.214 82.8302 73.214 82.1651 73.214C82.1651 73.1495 82.1651 73.0849 82.1651 73.0184C82.4879 72.9538 82.8107 72.8893 83.1433 72.8228C82.9496 72.6937 82.7559 72.5645 82.5564 72.4315C82.7275 71.0865 82.7275 71.0865 82.9476 70.8665Z" fill="white"/>
<path d="M47.9296 25.6756C46.6532 26.381 45.2926 26.9044 43.8214 26.8494C44.4987 26.245 45.2346 26.04 46.0956 25.8223C46.2287 25.786 46.3619 25.7497 46.4991 25.7122C47.4874 25.4544 47.4874 25.4544 47.9296 25.6756Z" fill="white"/>
<path d="M111.705 8.26439C111.063 8.69277 110.491 8.8509 109.749 9.04691C109.878 9.17603 110.007 9.30515 110.14 9.43818C109.818 9.43818 109.495 9.43818 109.162 9.43818C109.162 9.37362 109.162 9.30906 109.162 9.24254C108.71 9.24254 108.258 9.24254 107.793 9.24254C107.793 9.11343 107.793 8.98431 107.793 8.85128C108.261 8.75228 108.73 8.65467 109.199 8.55783C109.331 8.52984 109.462 8.50185 109.598 8.47301C110.312 8.32685 110.977 8.23044 111.705 8.26439Z" fill="white"/>
<path d="M15.6505 67.7363C15.7151 67.7363 15.7796 67.7363 15.8461 67.7363C15.8632 68.4373 15.8736 69.1382 15.8828 69.8394C15.8877 70.0381 15.8926 70.2368 15.8977 70.4415C15.8996 70.6332 15.9015 70.8249 15.9034 71.0223C15.9081 71.2866 15.9081 71.2866 15.9128 71.5563C15.8317 72.1449 15.6853 72.4107 15.2592 72.8227C15.001 72.8227 14.7428 72.8227 14.4767 72.8227C14.4767 72.6936 14.4767 72.5645 14.4767 72.4315C14.7995 72.3669 15.1223 72.3024 15.4549 72.2358C15.5194 70.751 15.584 69.2662 15.6505 67.7363Z" fill="white"/>
<path d="M2.93446 67.932C2.99902 68.1257 3.06358 68.3194 3.13009 68.5189C4.09847 68.5189 5.06684 68.5189 6.06456 68.5189C6.06456 68.648 6.06456 68.7771 6.06456 68.9102C4.96707 68.9102 3.86958 68.9102 2.73883 68.9102C2.80339 68.5874 2.86795 68.2646 2.93446 67.932Z" fill="white"/>
<path d="M87.2515 63.6281C87.5369 64.1989 87.5192 64.5568 87.4471 65.1931C87.1643 65.6866 86.8314 66.125 86.469 66.5625C86.4044 66.4334 86.3399 66.3043 86.2733 66.1713C86.3379 65.9776 86.4025 65.7839 86.469 65.5844C86.4044 65.3907 86.3399 65.197 86.2733 64.9975C86.3621 64.9168 86.4509 64.8361 86.5423 64.7529C86.8719 64.398 87.0544 64.0677 87.2515 63.6281Z" fill="white"/>
<path d="M95.0767 11.7858C95.0767 11.9149 95.0767 12.044 95.0767 12.177C94.8831 12.2416 94.6894 12.3061 94.4899 12.3727C94.619 12.5018 94.7481 12.6309 94.8811 12.7639C94.4292 12.8285 93.9773 12.893 93.5117 12.9596C93.5117 12.8304 93.5117 12.7013 93.5117 12.5683C93.1889 12.5683 92.8661 12.5683 92.5335 12.5683C93.3285 12.0383 94.1182 11.7858 95.0767 11.7858Z" fill="white"/>
<path d="M90.5772 13.3508C90.1075 13.8206 89.784 13.8893 89.1467 14.06C88.9618 14.1109 88.777 14.1619 88.5865 14.2144C88.0578 14.3241 87.5938 14.3505 87.0559 14.329C87.5808 13.979 88.0408 13.7785 88.6209 13.5465C89.3742 13.0443 89.7137 13.1879 90.5772 13.3508Z" fill="white"/>
<path d="M3.717 65.78C3.78155 65.78 3.84611 65.78 3.91263 65.78C3.7726 67.4604 3.7726 67.4604 3.1301 68.1276C3.02923 68.2406 2.92836 68.3536 2.82443 68.47C2.54321 68.7145 2.54321 68.7145 2.15195 68.7145C2.28106 68.2626 2.41018 67.8107 2.54321 67.3451C2.73688 67.3451 2.93056 67.3451 3.1301 67.3451C3.32378 66.8286 3.51745 66.3121 3.717 65.78Z" fill="white"/>
<path d="M48.1253 42.3043C48.2544 42.3689 48.3835 42.4334 48.5166 42.5C48.3022 42.884 48.0858 43.2669 47.8685 43.6493C47.6881 43.9693 47.6881 43.9693 47.504 44.2958C47.1471 44.8475 47.1471 44.8475 46.5602 45.2388C46.8086 44.3488 47.1421 43.7898 47.734 43.0868C47.8727 42.8303 48.0068 42.5708 48.1253 42.3043Z" fill="white"/>
<path d="M81.9695 71.2577C82.034 71.3868 82.0986 71.5159 82.1651 71.649C81.4315 72.6027 81.4315 72.6027 80.9913 72.8227C81.2495 72.9519 81.5078 73.081 81.7738 73.214C81.3219 73.214 80.87 73.214 80.4044 73.214C80.469 72.9558 80.5335 72.6975 80.6001 72.4315C80.7211 72.4153 80.8421 72.3992 80.9669 72.3826C81.4166 72.2738 81.4166 72.2738 81.6149 71.8446C81.6673 71.7155 81.7198 71.5864 81.7738 71.4533C81.8384 71.3888 81.903 71.3242 81.9695 71.2577Z" fill="white"/>
<path d="M84.317 14.5247C84.3816 14.6538 84.4462 14.7829 84.5127 14.9159C84.9 14.8514 85.2874 14.7868 85.6865 14.7203C84.7841 15.6849 83.8018 15.6548 82.5564 15.6984C82.9476 15.3072 82.9476 15.3072 83.5467 15.1116C84.1452 14.9829 84.1452 14.9829 84.317 14.5247Z" fill="white"/>
<path d="M109.358 9.04699C109.487 9.24066 109.616 9.43434 109.749 9.63388C108.878 9.73072 108.878 9.73072 107.988 9.82951C107.859 9.63584 107.73 9.44216 107.597 9.24262C108.235 9.02993 108.69 8.99011 109.358 9.04699Z" fill="white"/>
<path d="M105.641 9.82953C104.797 10.3921 104.113 10.6121 103.098 10.6121C103.033 10.4829 102.969 10.3538 102.902 10.2208C103.849 9.95946 104.65 9.77998 105.641 9.82953Z" fill="white"/>
<path d="M70.036 62.2587C70.5524 62.2587 71.0689 62.2587 71.601 62.2587C71.4073 62.3878 71.2137 62.5169 71.0141 62.6499C71.1432 62.779 71.2724 62.9082 71.4054 63.0412C70.8889 63.0412 70.3724 63.0412 69.8403 63.0412C69.9049 62.783 69.9694 62.5247 70.036 62.2587Z" fill="white"/>
<path d="M87.0559 72.2358C87.0559 72.4295 87.0559 72.6232 87.0559 72.8227C87.185 72.9518 87.3141 73.081 87.4471 73.214C86.9952 73.214 86.5433 73.214 86.0777 73.214C86.1423 72.9558 86.2068 72.6975 86.2734 72.4315C86.5316 72.3669 86.7898 72.3024 87.0559 72.2358Z" fill="white"/>
<path d="M83.3389 69.8882C83.4612 70.255 83.4612 70.255 83.5345 70.6707C83.1127 71.0926 82.6794 71.3511 82.1651 71.6489C82.2574 70.8178 82.7455 70.436 83.3389 69.8882Z" fill="white"/>
<path d="M49.299 39.9567C49.4282 40.0212 49.5573 40.0858 49.6903 40.1523C49.3675 40.7979 49.0447 41.4435 48.7122 42.1086C48.583 42.044 48.4539 41.9795 48.3209 41.913C48.6437 41.2674 48.9665 40.6218 49.299 39.9567Z" fill="white"/>
<path d="M42.2563 27.045C42.3209 27.1742 42.3854 27.3033 42.452 27.4363C40.8031 28.107 40.8031 28.107 39.9088 28.0232C40.3683 27.5636 40.6828 27.4889 41.3026 27.314C41.4807 27.2631 41.6587 27.2122 41.8421 27.1597C41.9788 27.1218 42.1155 27.084 42.2563 27.045Z" fill="white"/>
<path d="M77.0787 17.4591C76.6443 17.8935 76.4997 17.9634 75.9049 18.046C75.5118 17.9931 75.1197 17.9298 74.7311 17.8504C75.5964 17.2735 76.0709 17.2071 77.0787 17.4591Z" fill="white"/>
<path d="M70.4272 62.4543C70.2336 62.7125 70.0399 62.9707 69.8403 63.2368C69.5821 63.1722 69.3239 63.1077 69.0578 63.0412C69.1869 63.0412 69.316 63.0412 69.4491 63.0412C69.4491 62.9121 69.4491 62.7829 69.4491 62.6499C69.2554 62.5853 69.0617 62.5208 68.8622 62.4543C69.5058 62.2397 69.7842 62.2979 70.4272 62.4543Z" fill="white"/>
<path d="M21.715 66.7582C21.9733 66.7582 22.2315 66.7582 22.4976 66.7582C22.4976 67.081 22.4976 67.4038 22.4976 67.7363C22.2393 67.7363 21.9811 67.7363 21.715 67.7363C21.6505 67.5427 21.5859 67.349 21.5194 67.1494C21.584 67.0203 21.6485 66.8912 21.715 66.7582Z" fill="white"/>
<path d="M62.7976 21.3717C62.3286 21.8407 62.1456 21.83 61.5015 21.8852C61.3417 21.8998 61.1818 21.9145 61.0171 21.9295C60.8945 21.9391 60.7719 21.9487 60.6457 21.9586C61.3047 21.2995 61.9089 21.3519 62.7976 21.3717Z" fill="white"/>
<path d="M118.357 7.48193C118.873 7.48193 119.39 7.48193 119.922 7.48193C119.857 7.61105 119.793 7.74017 119.726 7.8732C119.208 7.98931 118.691 8.01837 118.161 8.06883C118.226 7.87515 118.29 7.68148 118.357 7.48193Z" fill="white"/>
<path d="M22.302 72.4315C22.6247 72.4315 22.9475 72.4315 23.2801 72.4315C23.2801 72.6924 23.2801 72.9532 23.2801 73.214C22.8928 73.214 22.5054 73.214 22.1063 73.214C22.1709 72.9558 22.2354 72.6976 22.302 72.4315Z" fill="white"/>
<path d="M15.6505 71.4532C15.7151 71.6469 15.7796 71.8406 15.8461 72.0401C15.6138 72.4681 15.6138 72.4681 15.2592 72.8227C15.001 72.8227 14.7428 72.8227 14.4767 72.8227C14.4767 72.6935 14.4767 72.5644 14.4767 72.4314C14.7995 72.3668 15.1223 72.3023 15.4549 72.2358C15.5194 71.9775 15.584 71.7193 15.6505 71.4532Z" fill="white"/>
<path d="M79.6219 15.894C79.6865 16.0232 79.751 16.1523 79.8175 16.2853C80.2049 16.2207 80.5922 16.1562 80.9913 16.0897C80.9268 16.2833 80.8622 16.477 80.7957 16.6766C80.2147 16.6766 79.6336 16.6766 79.035 16.6766C79.2287 16.4183 79.4224 16.1601 79.6219 15.894Z" fill="white"/>
<path d="M84.5127 68.3232C84.6418 68.3232 84.7709 68.3232 84.904 68.3232C84.904 68.5169 84.904 68.7106 84.904 68.9101C84.7748 68.9101 84.6457 68.9101 84.5127 68.9101C84.4481 69.1038 84.3836 69.2975 84.3171 69.497C84.1234 69.497 83.9297 69.497 83.7302 69.497C83.8593 69.2388 83.9884 68.9806 84.1214 68.7145C84.2505 68.7145 84.3797 68.7145 84.5127 68.7145C84.5127 68.5854 84.5127 68.4563 84.5127 68.3232Z" fill="white"/>
<path d="M3.52136 65.78C3.65585 66.0979 3.65585 66.0979 3.71699 66.5626C3.43577 67.1984 3.43577 67.1984 3.13009 67.7363C3.00098 67.4781 2.87186 67.2199 2.73883 66.9538C2.86795 66.8893 2.99706 66.8247 3.13009 66.7582C3.27126 66.4366 3.40271 66.1105 3.52136 65.78Z" fill="white"/>
<path d="M59.6675 64.9974C59.9257 64.9974 60.184 64.9974 60.45 64.9974C60.45 65.3202 60.45 65.643 60.45 65.9756C60.1918 65.9756 59.9336 65.9756 59.6675 65.9756C59.6675 65.6528 59.6675 65.33 59.6675 64.9974Z" fill="white"/>
</svg>
