<svg width="93" height="93" viewBox="0 0 93 93" fill="none" xmlns="http://www.w3.org/2000/svg">
<path d="M77.0116 11.6029C77.2107 11.7784 77.4128 11.9502 77.6145 12.1226C78.1103 12.5567 78.5678 13.0303 79.0301 13.4994C79.3196 13.7903 79.611 14.0792 79.9043 14.3663C81.9052 16.3332 81.9052 16.3332 82.1327 17.0157C82.201 17.0157 82.2692 17.0157 82.3396 17.0157C82.4671 17.1544 82.4671 17.1544 82.6094 17.3486C82.662 17.4195 82.7145 17.4904 82.7686 17.5635C82.8233 17.6387 82.8779 17.7139 82.9342 17.7913C83.0138 17.8993 83.0138 17.8993 83.095 18.0095C83.203 18.1559 83.3107 18.3026 83.4181 18.4494C83.5784 18.6675 83.7408 18.8838 83.9038 19.0998C84.331 19.6683 84.7313 20.2549 85.1319 20.8422C85.1758 20.9062 85.2196 20.9703 85.2648 21.0362C85.7508 21.7474 86.2215 22.4559 86.6214 23.2201C86.7459 23.4545 86.8737 23.684 87.0068 23.9133C88.1418 25.8822 89.0836 27.9695 89.8913 30.0926C90.0025 30.3824 90.1169 30.6708 90.2315 30.9593C90.7162 32.1954 91.1021 33.4146 91.3768 34.7132C91.4478 35.0446 91.5229 35.3749 91.5985 35.7053C91.6537 35.9478 91.7088 36.1904 91.7638 36.4329C91.7888 36.5429 91.8138 36.653 91.8396 36.7663C93.0956 42.4064 93.2034 48.343 92.2679 54.0403C92.256 54.1136 92.244 54.187 92.2316 54.2626C90.8834 62.3995 87.2314 70.7447 81.5623 76.8243C81.3584 77.0455 81.1596 77.2691 80.9624 77.4962C80.0263 78.5696 79.0506 79.6083 77.9874 80.5568C77.7756 80.7459 77.5674 80.9362 77.3612 81.1312C76.5748 81.8739 75.7566 82.5536 74.8933 83.2049C74.8183 83.2617 74.7433 83.3185 74.6661 83.3771C73.5984 84.1838 72.5125 84.9473 71.3789 85.6586C71.1768 85.7862 70.9764 85.9162 70.7762 86.0469C69.6903 86.7501 68.5539 87.345 67.4012 87.9308C67.1833 88.0419 66.9664 88.1547 66.7501 88.2689C62.7231 90.3586 58.1571 91.6534 53.695 92.3752C53.4932 92.408 53.2916 92.4421 53.09 92.4761C43.7891 93.991 33.671 92.1613 25.1472 87.7588C24.9207 87.6414 24.6932 87.5263 24.4656 87.4112C23.4088 86.8717 22.4075 86.2783 21.4228 85.6168C21.2297 85.488 21.0352 85.3618 20.8398 85.2365C18.7937 83.9154 16.9123 82.3628 15.1161 80.7228C14.9714 80.5924 14.9714 80.5924 14.8236 80.4594C13.7618 79.5001 12.7304 78.5078 11.8067 77.4133C11.7125 77.305 11.6183 77.1967 11.5239 77.0885C10.8774 76.3453 10.2583 75.588 9.6667 74.8002C9.52274 74.6095 9.37709 74.4201 9.23126 74.2307C8.48434 73.2556 7.8024 72.2503 7.15274 71.2081C7.11431 71.1471 7.07589 71.086 7.03629 71.0232C5.66853 68.8435 4.53026 66.5451 3.53302 64.1755C3.49108 64.0774 3.44913 63.9793 3.40592 63.8783C2.63413 62.0618 2.09461 60.1792 1.56803 58.2805C1.53921 58.1774 1.5104 58.0743 1.48072 57.9681C-0.768736 49.8205 -0.366107 40.8847 2.08513 32.839C2.11496 32.741 2.14479 32.6429 2.17552 32.5418C3.48744 28.2961 5.447 24.185 7.98011 20.532C8.0531 20.426 8.0531 20.426 8.12756 20.3179C8.76702 19.3914 9.42943 18.4897 10.1334 17.6112C10.3637 17.3276 10.3637 17.3276 10.5656 17.0157C10.6339 17.0157 10.7021 17.0157 10.7725 17.0157C10.7945 16.9619 10.8165 16.9082 10.8391 16.8529C11.0385 16.4961 11.2999 16.2049 11.5675 15.8974C11.6235 15.8326 11.6795 15.7677 11.7373 15.7008C12.0679 15.3207 12.4054 14.9534 12.7698 14.605C12.9491 14.4254 13.1122 14.2378 13.2764 14.0443C13.6521 13.6124 14.0555 13.2212 14.4762 12.8336C14.5491 12.766 14.6219 12.6985 14.6969 12.6289C14.841 12.4955 14.9852 12.3624 15.1296 12.2295C15.2901 12.0817 15.4498 11.9332 15.6094 11.7844C16.2465 11.198 16.9203 10.6649 17.6059 10.137C17.809 9.98007 18.0107 9.8215 18.2123 9.66271C19.3459 8.77569 20.527 7.97262 21.7351 7.19071C21.8123 7.14038 21.8896 7.09006 21.9693 7.0382C22.7852 6.50872 23.6038 6.03056 24.4806 5.60789C24.8412 5.43082 25.1908 5.23937 25.5422 5.04473C29.1681 3.07979 33.2223 1.8143 37.2482 0.985471C37.3418 0.965923 37.4355 0.946376 37.532 0.926236C38.2271 0.784449 38.9246 0.672259 39.6268 0.571788C39.7566 0.552824 39.8864 0.53386 40.0201 0.514321C50.2403 -0.940889 60.7754 1.1786 77.0116 11.6029Z" fill="white"/>
<path d="M65.3619 26.2689C65.8283 26.5021 66.0662 26.7345 66.2927 27.1997C66.4179 28.1766 66.2651 28.9905 65.879 29.8886C65.8302 30.0455 65.7828 30.2028 65.7368 30.3605C65.3709 31.4603 64.5615 32.6424 63.6037 33.3015C63.2464 33.2954 62.9955 33.2866 62.7065 33.0656C62.4816 32.7737 62.5095 32.5135 62.5174 32.1554C62.6152 31.5892 62.9054 31.1056 63.1901 30.6126C63.2583 30.6126 63.3266 30.6126 63.3969 30.6126C63.4129 30.4802 63.4129 30.4802 63.4292 30.3452C63.5067 29.9605 63.639 29.6592 63.8106 29.3069C64.0656 28.7873 64.0656 28.7873 64.2243 28.2339C63.703 28.5112 63.2861 28.8092 62.8604 29.2164C62.803 29.2705 62.7457 29.3245 62.6866 29.3802C62.5087 29.5487 62.3321 29.7185 62.1558 29.8886C62.1006 29.9416 62.0454 29.9945 61.9885 30.0491C61.263 30.7476 60.6083 31.4756 59.984 32.2673C59.884 32.3904 59.7838 32.5134 59.6834 32.6362C59.0989 33.354 58.5471 34.0809 58.0275 34.8476C57.8216 35.1493 57.6087 35.4443 57.392 35.7384C57.0272 36.2363 56.684 36.7463 56.3445 37.2618C56.1967 37.483 56.045 37.6973 55.886 37.9102C55.6254 38.271 55.4223 38.6569 55.2129 39.0491C54.9665 39.5012 54.7093 39.9468 54.451 40.3923C54.401 40.4786 54.351 40.565 54.2995 40.6539C54.0555 41.0742 53.8082 41.4915 53.5525 41.9048C52.8411 43.0852 52.2824 44.3655 51.6955 45.6105C51.4956 46.0322 51.2952 46.449 51.0607 46.8529C50.9143 47.1058 50.8252 47.2886 50.7796 47.5736C50.7113 47.5736 50.6431 47.5736 50.5727 47.5736C50.5551 47.6398 50.5375 47.7061 50.5194 47.7744C50.3991 48.2038 50.2852 48.6017 50.0492 48.9827C49.883 49.2721 49.8057 49.4531 49.7328 49.7672C49.6879 49.9612 49.6879 49.9612 49.6419 50.1591C51.1422 50.0655 52.5709 49.7542 54.0292 49.4097C54.5363 49.29 55.0436 49.1809 55.5551 49.0821C56.5371 48.8892 57.5065 48.6472 58.478 48.4074C58.6612 48.3625 58.8444 48.3176 59.0276 48.2727C60.763 47.8471 62.496 47.4119 64.2273 46.9699C64.4246 46.9196 64.6219 46.8694 64.8192 46.8193C65.1098 46.7454 65.4003 46.6713 65.6907 46.5971C65.7775 46.5752 65.8642 46.5532 65.9536 46.5305C66.473 46.3975 66.9866 46.2505 67.4996 46.0945C67.827 45.9963 68.1568 45.9085 68.4875 45.8219C68.6213 45.7866 68.7551 45.7513 68.8889 45.716C69.094 45.6622 69.2991 45.6084 69.5042 45.5548C70.2021 45.372 70.8958 45.1867 71.578 44.9507C71.8723 44.8515 72.1713 44.7745 72.4721 44.6972C73.1127 44.5302 73.7493 44.3509 74.3853 44.1672C75.1817 43.9375 75.9801 43.7189 76.7829 43.5129C77.1675 43.4137 77.5488 43.3085 77.9287 43.1923C78.3884 43.0527 78.8509 42.925 79.3148 42.8001C79.3877 42.7804 79.4606 42.7607 79.5358 42.7405C79.8389 42.6588 80.1421 42.5773 80.4455 42.4963C81.5017 42.2179 81.5017 42.2179 82.5315 41.8565C83.019 41.6795 83.5278 41.5635 84.0293 41.433C84.8148 41.2265 85.5924 41.0117 86.3628 40.7543C86.9415 40.5669 87.4054 40.4869 88.011 40.541C88.011 40.6434 88.011 40.7457 88.011 40.8512C87.9349 40.8712 87.8588 40.8912 87.7803 40.9118C87.6794 40.9388 87.5785 40.9657 87.4745 40.9934C87.3749 41.0198 87.2753 41.0462 87.1727 41.0734C86.8788 41.1543 86.8788 41.1543 86.6262 41.2629C86.2829 41.397 85.9317 41.4826 85.5742 41.5687C85.5008 41.5868 85.4274 41.6049 85.3518 41.6235C85.0267 41.7035 84.7013 41.7821 84.3755 41.8596C83.7478 42.0111 83.1355 42.1927 82.5207 42.3902C81.8335 42.6074 81.1384 42.7927 80.4419 42.9778C79.6698 43.1831 78.902 43.3929 78.1404 43.6347C77.4941 43.8319 76.8422 44.0095 76.1912 44.1908C75.308 44.4368 74.4259 44.6869 73.5446 44.94C73.1844 45.0434 72.8237 45.1453 72.4628 45.2462C71.6911 45.4629 70.9229 45.6795 70.1663 45.9447C69.2453 46.2673 68.3181 46.4947 67.3657 46.7058C66.4941 46.9011 65.6338 47.1259 64.7737 47.3667C64.6463 47.4024 64.5189 47.4381 64.3876 47.4748C64.1378 47.5448 63.8879 47.6148 63.6381 47.6848C63.0633 47.8443 62.4862 47.9945 61.9086 48.1433C61.344 48.2889 60.78 48.4366 60.2167 48.5875C58.2182 49.1227 56.2165 49.6356 54.1989 50.0945C54.1035 50.1162 54.0081 50.1379 53.9098 50.1602C52.6151 50.4531 51.3189 50.7231 50.0076 50.9315C49.855 50.9569 49.855 50.9569 49.6993 50.9828C49.6124 50.9963 49.5254 51.0097 49.4359 51.0236C49.1892 51.0786 49.1892 51.0786 49.0214 51.4001C49.0573 51.7584 49.1282 51.9223 49.3317 52.2275C49.3317 52.3299 49.3317 52.4323 49.3317 52.5378C49.3999 52.5378 49.4682 52.5378 49.5385 52.5378C49.9936 53.3494 50.3345 54.0531 50.4192 54.996C50.4619 55.2806 50.5223 55.4744 50.6257 55.7373C50.8609 56.4175 50.8406 57.1194 50.8377 57.8316C50.8378 57.9045 50.8378 57.9774 50.8378 58.0525C50.8329 59.3891 50.6248 60.5904 50.1591 61.8456C50.1177 61.9581 50.1177 61.9581 50.0754 62.0728C49.9506 62.4054 49.8186 62.7331 49.6803 63.0604C49.5507 63.3681 49.4355 63.6766 49.3252 63.9916C49.1918 64.3659 49.0414 64.7242 48.8728 65.084C48.6765 65.5039 48.5169 65.9247 48.3686 66.3638C48.1044 67.1173 47.7594 67.8115 47.3935 68.5184C47.2456 68.8097 47.1036 69.1034 46.9619 69.3978C44.7184 74.0307 44.7184 74.0307 43.1264 75.0835C42.8097 75.1287 42.8097 75.1287 42.5059 75.0835C42.1527 74.7546 42.1078 74.3666 42.0739 73.901C42.0123 71.3144 42.4405 68.8845 43.0549 66.3799C43.1187 66.1177 43.1801 65.8553 43.24 65.5922C43.439 64.7176 43.6665 63.854 43.9106 62.9909C44.0539 62.4824 44.1896 61.972 44.3253 61.4615C44.6019 60.4226 44.886 59.3903 45.2187 58.3678C45.3161 58.0674 45.412 57.7665 45.5079 57.4656C45.9285 56.1487 46.3552 54.8343 46.8004 53.5255C46.8326 53.4301 46.8649 53.3346 46.8981 53.2363C46.9263 53.1534 46.9545 53.0706 46.9835 52.9852C47.0595 52.7345 47.1126 52.485 47.1599 52.2275C46.4931 52.0681 46.0391 52.2119 45.4017 52.4343C45.1519 52.5187 44.9019 52.6027 44.6519 52.6864C44.5848 52.7091 44.5177 52.7317 44.4486 52.7551C44.0365 52.8931 43.6233 53.0177 43.204 53.1324C42.3415 53.3729 41.4957 53.6629 40.6477 53.9496C38.9128 54.535 37.1563 55.0513 35.3908 55.5358C34.9519 55.6568 34.5146 55.7819 34.0783 55.9119C31.8859 56.5647 29.6768 57.1414 27.4274 57.562C27.1854 57.6081 26.9441 57.6574 26.7028 57.7068C24.4711 58.1497 21.9604 58.4445 19.9291 57.1873C19.837 57.1205 19.7449 57.0537 19.65 56.9849C19.5861 56.9399 19.5222 56.895 19.4564 56.8487C18.6034 56.1701 18.1342 55.2386 17.8918 54.1925C17.8725 54.1257 17.8531 54.0589 17.8332 53.9901C17.7789 53.7342 17.7785 53.4973 17.7819 53.2359C17.7829 53.1436 17.7838 53.0514 17.7847 52.9563C17.7859 52.8864 17.7871 52.8166 17.7884 52.7446C17.3913 52.9602 17.1209 53.1927 16.8253 53.5332C16.7448 53.6248 16.6642 53.7164 16.5813 53.8107C16.4292 53.9865 16.2773 54.1623 16.1256 54.3383C15.742 54.7785 15.3512 55.1742 14.9047 55.5503C14.6546 55.7713 14.4262 56.0078 14.1945 56.248C13.3994 57.0504 12.4372 57.9905 11.2535 58.0643C10.8592 58.0191 10.8592 58.0191 10.6136 57.8575C10.0288 56.9803 10.143 55.7139 10.2387 54.7096C10.3516 54.2232 10.5301 53.8091 10.7558 53.3651C10.8382 53.1854 10.8382 53.1854 10.9222 53.002C11.5415 51.6882 12.3945 50.5399 13.4447 49.5386C13.5092 49.4758 13.5738 49.413 13.6402 49.3483C14.4664 48.5741 15.4426 47.833 16.6148 47.8483C17.1558 47.9275 17.4681 48.2662 17.8074 48.6692C18.0528 49.1295 18.0423 49.4795 18.0211 49.991C18.0192 50.077 18.0173 50.163 18.0154 50.2516C18.0106 50.4621 18.0032 50.6726 17.9952 50.883C18.3114 50.725 18.3258 50.4801 18.4412 50.1526C18.9043 48.9291 18.9043 48.9291 19.2363 48.6078C19.5501 48.4722 19.7073 48.4817 20.0636 48.5044C20.3222 48.6336 20.3222 48.6336 20.4773 48.918C20.6182 49.7281 20.384 50.4996 20.1763 51.2761C19.7933 52.7196 19.4788 53.9886 20.1978 55.3649C20.3702 55.6346 20.5609 55.8304 20.7876 56.0541C20.7876 56.1223 20.7876 56.1906 20.7876 56.2609C21.952 56.8916 23.0993 57.0272 24.4073 57.0236C24.4804 57.0236 24.5535 57.0236 24.6289 57.0236C25.898 57.0198 27.1092 56.8933 28.3533 56.6326C28.6493 56.5708 28.9459 56.5138 29.243 56.4577C31.3723 56.0455 33.4825 55.4872 35.5442 54.8148C36.1664 54.6121 36.7935 54.4417 37.4278 54.2814C37.7186 54.2008 37.9864 54.0987 38.2657 53.9857C38.4027 53.9519 38.5407 53.9217 38.6794 53.8952C39.4684 53.727 40.2312 53.4644 40.9986 53.2185C41.8922 52.933 42.7868 52.6628 43.6923 52.4173C44.4447 52.2111 45.1817 51.9659 45.9188 51.7104C45.3006 51.5136 44.7383 51.4678 44.0887 51.4458C43.7212 51.3967 43.5194 51.3194 43.2299 51.0899C43.1463 50.6468 43.2057 50.4171 43.3979 50.0104C43.6958 49.6983 43.9935 49.6913 44.4127 49.6743C45.099 49.7015 45.6494 49.8869 46.282 50.1405C46.8423 50.33 47.3994 50.3552 47.9872 50.3659C48.0143 50.297 48.0413 50.2281 48.0692 50.1571C48.2192 49.7867 48.3769 49.42 48.5366 49.0538C48.5687 48.9803 48.6007 48.9068 48.6337 48.8311C48.8479 48.3438 49.0781 47.8678 49.3212 47.3942C49.435 47.1601 49.5299 46.9248 49.6226 46.6816C49.8857 46.0075 50.2201 45.3698 50.5478 44.7256C50.6891 44.4452 50.8276 44.1635 50.9658 43.8815C51.6136 42.5637 52.3007 41.2836 53.0548 40.0239C53.1596 39.8471 53.2644 39.6703 53.3691 39.4934C53.9066 38.5889 54.4574 37.696 55.0319 36.8146C55.1968 36.5547 55.3473 36.2943 55.4917 36.0228C55.733 35.5768 56.0238 35.1784 56.3263 34.772C56.5645 34.4482 56.7951 34.12 57.0248 33.7901C57.4968 33.1133 57.9784 32.4558 58.5103 31.8241C58.6769 31.6231 58.8374 31.4219 58.9951 31.2141C59.7741 30.1899 60.638 29.2588 61.5353 28.3373C61.6103 28.2593 61.6853 28.1813 61.7626 28.1009C61.8365 28.0251 61.9104 27.9493 61.9866 27.8711C62.0537 27.8019 62.1208 27.7327 62.1899 27.6614C62.3627 27.51 62.3627 27.51 62.5695 27.51C62.5695 27.4417 62.5695 27.3735 62.5695 27.3031C62.8189 27.136 63.0668 26.9818 63.3258 26.8313C63.3972 26.7887 63.4686 26.7461 63.5421 26.7022C64.1539 26.3411 64.644 26.1806 65.3619 26.2689Z" fill="black"/>
<path d="M17.0648 47.9776C17.4846 48.2605 17.7547 48.5705 17.9952 49.0215C18.0428 49.347 18.0347 49.6631 18.0211 49.9911C18.0192 50.0771 18.0173 50.163 18.0154 50.2516C18.0106 50.4622 18.0032 50.6726 17.9952 50.8831C18.3114 50.725 18.3258 50.4801 18.4412 50.1527C18.9043 48.9291 18.9043 48.9291 19.2363 48.6078C19.5501 48.4723 19.7073 48.4818 20.0636 48.5044C20.3222 48.6337 20.3222 48.6337 20.4773 48.9181C20.6182 49.7281 20.384 50.4996 20.1763 51.2762C19.7933 52.7197 19.4788 53.9887 20.1978 55.3649C20.3702 55.6346 20.5609 55.8304 20.7876 56.0541C20.7876 56.1224 20.7876 56.1906 20.7876 56.2609C21.1837 56.4755 21.601 56.6383 22.0286 56.7781C22.1401 56.815 22.2515 56.8519 22.3664 56.89C22.9951 57.0431 23.644 57.0118 24.2869 57.0062C24.5102 57.0043 24.7334 57.0041 24.9567 57.0041C25.644 57.0023 26.3126 56.9816 26.9928 56.8815C27.1823 56.8752 27.372 56.8724 27.5616 56.875C27.6944 56.8764 27.6944 56.8764 27.8299 56.8778C27.9275 56.8796 27.9275 56.8796 28.027 56.8815C28.0612 56.9839 28.0953 57.0862 28.1304 57.1917C27.8538 57.5665 27.4835 57.5947 27.051 57.6636C26.9839 57.6753 26.9167 57.6869 26.8476 57.6989C26.7028 57.7239 26.5579 57.7479 26.4129 57.7713C26.2346 57.8008 26.0567 57.8326 25.879 57.8657C23.9083 58.2238 21.6883 58.2761 19.9291 57.1873C19.837 57.1205 19.7449 57.0537 19.65 56.9849C19.5861 56.94 19.5222 56.895 19.4564 56.8488C18.6034 56.1702 18.1342 55.2386 17.8918 54.1925C17.8725 54.1257 17.8531 54.059 17.8332 53.9901C17.7789 53.7342 17.7785 53.4973 17.7819 53.2359C17.7829 53.1436 17.7838 53.0514 17.7847 52.9563C17.7859 52.8865 17.7871 52.8166 17.7884 52.7446C17.3913 52.9602 17.1209 53.1928 16.8253 53.5332C16.7448 53.6248 16.6642 53.7164 16.5813 53.8108C16.4292 53.9865 16.2773 54.1624 16.1256 54.3384C15.742 54.7786 15.3512 55.1742 14.9047 55.5503C14.6546 55.7714 14.4262 56.0078 14.1945 56.248C13.3994 57.0505 12.4372 57.9905 11.2535 58.0643C10.8592 58.0191 10.8592 58.0191 10.6136 57.8575C10.0288 56.9803 10.143 55.714 10.2387 54.7096C10.3516 54.2232 10.5301 53.8091 10.7558 53.3652C10.8107 53.2453 10.8656 53.1255 10.9222 53.002C11.5415 51.6882 12.3945 50.54 13.4447 49.5386C13.5092 49.4758 13.5738 49.413 13.6402 49.3483C14.4733 48.5678 15.8435 47.4252 17.0648 47.9776Z" fill="black"/>
<path d="M48.2975 53.2622C48.8459 53.4618 49.0065 53.922 49.2614 54.4148C50.4913 57.0791 50.0106 60.2053 49.0951 62.8708C49.0288 63.0655 48.9661 63.2613 48.9038 63.4572C48.7417 63.9674 48.5633 64.4365 48.3112 64.9079C48.1133 65.3264 47.9631 65.764 47.8095 66.2004C47.6368 66.6795 47.4196 67.0961 47.1598 67.5343C47.0532 67.7742 46.95 68.0156 46.8496 68.2582C46.0946 70.0012 45.2194 71.6447 44.1606 73.2224C44.1159 73.2903 44.0712 73.3582 44.0251 73.4282C43.9047 73.6093 43.7815 73.7879 43.6565 73.9657C43.5885 74.0632 43.5205 74.1606 43.4504 74.261C43.2299 74.4634 43.2299 74.4634 42.8929 74.4946C42.7993 74.4843 42.7058 74.474 42.6093 74.4634C42.527 71.995 42.9514 69.5928 43.711 67.249C43.8702 66.7549 44.0125 66.2562 44.1542 65.7567C44.18 65.6659 44.2058 65.5751 44.2324 65.4815C44.3672 65.007 44.5007 64.5322 44.6337 64.0571C44.8629 63.2418 45.0918 62.4363 45.3952 61.6449C45.65 60.9125 45.8429 60.1587 46.0532 59.4125C46.1498 59.0722 46.2496 58.7331 46.3519 58.3945C46.3957 58.2493 46.3957 58.2493 46.4403 58.1012C46.5354 57.824 46.648 57.5588 46.7654 57.2905C46.9274 56.9023 47.0612 56.5037 47.1986 56.1063C47.2458 55.9712 47.2458 55.9712 47.2938 55.8334C47.4424 55.406 47.5884 54.978 47.7282 54.5477C47.7631 54.4408 47.7631 54.4408 47.7986 54.3318C47.8606 54.14 47.9217 53.948 47.9828 53.7559C48.0906 53.469 48.0906 53.469 48.2975 53.2622Z" fill="white"/>
<path d="M16.5473 49.7452C16.5885 49.8948 16.5885 49.8948 16.6305 50.0474C16.667 50.178 16.7036 50.3087 16.7412 50.4433C16.7952 50.6377 16.7952 50.6377 16.8503 50.836C16.9431 51.1791 16.9431 51.1791 17.0846 51.4145C17.2065 51.6962 17.1699 51.8376 17.0644 52.1239C16.8345 52.3752 16.8345 52.3752 16.5408 52.6281C16.463 52.696 16.463 52.696 16.3836 52.7653C16.2322 52.8972 16.0795 53.0277 15.9268 53.1581C15.7952 53.2743 15.6638 53.3907 15.5325 53.5071C15.3884 53.6324 15.244 53.7573 15.0994 53.882C15.0473 53.9271 14.9952 53.9722 14.9414 54.0186C12.3456 56.2607 12.3456 56.2607 11.7899 56.2607C11.7952 54.8159 12.3693 53.663 13.2378 52.5376C13.3203 52.4266 13.4025 52.3155 13.4847 52.2043C15.3781 49.6633 15.3781 49.6633 16.5473 49.7452Z" fill="white"/>
<path d="M88.011 40.541C88.011 40.6434 88.011 40.7458 88.011 40.8513C87.8968 40.8813 87.8968 40.8813 87.7803 40.9119C87.6794 40.9388 87.5785 40.9657 87.4745 40.9935C87.3749 41.0199 87.2753 41.0463 87.1727 41.0735C86.8788 41.1544 86.8788 41.1544 86.6261 41.2629C86.2828 41.3971 85.9317 41.4826 85.5741 41.5687C85.5008 41.5868 85.4274 41.6049 85.3518 41.6235C85.0266 41.7035 84.7012 41.7821 84.3755 41.8596C83.7478 42.0112 83.1355 42.1927 82.5207 42.3902C81.8335 42.6074 81.1383 42.7927 80.4419 42.9778C79.6697 43.1832 78.902 43.3929 78.1404 43.6347C77.4941 43.832 76.8422 44.0095 76.1912 44.1908C75.3079 44.4368 74.4259 44.687 73.5446 44.94C73.1844 45.0434 72.8237 45.1453 72.4628 45.2462C71.6911 45.4629 70.9229 45.6796 70.1662 45.9447C69.2457 46.2672 68.319 46.4947 67.367 46.7054C66.3525 46.9323 65.3541 47.2056 64.3535 47.4869C63.4194 47.7486 62.4827 47.9857 61.5353 48.1941C61.5694 48.0235 61.6036 47.8528 61.6387 47.677C62.9218 47.2751 64.222 46.9473 65.5275 46.6279C66.1798 46.4678 66.8275 46.3017 67.4694 46.1031C68.1424 45.9024 68.8248 45.7324 69.5042 45.5548C70.2021 45.372 70.8958 45.1867 71.578 44.9508C71.8723 44.8515 72.1713 44.7745 72.472 44.6972C73.1127 44.5303 73.7493 44.3509 74.3853 44.1672C75.1817 43.9375 75.9801 43.7189 76.7829 43.513C77.1675 43.4137 77.5488 43.3085 77.9287 43.1924C78.3884 43.0528 78.8509 42.925 79.3148 42.8001C79.3877 42.7804 79.4606 42.7608 79.5358 42.7405C79.8389 42.6588 80.1421 42.5773 80.4454 42.4963C81.5017 42.2179 81.5017 42.2179 82.5315 41.8565C83.019 41.6795 83.5278 41.5635 84.0293 41.433C84.8148 41.2265 85.5924 41.0117 86.3627 40.7543C86.9415 40.5669 87.4054 40.4869 88.011 40.541Z" fill="black"/>
<path d="M46.1256 51.6069C46.1598 51.7093 46.1939 51.8117 46.2291 51.9172C46.3314 52.0196 46.3314 52.0196 46.4359 52.124C46.3509 52.1486 46.3509 52.1486 46.2642 52.1737C45.7225 52.3331 45.1867 52.5053 44.6519 52.6864C44.1722 52.8485 43.6926 52.9986 43.204 53.1324C42.3415 53.3729 41.4957 53.6628 40.6477 53.9496C38.9128 54.5349 37.1563 55.0512 35.3908 55.5357C34.9519 55.6568 34.5146 55.7819 34.0783 55.9118C32.9371 56.2516 31.7931 56.5711 30.6384 56.862C30.4613 56.907 30.4613 56.907 30.2807 56.9528C29.534 57.1382 28.7878 57.2838 28.027 57.3985C27.9929 57.262 27.9588 57.1255 27.9236 56.9848C27.753 56.9507 27.5823 56.9166 27.4065 56.8814C27.4065 56.8473 27.4065 56.8131 27.4065 56.778C27.5293 56.7571 27.5293 56.7571 27.6545 56.7358C30.4161 56.259 33.1179 55.6126 35.7824 54.7382C36.3245 54.5618 36.8752 54.421 37.4278 54.2813C37.7186 54.2007 37.9864 54.0986 38.2657 53.9856C38.4027 53.9519 38.5407 53.9217 38.6793 53.8951C39.4684 53.727 40.2311 53.4644 40.9986 53.2184C41.8164 52.9572 42.634 52.7044 43.4626 52.4795C44.8257 52.1285 44.8257 52.1285 46.1256 51.6069Z" fill="black"/>
<path d="M48.194 64.9482C48.226 65.0144 48.258 65.0805 48.291 65.1486C48.3838 65.3553 48.3838 65.3553 48.5043 65.4653C48.5336 65.8995 48.4899 66.1923 48.2995 66.5816C48.2521 66.6801 48.2047 66.7787 48.1559 66.8803C48.1002 66.9935 48.0446 67.1068 47.9872 67.2235C47.9223 67.3592 47.8576 67.4951 47.793 67.631C47.611 68.0135 47.4271 68.3951 47.2425 68.7763C47.1661 68.9341 47.0901 69.092 47.0142 69.25C46.3488 70.6362 45.6366 71.9801 44.7811 73.2607C44.7286 73.3395 44.676 73.4184 44.6218 73.4996C43.7598 74.7668 43.7598 74.7668 43.1264 75.0835C42.8226 75.1158 42.8226 75.1158 42.5059 75.0835C42.2507 74.8538 42.1996 74.7281 42.1762 74.3854C42.1826 74.3086 42.189 74.2318 42.1956 74.1527C42.3321 74.1868 42.4687 74.2209 42.6093 74.2561C42.6093 74.3244 42.6093 74.3926 42.6093 74.4629C42.8141 74.4629 43.0189 74.4629 43.2298 74.4629C43.2668 74.38 43.2668 74.38 43.3046 74.2953C43.4386 74.0457 43.5957 73.8249 43.7648 73.598C44.4638 72.6591 45.0411 71.6586 45.6085 70.6364C45.6494 70.563 45.6903 70.4897 45.7324 70.4141C46.114 69.7257 46.4712 69.0411 46.7478 68.3025C46.8642 68.0146 47.0034 67.7446 47.1469 67.4691C47.4746 66.8288 47.7222 66.1688 47.9666 65.4936C48.0906 65.1551 48.0906 65.1551 48.194 64.9482Z" fill="black"/>
<path d="M88.011 40.541C88.011 40.6434 88.011 40.7458 88.011 40.8513C87.8968 40.8813 87.8968 40.8813 87.7803 40.9119C87.6794 40.9388 87.5785 40.9657 87.4745 40.9935C87.3749 41.0199 87.2753 41.0463 87.1727 41.0735C86.8788 41.1544 86.8788 41.1544 86.6261 41.2629C86.2828 41.3971 85.9317 41.4826 85.5741 41.5687C85.5008 41.5868 85.4274 41.6049 85.3517 41.6235C85.0266 41.7035 84.7012 41.7821 84.3755 41.8596C83.7478 42.0112 83.1355 42.1927 82.5207 42.3902C81.8334 42.6074 81.1383 42.7927 80.4419 42.9778C79.4356 43.2437 79.4356 43.2437 78.4381 43.5402C77.7671 43.7508 77.0917 43.9438 76.415 44.1349C76.2994 44.1678 76.1839 44.2007 76.0649 44.2347C75.9018 44.2804 75.9018 44.2804 75.7354 44.3272C75.6373 44.3549 75.5392 44.3826 75.4381 44.4111C75.1868 44.471 75.1868 44.471 74.8766 44.471C74.8424 44.4027 74.8083 44.3345 74.7731 44.2641C74.5638 44.1967 74.5638 44.1967 74.3595 44.1607C74.448 44.1373 74.5366 44.1138 74.6279 44.0897C74.9614 44.0014 75.2948 43.9129 75.6282 43.8243C75.7716 43.7862 75.9151 43.7482 76.0585 43.7103C76.7807 43.5191 77.5008 43.3246 78.2153 43.106C78.5802 42.9983 78.9474 42.899 79.3148 42.8001C79.3878 42.7804 79.4607 42.7607 79.5359 42.7404C79.839 42.6588 80.1422 42.5773 80.4454 42.4963C81.5017 42.2179 81.5017 42.2179 82.5315 41.8565C83.019 41.6795 83.5278 41.5635 84.0293 41.433C84.8148 41.2265 85.5924 41.0117 86.3627 40.7543C86.9415 40.5669 87.4054 40.4869 88.011 40.541Z" fill="black"/>
<path d="M67.2234 46.3322C67.4109 46.4874 67.4109 46.4874 67.5337 46.6425C65.8839 47.086 64.2341 47.5277 62.5749 47.9348C62.2281 48.0201 61.8817 48.107 61.5353 48.1938C61.5694 48.0232 61.6036 47.8525 61.6387 47.6767C62.7177 47.3387 63.8081 47.0472 64.9042 46.7704C65.0538 46.7326 65.2034 46.6946 65.3529 46.6564C65.5664 46.602 65.78 46.5484 65.9937 46.4951C66.1808 46.448 66.1808 46.448 66.3717 46.4C66.6742 46.3388 66.9178 46.2935 67.2234 46.3322Z" fill="black"/>
<path d="M46.1256 51.6069C46.1768 51.7605 46.1768 51.7605 46.229 51.9172C46.2973 51.9855 46.3656 52.0537 46.4359 52.124C46.3509 52.1486 46.3509 52.1486 46.2642 52.1737C45.7262 52.3321 45.1952 52.5042 44.6648 52.6864C43.8538 52.9629 43.0292 53.169 42.1956 53.3651C42.0933 53.2286 41.9909 53.0921 41.8854 52.9514C42.8381 52.6464 43.7923 52.3565 44.7599 52.1021C45.2369 51.9739 45.6758 51.8115 46.1256 51.6069Z" fill="black"/>
<path d="M70.4295 45.5049C70.3271 45.539 70.2247 45.5732 70.1192 45.6083C70.0434 45.8167 70.0434 45.8167 70.0158 46.022C67.863 46.5963 67.863 46.5963 67.3269 46.5391C67.1864 46.4392 67.0482 46.336 66.9132 46.2289C67.3471 46.1079 67.7814 45.9882 68.216 45.8697C68.3638 45.8292 68.5115 45.7884 68.659 45.7472C68.8713 45.688 69.084 45.6301 69.2967 45.5724C69.4245 45.5372 69.5523 45.502 69.684 45.4657C69.99 45.4065 70.1438 45.3948 70.4295 45.5049Z" fill="black"/>
<path d="M78.3929 43.2295C78.2222 43.2978 78.0516 43.366 77.8758 43.4363C78.0123 43.5046 78.1488 43.5729 78.2895 43.6432C78.1355 43.6808 78.1355 43.6808 77.9784 43.7191C77.1379 43.926 76.3051 44.1464 75.4757 44.3946C75.1868 44.4706 75.1868 44.4706 74.8766 44.4706C74.8424 44.4023 74.8083 44.334 74.7731 44.2637C74.5638 44.1963 74.5638 44.1963 74.3595 44.1603C74.4964 44.1243 74.4964 44.1243 74.6361 44.0876C74.9763 43.9981 75.3165 43.9082 75.6566 43.8182C75.8036 43.7793 75.9505 43.7406 76.0975 43.702C76.3094 43.6464 76.5211 43.5903 76.7329 43.5341C76.9238 43.4837 76.9238 43.4837 77.1186 43.4324C77.457 43.341 77.457 43.341 77.7513 43.2145C78.0143 43.1125 78.1324 43.1331 78.3929 43.2295Z" fill="black"/>
<path d="M48.1941 64.9482C48.2261 65.0144 48.2581 65.0805 48.291 65.1486C48.3838 65.3553 48.3838 65.3553 48.5043 65.4653C48.5831 66.0797 48.3336 66.5712 48.0907 67.1201C48.0224 67.0177 47.9541 66.9153 47.8838 66.8098C47.7814 66.8098 47.679 66.8098 47.5735 66.8098C47.6342 66.3455 47.756 65.9591 47.942 65.53C47.989 65.4204 48.0361 65.3108 48.0846 65.1979C48.1207 65.1155 48.1568 65.0331 48.1941 64.9482Z" fill="black"/>
<path d="M42.299 53.0549C42.2649 53.1914 42.2308 53.3279 42.1956 53.4686C41.6496 53.6051 41.1035 53.7416 40.5409 53.8822C40.5409 53.7099 40.5409 53.5375 40.5409 53.3651C41.1431 53.1616 41.6613 53.0133 42.299 53.0549Z" fill="black"/>
<path d="M88.011 40.5411C88.011 40.6434 88.011 40.7458 88.011 40.8513C87.9349 40.8713 87.8588 40.8913 87.7804 40.9119C87.629 40.9523 87.629 40.9523 87.4745 40.9935C87.3252 41.0331 87.3252 41.0331 87.1728 41.0735C86.8728 41.156 86.8728 41.156 86.5922 41.2779C86.324 41.3808 86.2076 41.3632 85.9426 41.265C86.1133 41.2309 86.2839 41.1967 86.4597 41.1616C86.4256 41.0933 86.3915 41.0251 86.3563 40.9547C86.1469 40.8873 86.1469 40.8873 85.9426 40.8513C86.6537 40.628 87.2649 40.5044 88.011 40.5411Z" fill="black"/>
<path d="M79.7373 42.8159C79.7373 42.9183 79.7373 43.0207 79.7373 43.1262C78.4461 43.6011 78.4461 43.6011 77.7723 43.5399C78.287 42.973 79.0057 42.8812 79.7373 42.8159Z" fill="black"/>
<path d="M84.1844 41.5751C84.1076 41.6007 84.0308 41.6263 83.9517 41.6526C83.6586 41.7642 83.6586 41.7642 83.4669 41.9952C83.1939 42.2517 83.0029 42.2829 82.6331 42.299C82.5649 42.2308 82.4966 42.1625 82.4263 42.0922C82.6714 41.806 82.8881 41.7068 83.2472 41.6009C83.3356 41.5737 83.4239 41.5465 83.515 41.5185C83.7801 41.4699 83.9322 41.4885 84.1844 41.5751Z" fill="black"/>
<path d="M46.1256 51.6069C46.1598 51.7093 46.1939 51.8117 46.2291 51.9172C46.2973 51.9855 46.3656 52.0537 46.4359 52.124C46.2722 52.1737 46.1084 52.2232 45.9446 52.2727C45.8079 52.3141 45.8079 52.3141 45.6683 52.3563C45.4425 52.4224 45.2167 52.4827 44.988 52.5377C45.007 52.2941 45.007 52.2941 45.0914 52.0206C45.3278 51.8796 45.3278 51.8796 45.615 51.7815C45.71 51.7477 45.8051 51.714 45.903 51.6792C45.9765 51.6554 46.05 51.6315 46.1256 51.6069Z" fill="black"/>
<path d="M74.98 44.2643C74.7332 44.5541 74.5162 44.6468 74.1526 44.7491C74.063 44.7751 73.9734 44.8011 73.8811 44.8279C73.6355 44.8848 73.6355 44.8848 73.3253 44.8848C73.4287 44.5746 73.4287 44.5746 73.7583 44.4065C74.6035 44.0761 74.6035 44.0761 74.98 44.2643Z" fill="black"/>
<path d="M86.5631 40.9544C86.393 41.1576 86.2959 41.2549 86.0335 41.3139C85.9149 41.3215 85.9149 41.3215 85.794 41.3293C85.4864 41.3511 85.2059 41.3888 84.9084 41.4715C85.1651 41.0865 85.2959 41.0838 85.7358 40.9802C85.9022 40.9394 85.9022 40.9394 86.0719 40.8978C86.3563 40.8509 86.3563 40.8509 86.5631 40.9544Z" fill="black"/>
<path d="M82.5297 41.9888C82.5638 42.0912 82.598 42.1936 82.6331 42.2991C82.2704 42.4649 81.9978 42.5287 81.5989 42.5059C81.5648 42.4036 81.5307 42.3012 81.4955 42.1957C81.8583 42.0298 82.1309 41.966 82.5297 41.9888Z" fill="black"/>
<path d="M74.0492 44.471C73.949 44.4987 73.8487 44.5264 73.7454 44.555C73.6409 44.5955 73.5364 44.6361 73.4287 44.6778C73.3946 44.7802 73.3605 44.8826 73.3253 44.9881C73.1205 45.0222 72.9158 45.0563 72.7048 45.0915C72.7048 44.955 72.7048 44.8185 72.7048 44.6778C72.8508 44.6226 72.9974 44.5691 73.1443 44.5162C73.2259 44.4862 73.3075 44.4562 73.3916 44.4253C73.6553 44.3629 73.7962 44.3833 74.0492 44.471Z" fill="black"/>
<path d="M75.9108 43.9543C75.7401 44.0225 75.5695 44.0908 75.3937 44.1611C75.4619 44.2294 75.5302 44.2976 75.6005 44.3679C75.3616 44.4021 75.1227 44.4362 74.8766 44.4714C74.8424 44.4031 74.8083 44.3348 74.7731 44.2645C74.5638 44.1971 74.5638 44.1971 74.3595 44.1611C74.5401 44.106 74.7212 44.0524 74.9024 43.9995C75.0032 43.9695 75.104 43.9395 75.2078 43.9086C75.4932 43.8516 75.641 43.8573 75.9108 43.9543Z" fill="black"/>
<path d="M43.6435 74.0493C43.7459 74.0834 43.8483 74.1176 43.9538 74.1527C43.8121 74.4797 43.7481 74.5657 43.4367 74.7733C43.3343 74.7733 43.2319 74.7733 43.1264 74.7733C43.1658 74.4875 43.2129 74.376 43.4237 74.1721C43.4963 74.1316 43.5688 74.0911 43.6435 74.0493Z" fill="black"/>
<path d="M88.011 40.5412C88.011 40.6436 88.011 40.7459 88.011 40.8514C87.6697 40.9197 87.3284 40.9879 86.9768 41.0583C87.2504 40.5111 87.4422 40.5258 88.011 40.5412Z" fill="black"/>
<path d="M14.6857 54.0894C14.6857 54.3996 14.6857 54.3996 14.4595 54.6335C14.3635 54.7163 14.2675 54.7991 14.1686 54.8844C14.0727 54.968 13.9767 55.0516 13.8778 55.1377C13.7658 55.2331 13.7658 55.2331 13.6515 55.3304C13.5833 55.2963 13.515 55.2621 13.4447 55.227C13.8542 54.8516 14.2638 54.4761 14.6857 54.0894Z" fill="black"/>
<path d="M13.4447 49.5386C13.4788 49.6068 13.513 49.6751 13.5481 49.7454C13.4374 49.8994 13.325 50.0521 13.212 50.2043C13.1184 50.3321 13.1184 50.3321 13.0229 50.4625C12.8133 50.6879 12.7105 50.7431 12.4105 50.7796C12.7264 50.3194 13.0388 49.9213 13.4447 49.5386Z" fill="black"/>
<path d="M84.3913 41.5753C84.3571 41.6777 84.323 41.7801 84.2878 41.8855C84.0489 41.9197 83.81 41.9538 83.5639 41.989C83.6673 41.6787 83.6673 41.6787 83.9194 41.5494C84.1844 41.4719 84.1844 41.4719 84.3913 41.5753Z" fill="black"/>
<path d="M16.8576 52.2275C16.8576 52.6815 16.6375 52.8242 16.3405 53.1583C16.2381 53.0901 16.1357 53.0218 16.0302 52.9515C16.3032 52.7126 16.5763 52.4737 16.8576 52.2275Z" fill="black"/>
<path d="M45.1949 51.5039C45.502 51.538 45.8092 51.5722 46.1256 51.6073C45.8816 51.8514 45.7348 51.865 45.4017 51.9176C45.4017 51.8152 45.4017 51.7128 45.4017 51.6073C45.3334 51.5732 45.2652 51.5391 45.1949 51.5039Z" fill="black"/>
<path d="M76.7381 43.6437C76.5313 43.9539 76.5313 43.9539 76.2081 44.025C76.11 44.0357 76.0119 44.0464 75.9108 44.0574C75.9449 43.955 75.979 43.8526 76.0142 43.7471C76.2689 43.6198 76.4568 43.6363 76.7381 43.6437Z" fill="black"/>
<path d="M78.3929 43.1265C78.4611 43.1606 78.5294 43.1947 78.5997 43.2299C78.5656 43.3323 78.5314 43.4347 78.4963 43.5401C78.2574 43.5401 78.0185 43.5401 77.7723 43.5401C77.9846 43.3077 78.0833 43.2297 78.3929 43.1265Z" fill="black"/>
<path d="M84.1844 41.5753C84.1034 41.6031 84.0223 41.6308 83.9388 41.6594C83.6382 41.7665 83.6382 41.7665 83.4605 42.0924C83.3922 42.0924 83.324 42.0924 83.2536 42.0924C83.2536 41.9559 83.2536 41.8194 83.2536 41.6788C83.608 41.5114 83.8101 41.4367 84.1844 41.5753Z" fill="black"/>
<path d="M46.1256 51.6069C46.1598 51.7093 46.1939 51.8117 46.229 51.9172C46.2973 51.9855 46.3656 52.0537 46.4359 52.124C46.2311 52.1582 46.0263 52.1923 45.8154 52.2275C45.8495 52.1592 45.8836 52.0909 45.9188 52.0206C45.8164 51.9524 45.714 51.8841 45.6085 51.8138C45.7792 51.7455 45.9498 51.6773 46.1256 51.6069Z" fill="black"/>
<path d="M59.1566 33.1982C59.2249 33.3006 59.2931 33.403 59.3635 33.5085C59.1246 33.6791 58.8857 33.8498 58.6395 34.0256C58.7622 33.6766 58.8749 33.4416 59.1566 33.1982Z" fill="black"/>
</svg>
