<svg width="159" height="145" viewBox="0 0 159 145" fill="none" xmlns="http://www.w3.org/2000/svg">
<path d="M109.923 11.3044C110.52 11.3165 110.909 11.4093 111.347 11.8262C111.702 12.2559 112.034 12.6963 112.362 13.1469C112.487 13.3154 112.612 13.4838 112.741 13.6573C116.396 18.6384 119.517 23.997 122.09 29.6096C122.301 30.0684 122.516 30.5247 122.735 30.9798C123.485 32.5522 124.112 34.1554 124.709 35.7904C124.942 36.4256 125.184 37.0548 125.439 37.6814C126.852 37.5501 128.12 37.2225 129.471 36.7947C129.688 36.727 129.906 36.6593 130.131 36.5896C130.605 36.4421 131.078 36.2941 131.552 36.1455C132.345 35.8974 133.139 35.6526 133.933 35.4085C136.295 34.6817 138.655 33.953 140.997 33.1651C141.154 33.1123 141.312 33.0594 141.475 33.0049C142.124 32.7867 142.774 32.5678 143.423 32.3469C143.619 32.2832 143.815 32.2195 144.017 32.1538C144.174 32.1016 144.33 32.0493 144.492 31.9954C145.071 31.8968 145.492 31.9757 146.053 32.14C146.497 32.5833 146.497 32.5833 146.586 33.1106C146.463 33.9096 146.154 34.0876 145.513 34.5643C145.308 34.7181 145.103 34.8718 144.892 35.0302C144.228 35.502 143.559 35.9626 142.876 36.4068C142.098 36.9174 141.333 37.4446 140.567 37.9723C140.412 38.079 140.257 38.1858 140.097 38.2958C139.644 38.608 139.191 38.9204 138.739 39.2329C138.511 39.3901 138.283 39.5472 138.049 39.7092C137.833 39.8583 137.617 40.0075 137.395 40.1611C137.168 40.3177 136.942 40.4743 136.708 40.6356C135.997 41.1285 135.29 41.6266 134.583 42.1248C134.356 42.2848 134.128 42.4448 133.893 42.6096C133.436 42.9307 132.979 43.2527 132.523 43.5757C132.205 43.7983 132.205 43.7983 131.881 44.0254C131.692 44.1589 131.502 44.2925 131.307 44.4301C130.769 44.7684 130.248 45.002 129.651 45.2176C130.269 46.8972 131.051 48.4362 131.923 49.9971C132.945 51.8556 133.905 53.7232 134.789 55.651C135.194 56.5338 135.627 57.401 136.065 58.2676C137.555 61.2277 138.967 64.2081 140.199 67.2853C140.485 68.016 140.485 68.016 140.78 68.5658C140.955 68.9347 140.955 68.9347 140.886 69.4196C140.734 69.8213 140.734 69.8213 140.512 70.043C139.885 70.109 139.528 70.1246 138.993 69.7737C138.863 69.6477 138.734 69.5217 138.6 69.3918C137.919 68.7549 137.224 68.1579 136.494 67.5771C135.36 66.6553 134.288 65.6777 133.224 64.6747C132.59 64.0765 131.949 63.4927 131.285 62.9266C130.086 61.8834 128.972 60.7531 127.851 59.6275C127.473 59.2488 127.095 58.8714 126.716 58.494C126.474 58.2515 126.231 58.0089 125.989 57.7662C125.877 57.6545 125.765 57.5427 125.649 57.4275C125.2 56.9751 124.782 56.5322 124.408 56.0148C124.114 55.569 124.114 55.569 123.444 55.4137C123.367 55.6358 123.367 55.6358 123.289 55.8623C122.922 56.7034 122.445 57.4425 121.948 58.2121C121.176 59.4107 120.466 60.6291 119.79 61.8845C119.469 62.4801 119.142 63.0722 118.813 63.6635C117.454 66.1183 116.19 68.5954 115.012 71.1416C114.521 72.1905 113.993 73.2212 113.47 74.2544C113.299 74.6007 113.128 74.947 112.957 75.2934C112.583 76.0276 112.583 76.0276 112.362 76.2493C111.821 76.2909 111.821 76.2909 111.253 76.2493C110.81 75.806 110.81 75.806 110.77 75.257C110.777 75.0267 110.784 74.7965 110.792 74.5592C110.804 74.1708 110.804 74.1708 110.816 73.7747C110.828 73.4941 110.84 73.2135 110.852 72.9245C110.863 72.6349 110.874 72.3453 110.885 72.047C110.973 69.9468 111.174 67.8696 111.439 65.7845C111.705 63.6738 111.862 61.5617 111.997 59.439C112.013 59.193 112.028 58.947 112.045 58.6935C112.058 58.4772 112.071 58.2608 112.085 58.0379C112.143 57.3764 112.252 56.7334 112.362 56.0787C112.406 55.6318 112.446 55.1844 112.48 54.7367C112.5 54.4909 112.519 54.2452 112.539 53.992C112.558 53.7389 112.577 53.4857 112.597 53.2249C112.617 52.9666 112.637 52.7083 112.658 52.4422C112.708 51.8073 112.757 51.1723 112.805 50.5373C112.672 50.5596 112.538 50.5818 112.401 50.6047C111.995 50.6723 111.59 50.7399 111.184 50.8075C110.706 50.8871 110.229 50.9668 109.751 51.0465C108.543 51.2479 107.335 51.449 106.127 51.6491C105.909 51.6852 105.691 51.7213 105.467 51.7586C105.028 51.8314 104.588 51.904 104.149 51.9764C103.046 52.1591 101.945 52.3495 100.846 52.5556C98.797 52.9369 96.7668 53.2729 94.6847 53.405C94.509 53.4178 94.3334 53.4305 94.1524 53.4437C93.4836 53.4748 92.9865 53.4931 92.3954 53.1565C92.1911 52.7539 92.1911 52.7539 92.1634 52.2197C92.5311 51.3731 93.1848 51.0828 93.9643 50.662C94.1296 50.5688 94.2948 50.4756 94.4651 50.3796C95.0351 50.0592 95.6079 49.7442 96.1809 49.4291C96.8478 49.0574 97.5141 48.6845 98.1804 48.3116C98.651 48.0484 99.1218 47.7857 99.5928 47.5234C101.39 46.5204 103.167 45.4861 104.932 44.4281C106.282 43.6213 107.653 42.8623 109.037 42.1145C109.749 41.7238 110.46 41.3306 111.17 40.9369C111.348 40.8391 111.525 40.7412 111.708 40.6404C111.876 40.5471 112.045 40.4538 112.218 40.3577C112.368 40.2744 112.519 40.1912 112.674 40.1054C113.023 39.9196 113.023 39.9196 113.248 39.6763C113.434 37.6007 113.067 35.5087 112.791 33.4561C112.742 33.0827 112.693 32.7093 112.644 32.3358C112.104 28.2421 111.531 24.1528 110.954 20.0641C110.924 19.8488 110.893 19.6336 110.862 19.4117C110.713 18.3594 110.558 17.3083 110.394 16.2582C110.363 16.0586 110.332 15.8591 110.3 15.6534C110.242 15.2824 110.182 14.9116 110.122 14.541C109.951 13.4483 109.898 12.4107 109.923 11.3044Z" fill="white"/>
<path d="M103.274 0C104.184 0.0445476 104.692 0.641992 105.329 1.23988C105.5 1.40062 105.5 1.40062 105.675 1.5646C107.091 2.89922 108.472 4.26997 109.847 5.6456C110.298 6.09608 110.751 6.54475 111.204 6.99338C112.645 8.4287 114.03 9.86269 115.282 11.4689C115.689 11.9721 116.122 12.4203 116.587 12.8698C117.388 13.6485 118.075 14.4833 118.762 15.3626C119.267 16.002 119.788 16.6247 120.314 17.2475C123.508 21.0601 126.449 25.1214 129.208 29.2584C131.912 28.9573 134.576 28.5931 137.243 28.0393C138.543 27.7745 139.837 27.5858 141.155 27.4331C142.19 27.3105 143.214 27.1479 144.238 26.9588C146.168 26.6035 148.107 26.3232 150.049 26.0422C151.788 25.7883 153.515 25.4981 155.241 25.1613C156.124 25.0329 156.909 24.9976 157.801 25.047C158.244 25.4903 158.244 25.4903 158.326 26.0011C158.217 26.7955 157.907 27.1299 157.385 27.7346C157.204 27.9469 157.022 28.1591 156.835 28.3779C156.08 29.2275 155.321 30.0721 154.551 30.9087C154.109 31.3923 153.673 31.8806 153.243 32.3755C151.878 33.9419 150.502 35.4812 149.009 36.928C148.573 37.3761 148.167 37.833 147.76 38.3073C146.979 39.207 146.14 40.0201 145.264 40.826C145.111 40.9676 144.959 41.1091 144.801 41.255C144.487 41.5464 144.173 41.8376 143.858 42.1284C143.41 42.5422 142.965 42.9578 142.52 43.3742C142.248 43.6285 141.975 43.8828 141.703 44.137C141.58 44.2522 141.457 44.3674 141.331 44.4861C140.562 45.2014 139.772 45.8817 138.96 46.5475C139.238 47.474 139.6 48.305 140.047 49.158C140.378 49.8277 140.666 50.5139 140.955 51.2023C141.046 51.4166 141.046 51.4166 141.139 51.6352C144.026 58.4949 146.164 65.6696 147.605 72.966C147.639 73.1366 147.673 73.3072 147.708 73.483C148.464 77.2903 148.464 77.2903 148.27 78.9091C148.048 79.1308 148.048 79.1308 147.54 79.1791C146.854 79.1238 146.547 78.9597 145.979 78.5784C145.799 78.4597 145.62 78.3411 145.435 78.2189C145.246 78.0901 145.057 77.9613 144.862 77.8285C144.665 77.6973 144.468 77.5661 144.265 77.4309C143.677 77.0391 143.092 76.6443 142.507 76.2493C142.203 76.0466 141.898 75.8442 141.593 75.6423C140.921 75.1965 140.25 74.7483 139.58 74.2991C139.033 73.9329 138.485 73.5679 137.938 73.203C137.521 72.9253 137.104 72.6474 136.687 72.3694C136.137 72.0022 135.585 71.6357 135.034 71.2698C132.22 69.402 129.419 67.5192 126.721 65.4856C126.148 65.0574 125.68 64.7296 124.996 64.5015C124.901 64.6473 124.807 64.793 124.709 64.9431C122.683 68.027 120.504 70.9972 118.201 73.8798C117.896 74.2628 117.595 74.6482 117.295 75.0345C116.195 76.449 115.074 77.8389 113.909 79.201C113.274 79.9436 112.655 80.6963 112.043 81.4581C111.075 82.6488 110.04 83.7682 108.993 84.8886C108.481 85.4375 107.986 85.9989 107.499 86.5701C106.948 87.1995 106.435 87.7813 105.712 88.2186C105.103 88.1909 105.103 88.1909 104.604 87.997C104.25 87.2892 104.394 86.539 104.438 85.7666C104.448 85.5807 104.458 85.3948 104.468 85.2033C104.59 83.2346 104.832 81.2832 105.08 79.3271C105.257 77.9108 105.418 76.4932 105.573 75.0743C105.823 72.8069 106.078 70.5402 106.338 68.274C106.355 68.1264 106.372 67.9787 106.389 67.8266C106.492 66.9302 106.596 66.0338 106.699 65.1374C106.788 64.3614 106.877 63.5853 106.966 62.8093C107.139 61.3046 107.312 59.7999 107.485 58.2952C107.281 58.3297 107.077 58.3641 106.867 58.3996C84.9193 62.0918 84.9193 62.0918 80.2218 58.9602C80.0992 58.1596 80.123 57.7729 80.5881 57.1012C80.7552 56.9329 80.9224 56.7646 81.0946 56.5912C81.8002 55.8706 82.4391 55.1368 83.0644 54.3444C84.358 52.7513 85.8043 51.3162 87.2586 49.8707C87.7295 49.4022 88.198 48.9313 88.6663 48.4601C90.292 46.8329 91.9349 45.3118 93.7427 43.8876C94.0035 43.6647 94.2627 43.4399 94.5194 43.2123C97.1309 40.9003 99.9636 38.9146 102.858 36.9748C103.021 36.8654 103.184 36.7561 103.352 36.6434C104.175 36.0965 105.004 35.577 105.864 35.0899C106.03 34.9941 106.195 34.8982 106.366 34.7995C106.679 34.62 106.995 34.4459 107.314 34.2784C107.798 34.0175 107.798 34.0175 108.372 33.4699C108.611 32.4373 108.332 31.4463 108.053 30.4446C107.902 29.8122 107.819 29.1828 107.735 28.5381C107.561 27.2603 107.331 26.0049 107.07 24.7422C106.73 23.0944 106.436 21.4439 106.169 19.7827C105.84 17.74 105.437 15.7219 105 13.7C104.65 12.0505 104.399 10.4015 104.182 8.73004C104.021 7.5336 103.785 6.38724 103.468 5.22274C103.049 3.6482 102.759 2.0814 102.831 0.44331C102.977 0.297017 103.123 0.150725 103.274 0ZM104.825 3.32482C105.136 5.77618 105.454 8.20507 106.006 10.6152C106.149 11.2736 106.255 11.9259 106.349 12.5928C106.598 14.3043 106.951 15.9946 107.296 17.6889C107.6 19.1781 107.884 20.6693 108.15 22.1655C108.202 22.4518 108.254 22.7381 108.308 23.0331C108.694 25.1913 109.047 27.3537 109.381 29.5205C109.567 30.7023 109.773 31.8666 110.061 33.0282C110.203 33.7711 110.173 34.4892 110.145 35.2431C109.988 35.3165 109.831 35.3898 109.669 35.4654C107.982 36.277 106.421 37.22 104.874 38.2684C104.494 38.5254 104.113 38.78 103.732 39.0342C101.184 40.7411 98.7579 42.5871 96.4026 44.5526C96.0679 44.8291 96.0679 44.8291 95.7264 45.1111C92.9457 47.4211 90.3521 49.9187 87.7858 52.4629C87.4973 52.747 87.4973 52.747 87.2031 53.0369C85.8967 54.3415 84.6278 55.6859 83.5466 57.1869C83.5466 57.3332 83.5466 57.4795 83.5466 57.6302C85.1813 57.6417 86.816 57.6493 88.4508 57.6546C89.0042 57.6568 89.5576 57.6598 90.111 57.6637C95.0659 57.6976 99.9687 57.5794 104.825 56.522C105.283 56.4261 105.74 56.3316 106.198 56.2384C106.612 56.1537 107.026 56.0665 107.439 55.9791C108.072 55.8704 108.62 55.7969 109.259 55.857C109.702 56.3003 109.702 56.3003 109.707 56.9109C109.684 57.1651 109.661 57.4194 109.638 57.6813C109.613 57.9617 109.589 58.2421 109.564 58.531C109.536 58.819 109.509 59.1069 109.48 59.4035C109.457 59.6637 109.433 59.9239 109.409 60.1919C109.335 60.987 109.256 61.7815 109.175 62.5759C109.132 63.0075 109.132 63.0075 109.088 63.4479C108.88 65.5022 108.64 67.5515 108.384 69.6004C108.17 71.351 108.018 73.1027 107.878 74.8607C107.749 76.4135 107.522 77.9351 107.257 79.4699C107.03 80.8406 106.967 82.1743 107.042 83.5639C108.145 82.7031 109.024 81.7505 109.924 80.6824C110.112 80.4615 110.3 80.2406 110.494 80.0131C112.549 77.5998 114.547 75.1438 116.495 72.6437C116.777 72.2826 117.059 71.9221 117.341 71.5616C119.146 69.2388 120.854 66.8461 122.561 64.4513C122.664 64.3073 122.767 64.1633 122.873 64.0149C123.065 63.7451 123.257 63.4752 123.448 63.205C124.249 62.0789 124.249 62.0789 124.796 61.975C125.764 62.108 126.338 62.6549 127.088 63.2547C127.406 63.5015 127.725 63.748 128.044 63.9942C128.203 64.1178 128.362 64.2415 128.525 64.3689C129.18 64.8726 129.849 65.3542 130.524 65.8315C130.649 65.9205 130.774 66.0096 130.904 66.1013C131.298 66.3813 131.694 66.6605 132.089 66.9398C132.381 67.1464 132.673 67.353 132.964 67.5597C133.755 68.119 134.546 68.6769 135.338 69.2341C135.698 69.4876 136.058 69.7414 136.418 69.9954C139.253 72.0062 139.253 72.0062 142.167 73.9002C143.072 74.4712 143.948 75.0847 144.827 75.6943C145.375 76.0842 145.375 76.0842 146.053 76.0276C145.645 66.5697 141.095 55.5016 136.705 47.1607C136.522 46.7692 136.522 46.7692 136.534 46.2202C136.819 45.4592 137.235 45.1781 137.88 44.6912C138.76 44.005 139.566 43.3138 140.338 42.5092C140.73 42.1175 141.137 41.7575 141.559 41.3974C142.485 40.5918 143.359 39.7429 144.225 38.8736C144.382 38.7176 144.538 38.5617 144.699 38.401C145.026 38.0736 145.354 37.746 145.68 37.418C146.177 36.9207 146.674 36.4245 147.172 35.9284C147.492 35.608 147.812 35.2875 148.132 34.9669C148.279 34.8209 148.425 34.675 148.576 34.5246C149.43 33.6661 150.244 32.7839 151.035 31.8661C151.687 31.1124 152.372 30.3889 153.051 29.6593C153.653 28.9629 154.173 28.2412 154.698 27.4852C151.888 27.8794 149.082 28.2897 146.281 28.7425C145.886 28.8064 145.49 28.8693 145.095 28.932C143.95 29.117 142.815 29.3309 141.68 29.5684C139.746 29.9627 137.798 30.2363 135.843 30.5052C135.326 30.5773 134.809 30.6497 134.291 30.7222C133.973 30.7666 133.655 30.8108 133.337 30.8546C132.687 30.9447 132.04 31.04 131.392 31.1483C129.329 31.4903 129.329 31.4903 128.321 31.2533C127.618 30.6504 127.209 29.9197 126.755 29.1199C126.491 28.6896 126.227 28.2596 125.961 27.8298C125.835 27.6186 125.709 27.4074 125.578 27.1897C125.104 26.4124 124.59 25.6718 124.054 24.9362C123.966 24.8146 123.879 24.6931 123.789 24.5679C122.817 23.227 121.802 21.92 120.785 20.6139C120.599 20.3709 120.599 20.3709 120.41 20.123C118.51 17.6427 116.515 15.2279 114.395 12.9339C113.954 12.4569 113.523 11.9737 113.096 11.4845C112.975 11.3465 112.855 11.2085 112.731 11.0663C112.464 10.758 112.2 10.4478 111.937 10.1364C111.799 9.97323 111.66 9.81008 111.517 9.64198C111.392 9.49341 111.267 9.34483 111.138 9.19175C110.835 8.81416 110.835 8.81416 110.367 8.86619C110.307 8.73456 110.248 8.60293 110.186 8.46731C109.922 7.97738 109.657 7.65896 109.264 7.26872C109.134 7.13932 109.004 7.00992 108.871 6.8766C108.734 6.74227 108.596 6.60795 108.455 6.46955C108.316 6.33179 108.176 6.19404 108.033 6.05211C106.579 4.34184 106.579 4.34184 104.825 3.32482Z" fill="white"/>
<path d="M112.14 17.0674C112.827 17.6552 113.161 18.3531 113.568 19.1523C113.64 19.2925 113.711 19.4326 113.785 19.577C114.018 20.0329 114.25 20.4896 114.481 20.9463C114.723 21.42 114.965 21.8934 115.207 22.3668C115.367 22.68 115.527 22.9932 115.687 23.3066C116.288 24.4846 116.905 25.6538 117.529 26.8202C118.561 28.7608 119.504 30.7422 120.443 32.7295C120.898 33.6919 121.37 34.6448 121.848 35.5958C122.266 36.4336 122.67 37.2781 123.07 38.1246C123.15 38.2906 123.23 38.4566 123.311 38.6276C123.888 39.8459 123.888 39.8459 123.888 40.3411C125.666 40.258 127.209 39.9047 128.889 39.3298C129.372 39.1703 129.856 39.0109 130.339 38.8519C130.712 38.728 130.712 38.728 131.093 38.6017C132.409 38.1675 133.731 37.7491 135.054 37.3349C135.425 37.2158 135.425 37.2158 135.804 37.0942C136.033 37.0225 136.263 36.9508 136.5 36.8769C136.702 36.8127 136.905 36.7486 137.114 36.6825C137.63 36.573 137.63 36.573 138.295 36.7947C136.806 37.896 135.295 38.9607 133.766 40.0063C132.281 41.0235 130.806 42.0563 129.332 43.0907C129.152 43.2168 128.973 43.3429 128.787 43.4729C128.628 43.585 128.468 43.6972 128.304 43.8128C127.943 44.0637 127.578 44.3088 127.213 44.5526C127.006 45.7608 127.512 46.5018 128.168 47.4618C130.716 51.3614 132.784 55.544 134.746 59.7623C135.122 60.5693 135.508 61.3699 135.912 62.1637C135.993 62.3236 136.074 62.4835 136.158 62.6482C136.313 62.9516 136.47 63.2544 136.627 63.5564C137.014 64.3109 137.294 64.9889 137.409 65.8314C134.976 63.7734 132.683 61.569 130.427 59.3203C130.262 59.1571 130.098 58.9939 129.929 58.8257C128.904 57.7981 127.936 56.7361 126.991 55.6353C126.506 55.0768 126.016 54.5234 125.522 53.9729C125.401 53.8329 125.28 53.6929 125.155 53.5486C124.46 52.7729 124.46 52.7729 123.522 52.3728C122.186 52.7813 121.481 54.6572 120.812 55.8016C120.625 56.1198 120.625 56.1198 120.435 56.4445C118.081 60.4696 115.765 64.535 113.692 68.7129C113.618 68.7129 113.545 68.7129 113.47 68.7129C113.424 67.1024 113.563 65.5683 113.789 63.9751C114.034 62.1384 114.199 60.3266 114.264 58.4755C114.341 56.5916 114.565 54.7266 114.796 52.8561C114.969 51.4243 115.138 49.9858 115.022 48.5424C114.948 48.4692 114.875 48.3961 114.8 48.3207C114.264 48.3234 113.741 48.3421 113.207 48.3761C112.966 48.3914 112.966 48.3914 112.719 48.407C111.447 48.5012 110.239 48.7342 108.996 49.0255C107.808 49.2809 106.611 49.4489 105.408 49.6209C103.978 49.8272 102.558 50.0709 101.141 50.3541C100.367 50.5006 99.8154 50.5382 99.0624 50.3156C101.869 48.6586 104.685 47.0318 107.554 45.4848C108.892 44.7604 110.206 44.0068 111.503 43.2113C112.38 42.6737 113.27 42.1813 114.194 41.7299C114.728 41.34 114.944 40.9297 115.243 40.3411C115.544 38.1159 115.081 35.7378 114.786 33.5253C114.762 33.3415 114.738 33.1578 114.714 32.9685C114.176 28.8457 113.474 24.7525 112.748 20.6594C112.536 19.4636 112.336 18.2659 112.14 17.0674Z" fill="#0B2751"/>
<path d="M117.84 35.0215C118.389 35.5703 118.53 36.052 118.796 36.7809C119.307 38.1455 119.886 39.4637 120.5 40.7845C120.903 41.6644 121.212 42.4888 121.387 43.4444C121.579 43.3804 121.772 43.3164 121.97 43.2504C122.226 43.1681 122.481 43.0858 122.744 43.0011C122.996 42.9188 123.248 42.8365 123.508 42.7517C124.241 42.5646 124.846 42.5212 125.598 42.5577C124.755 43.4265 123.866 44.2182 122.938 44.996C123.054 46.0948 123.57 46.8317 124.171 47.7251C124.265 47.8681 124.359 48.0111 124.456 48.1584C124.688 48.5091 124.921 48.8584 125.155 49.2074C124.142 49.2074 123.646 48.4597 122.964 47.7788C122.217 47.0613 122.217 47.0613 121.165 46.9908C120.808 47.6599 120.453 48.3297 120.098 48.9996C119.998 49.1875 119.898 49.3753 119.795 49.5689C119.242 50.6147 118.731 51.6585 118.283 52.7539C118.21 52.7539 118.137 52.7539 118.062 52.7539C118.062 50.6326 118.062 48.5114 118.062 46.3259C117.165 45.8778 116.661 45.8029 115.679 45.744C115.419 45.7275 115.16 45.7109 114.893 45.6938C114.695 45.683 114.497 45.6721 114.294 45.6609C114.942 44.9492 115.593 44.4031 116.399 43.8738C116.57 43.7607 116.742 43.6475 116.918 43.531C117.299 43.2859 117.686 43.0515 118.076 42.821C118.636 42.1888 118.559 41.7288 118.541 40.9117C118.48 39.9494 118.331 39.0058 118.173 38.0554C118.11 37.6685 118.047 37.2814 117.986 36.8943C117.958 36.7259 117.93 36.5575 117.901 36.384C117.84 35.9081 117.84 35.9081 117.84 35.0215Z" fill="#0B2751"/>
<path d="M76.625 95.0337C77.0068 95.0414 77.2556 95.1008 77.5357 95.3675C77.7628 95.6424 77.9752 95.9242 78.185 96.2125C78.2651 96.3203 78.3452 96.4281 78.4277 96.5391C80.7661 99.726 82.7631 103.155 84.4091 106.745C84.5442 107.039 84.6819 107.331 84.8221 107.622C85.3016 108.628 85.7028 109.654 86.0846 110.7C86.2339 111.106 86.3887 111.509 86.5522 111.91C87.4561 111.826 88.2675 111.616 89.1315 111.343C89.2708 111.299 89.4101 111.256 89.5537 111.211C89.8569 111.117 90.16 111.022 90.4631 110.927C90.9704 110.768 91.4784 110.612 91.9866 110.456C93.4975 109.991 95.0075 109.524 96.5059 109.02C96.6068 108.986 96.7077 108.953 96.8117 108.918C97.2274 108.778 97.643 108.638 98.0581 108.497C98.1835 108.456 98.309 108.415 98.4382 108.373C98.5385 108.34 98.6389 108.306 98.7423 108.272C99.1128 108.209 99.3819 108.259 99.7411 108.364C100.025 108.648 100.025 108.648 100.082 108.985C100.003 109.497 99.8053 109.611 99.3954 109.916C99.2643 110.014 99.1333 110.112 98.9982 110.214C98.573 110.516 98.1452 110.81 97.708 111.094C97.2107 111.421 96.7211 111.758 96.2311 112.096C96.132 112.164 96.0328 112.233 95.9306 112.303C95.6407 112.503 95.3509 112.703 95.0612 112.903C94.9155 113.003 94.7698 113.104 94.6196 113.207C94.4816 113.303 94.3436 113.398 94.2014 113.496C94.0564 113.597 93.9115 113.697 93.7621 113.8C93.3074 114.115 92.855 114.434 92.4026 114.753C92.2569 114.855 92.1111 114.958 91.9609 115.063C91.6682 115.268 91.376 115.474 91.0842 115.681C90.881 115.824 90.881 115.824 90.6737 115.969C90.5525 116.054 90.4313 116.14 90.3064 116.228C89.9618 116.444 89.6286 116.594 89.2467 116.732C89.6421 117.806 90.1428 118.791 90.7003 119.79C91.3546 120.979 91.9685 122.174 92.5339 123.407C92.793 123.972 93.07 124.527 93.3505 125.081C94.3039 126.975 95.207 128.882 95.9957 130.851C96.1788 131.318 96.1788 131.318 96.3674 131.67C96.4793 131.906 96.4793 131.906 96.435 132.216C96.3375 132.473 96.3375 132.473 96.1957 132.615C95.7944 132.657 95.5662 132.667 95.224 132.443C95.141 132.362 95.058 132.282 94.9725 132.198C94.5365 131.791 94.0924 131.409 93.6253 131.037C92.8992 130.448 92.2134 129.822 91.5331 129.18C91.1271 128.798 90.7171 128.424 90.2926 128.062C89.5252 127.395 88.8126 126.671 88.0951 125.951C87.8536 125.709 87.6113 125.467 87.369 125.226C87.2139 125.071 87.0589 124.916 86.9039 124.76C86.8321 124.689 86.7603 124.617 86.6864 124.544C86.3988 124.254 86.1314 123.971 85.892 123.64C85.7039 123.354 85.7039 123.354 85.2758 123.255C85.2265 123.397 85.2265 123.397 85.1761 123.542C84.9416 124.08 84.6361 124.553 84.3186 125.046C83.8246 125.812 83.3703 126.592 82.9377 127.395C82.7323 127.776 82.5232 128.155 82.3126 128.533C81.443 130.104 80.6344 131.689 79.8806 133.318C79.5665 133.989 79.2287 134.649 78.8941 135.31C78.7847 135.531 78.6754 135.753 78.5661 135.974C78.3268 136.444 78.3268 136.444 78.185 136.586C77.8393 136.613 77.8393 136.613 77.4759 136.586C77.1923 136.302 77.1923 136.302 77.1663 135.951C77.1711 135.804 77.1758 135.656 77.1806 135.505C77.1883 135.256 77.1883 135.256 77.1961 135.003C77.2036 134.823 77.2111 134.644 77.2189 134.459C77.2259 134.273 77.233 134.088 77.2402 133.897C77.2966 132.554 77.4251 131.225 77.5948 129.89C77.7646 128.54 77.8651 127.189 77.9515 125.831C77.9616 125.673 77.9718 125.516 77.9822 125.354C77.9907 125.215 77.9991 125.077 78.0078 124.934C78.045 124.511 78.1146 124.1 78.185 123.681C78.2135 123.395 78.2387 123.108 78.2609 122.822C78.2732 122.665 78.2856 122.508 78.2983 122.346C78.3106 122.184 78.323 122.022 78.3357 121.855C78.3486 121.689 78.3614 121.524 78.3747 121.354C78.4064 120.948 78.4376 120.541 78.4686 120.135C78.3833 120.149 78.2981 120.164 78.2102 120.178C77.9507 120.222 77.6911 120.265 77.4316 120.308C77.1259 120.359 76.8202 120.41 76.5145 120.461C75.7417 120.59 74.9688 120.718 74.1958 120.847C74.0566 120.87 73.9173 120.893 73.7738 120.917C73.4926 120.963 73.2114 121.01 72.9302 121.056C72.2245 121.173 71.5203 121.295 70.8172 121.427C69.5062 121.67 68.2073 121.885 66.8751 121.97C66.7627 121.978 66.6503 121.986 66.5345 121.995C66.1066 122.015 65.7886 122.026 65.4104 121.811C65.2797 121.553 65.2797 121.553 65.262 121.212C65.4972 120.67 65.9154 120.484 66.4142 120.215C66.5199 120.155 66.6257 120.096 66.7346 120.034C67.0993 119.829 67.4658 119.628 67.8324 119.426C68.2591 119.188 68.6854 118.95 69.1117 118.711C69.4128 118.543 69.714 118.375 70.0154 118.207C71.1653 117.565 72.3019 116.903 73.4315 116.226C74.2952 115.71 75.1726 115.225 76.0577 114.746C76.5134 114.496 76.9682 114.245 77.4227 113.993C77.5363 113.93 77.6498 113.868 77.7667 113.803C77.8744 113.743 77.9821 113.684 78.093 113.622C78.1893 113.569 78.2856 113.516 78.3848 113.461C78.6084 113.342 78.6084 113.342 78.7523 113.186C78.8709 111.858 78.6364 110.52 78.4598 109.206C78.4283 108.968 78.397 108.729 78.3657 108.49C78.0202 105.871 77.6533 103.254 77.2842 100.638C77.2648 100.5 77.2455 100.363 77.2255 100.221C77.13 99.5475 77.0313 98.875 76.926 98.2032C76.9061 98.0755 76.8862 97.9478 76.8658 97.8162C76.8286 97.5788 76.7907 97.3416 76.7519 97.1045C76.6425 96.4053 76.6084 95.7415 76.625 95.0337Z" fill="white"/>
<path d="M72.3706 87.801C72.9529 87.8295 73.2779 88.2118 73.6852 88.5943C73.795 88.6972 73.795 88.6972 73.907 88.8021C74.8127 89.656 75.6962 90.533 76.5763 91.4131C76.8648 91.7013 77.1544 91.9884 77.4442 92.2754C78.3663 93.1938 79.2522 94.1113 80.0532 95.1389C80.3138 95.4609 80.5907 95.7476 80.8885 96.0352C81.4008 96.5334 81.8403 97.0675 82.28 97.6301C82.603 98.0392 82.9368 98.4377 83.2728 98.8361C85.3162 101.275 87.1985 103.874 88.9631 106.521C90.6933 106.328 92.3982 106.095 94.104 105.741C94.936 105.571 95.7641 105.451 96.6074 105.353C97.2695 105.274 97.9243 105.17 98.5801 105.049C99.8147 104.822 101.055 104.643 102.298 104.463C103.41 104.301 104.516 104.115 105.619 103.899C106.185 103.817 106.687 103.795 107.257 103.826C107.541 104.11 107.541 104.11 107.593 104.437C107.524 104.945 107.325 105.159 106.992 105.546C106.875 105.682 106.759 105.817 106.639 105.957C106.156 106.501 105.67 107.041 105.178 107.577C104.895 107.886 104.617 108.199 104.341 108.515C103.468 109.517 102.587 110.502 101.632 111.428C101.353 111.715 101.093 112.007 100.833 112.31C100.333 112.886 99.7967 113.406 99.236 113.922C99.1384 114.012 99.0408 114.103 98.9402 114.196C98.7392 114.383 98.5379 114.569 98.3364 114.755C98.0502 115.02 97.7651 115.286 97.4804 115.552C97.3063 115.715 97.1322 115.878 96.9581 116.04C96.8793 116.114 96.8006 116.188 96.7195 116.264C96.2276 116.721 95.7227 117.156 95.2031 117.582C95.3809 118.175 95.6121 118.707 95.8983 119.253C96.1099 119.681 96.2945 120.12 96.4794 120.561C96.5376 120.698 96.5376 120.698 96.5969 120.838C98.4441 125.226 99.8118 129.817 100.734 134.485C100.756 134.594 100.778 134.704 100.8 134.816C101.284 137.252 101.284 137.252 101.159 138.288C101.018 138.43 101.018 138.43 100.693 138.46C100.253 138.425 100.057 138.32 99.6936 138.076C99.5788 138 99.464 137.924 99.3458 137.846C99.2247 137.764 99.1037 137.681 98.9789 137.596C98.8529 137.512 98.7268 137.428 98.5969 137.342C98.221 137.091 97.8466 136.839 97.4721 136.586C97.2775 136.456 97.0827 136.327 96.8877 136.198C96.4574 135.912 96.0282 135.626 95.5994 135.338C95.2495 135.104 94.8992 134.87 94.5488 134.637C94.2821 134.459 94.0155 134.281 93.7489 134.104C93.3965 133.869 93.0438 133.634 92.6908 133.4C90.8903 132.205 89.0986 131 87.3724 129.699C87.0055 129.425 86.7064 129.216 86.2686 129.07C86.2081 129.163 86.1476 129.256 86.0853 129.352C84.7886 131.325 83.3944 133.226 81.9209 135.07C81.7262 135.315 81.5336 135.562 81.3416 135.809C80.6379 136.714 79.9203 137.603 79.1753 138.474C78.7691 138.95 78.3727 139.431 77.9812 139.919C77.3618 140.68 76.6997 141.397 76.0296 142.113C75.702 142.465 75.3858 142.824 75.074 143.189C74.7216 143.592 74.3929 143.964 73.9306 144.244C73.5406 144.226 73.5406 144.226 73.2215 144.102C72.9951 143.649 73.0874 143.169 73.1152 142.675C73.1217 142.556 73.1282 142.437 73.1349 142.315C73.2126 141.055 73.3675 139.807 73.5262 138.555C73.6396 137.649 73.7422 136.742 73.8414 135.834C74.0013 134.383 74.1646 132.933 74.3311 131.483C74.342 131.389 74.3528 131.294 74.364 131.197C74.4298 130.624 74.4958 130.05 74.5618 129.476C74.6189 128.98 74.676 128.483 74.733 127.987C74.8436 127.024 74.9544 126.061 75.0651 125.099C74.9346 125.121 74.804 125.143 74.6694 125.166C60.6272 127.528 60.6272 127.528 57.6217 125.524C57.5433 125.012 57.5585 124.765 57.856 124.335C57.963 124.227 58.0699 124.119 58.1801 124.009C58.6316 123.548 59.0403 123.078 59.4404 122.571C60.2681 121.552 61.1934 120.634 62.1239 119.709C62.4252 119.409 62.7249 119.108 63.0246 118.806C64.0647 117.765 65.1158 116.792 66.2725 115.881C66.4394 115.738 66.6052 115.594 66.7694 115.449C68.4403 113.969 70.2527 112.699 72.1047 111.458C72.2088 111.388 72.313 111.318 72.4203 111.246C72.947 110.896 73.4778 110.563 74.0281 110.252C74.1339 110.19 74.2397 110.129 74.3488 110.066C74.5489 109.951 74.7511 109.84 74.9555 109.733C75.2654 109.566 75.2654 109.566 75.6324 109.215C75.7855 108.555 75.6067 107.921 75.4285 107.28C75.3317 106.875 75.2788 106.472 75.2247 106.06C75.1136 105.242 74.9662 104.439 74.7992 103.631C74.5817 102.577 74.394 101.521 74.2231 100.458C74.0125 99.1512 73.7548 97.86 73.475 96.5664C73.2511 95.5111 73.0907 94.456 72.9518 93.3866C72.8483 92.6211 72.6974 91.8876 72.4947 91.1426C72.2266 90.1352 72.0414 89.1327 72.087 88.0847C72.1806 87.9911 72.2742 87.8975 72.3706 87.801ZM73.3633 89.9283C73.5621 91.4967 73.7655 93.0507 74.1184 94.5927C74.2099 95.0139 74.2779 95.4313 74.3383 95.858C74.4977 96.9531 74.7233 98.0345 74.9443 99.1185C75.1383 100.071 75.3201 101.025 75.4906 101.983C75.5239 102.166 75.5571 102.349 75.5914 102.538C75.8385 103.919 76.064 105.302 76.2783 106.688C76.3968 107.445 76.529 108.19 76.7128 108.933C76.8038 109.408 76.7845 109.867 76.7669 110.35C76.6663 110.397 76.5657 110.444 76.462 110.492C75.383 111.011 74.3842 111.615 73.3943 112.285C73.1515 112.45 72.9077 112.613 72.6637 112.775C71.0333 113.867 69.4813 115.049 67.9743 116.306C67.7601 116.483 67.7601 116.483 67.5417 116.663C65.7625 118.141 64.1031 119.739 62.4612 121.367C62.2766 121.549 62.2766 121.549 62.0884 121.734C61.2525 122.569 60.4407 123.429 59.7489 124.39C59.7489 124.483 59.7489 124.577 59.7489 124.673C60.7949 124.681 61.8408 124.686 62.8867 124.689C63.2408 124.69 63.5948 124.692 63.9489 124.695C67.1191 124.716 70.2559 124.641 73.3633 123.964C73.6558 123.903 73.9485 123.842 74.2413 123.783C74.5064 123.729 74.7711 123.673 75.0358 123.617C75.4405 123.547 75.7912 123.5 76.1997 123.539C76.4833 123.822 76.4833 123.822 76.4868 124.213C76.4721 124.376 76.4574 124.538 76.4423 124.706C76.4267 124.885 76.4111 125.065 76.3951 125.25C76.3774 125.434 76.3597 125.618 76.3415 125.808C76.3264 125.974 76.3112 126.141 76.2956 126.312C76.2483 126.821 76.1979 127.329 76.1465 127.838C76.1188 128.114 76.1188 128.114 76.0906 128.395C75.9575 129.71 75.8037 131.021 75.6402 132.332C75.5029 133.452 75.4057 134.573 75.3167 135.697C75.2336 136.691 75.0884 137.664 74.9193 138.646C74.7737 139.523 74.7336 140.377 74.7815 141.266C75.4871 140.715 76.0495 140.106 76.6251 139.422C76.7456 139.281 76.8661 139.14 76.9902 138.994C78.3051 137.45 79.5832 135.879 80.8298 134.279C81.0099 134.048 81.1904 133.817 81.371 133.587C82.5258 132.101 83.6182 130.57 84.7109 129.037C84.7766 128.945 84.8423 128.853 84.91 128.758C85.033 128.586 85.1558 128.413 85.2784 128.24C85.7907 127.52 85.7907 127.52 86.1407 127.453C86.7602 127.538 87.1273 127.888 87.607 128.272C87.8107 128.43 88.0146 128.587 88.2186 128.745C88.3203 128.824 88.4219 128.903 88.5266 128.985C88.9456 129.307 89.3738 129.615 89.8052 129.921C89.8854 129.977 89.9656 130.034 90.0483 130.093C90.3009 130.272 90.5538 130.451 90.8068 130.63C90.9935 130.762 91.1801 130.894 91.3668 131.026C91.8725 131.384 92.3789 131.741 92.8855 132.098C93.1159 132.26 93.3462 132.422 93.5763 132.585C95.3906 133.871 95.3906 133.871 97.255 135.083C97.8338 135.448 98.3944 135.841 98.9568 136.231C99.3071 136.48 99.3071 136.48 99.7412 136.444C99.4798 130.393 96.5691 123.311 93.76 117.975C93.6431 117.724 93.6431 117.724 93.6508 117.373C93.8332 116.886 94.099 116.706 94.5117 116.395C95.075 115.956 95.5909 115.514 96.0847 114.999C96.3356 114.748 96.5959 114.518 96.8655 114.287C97.4584 113.772 98.0173 113.229 98.5718 112.673C98.6717 112.573 98.7716 112.473 98.8745 112.37C99.0841 112.161 99.2935 111.951 99.5027 111.741C99.8201 111.423 100.138 111.106 100.457 110.788C100.662 110.583 100.866 110.378 101.071 110.173C101.165 110.08 101.259 109.986 101.355 109.89C101.902 109.341 102.423 108.776 102.928 108.189C103.345 107.707 103.784 107.244 104.218 106.777C104.604 106.332 104.936 105.87 105.272 105.386C103.474 105.638 101.679 105.901 99.8871 106.191C99.6341 106.232 99.3811 106.272 99.128 106.312C98.3954 106.43 97.6695 106.567 96.9431 106.719C95.7056 106.971 94.4595 107.146 93.2088 107.319C92.8778 107.365 92.5468 107.411 92.2158 107.457C92.0123 107.486 91.8089 107.514 91.6054 107.542C91.1896 107.6 90.7751 107.661 90.3611 107.73C89.0411 107.949 89.0411 107.949 88.3959 107.797C87.9464 107.411 87.6843 106.944 87.3943 106.432C87.2252 106.157 87.0559 105.882 86.8863 105.607C86.8054 105.472 86.7245 105.336 86.6411 105.197C86.3378 104.7 86.0088 104.226 85.6659 103.755C85.6099 103.678 85.5539 103.6 85.4962 103.52C84.8746 102.662 84.2251 101.826 83.5741 100.99C83.4554 100.834 83.4554 100.834 83.3343 100.676C82.1189 99.0889 80.8427 97.544 79.4858 96.0762C79.2039 95.771 78.928 95.4619 78.6549 95.1489C78.5777 95.0606 78.5006 94.9723 78.4211 94.8813C78.2507 94.6841 78.0817 94.4856 77.9136 94.2864C77.8248 94.182 77.736 94.0776 77.6444 93.97C77.5645 93.875 77.4846 93.7799 77.4023 93.682C77.2081 93.4404 77.2081 93.4404 76.9087 93.4737C76.8707 93.3895 76.8326 93.3052 76.7933 93.2185C76.6244 92.905 76.4546 92.7013 76.203 92.4516C76.12 92.3688 76.0371 92.286 75.9516 92.2007C75.8638 92.1148 75.776 92.0288 75.6856 91.9403C75.5964 91.8522 75.5073 91.764 75.4154 91.6732C74.4855 90.579 74.4855 90.579 73.3633 89.9283Z" fill="white"/>
<path d="M78.0432 98.7207C78.4826 99.0968 78.6967 99.5433 78.9567 100.055C79.0026 100.144 79.0485 100.234 79.0958 100.326C79.245 100.618 79.3931 100.91 79.5411 101.202C79.6957 101.506 79.8506 101.808 80.0055 102.111C80.1079 102.312 80.2102 102.512 80.3125 102.713C80.6973 103.466 81.0921 104.214 81.4911 104.961C82.1515 106.202 82.7548 107.47 83.3552 108.741C83.6465 109.357 83.9483 109.967 84.2544 110.575C84.5221 111.111 84.7803 111.652 85.0365 112.193C85.0874 112.299 85.1384 112.406 85.1908 112.515C85.5595 113.295 85.5595 113.295 85.5595 113.611C86.6972 113.558 87.6845 113.332 88.7592 112.964C89.0685 112.862 89.3778 112.76 89.6871 112.659C89.9258 112.579 89.9258 112.579 90.1693 112.499C91.0116 112.221 91.857 111.953 92.7035 111.688C92.9411 111.612 92.9411 111.612 93.1835 111.534C93.3304 111.488 93.4773 111.442 93.6286 111.395C93.7583 111.354 93.888 111.313 94.0216 111.271C94.3521 111.201 94.3521 111.201 94.7775 111.342C93.8245 112.047 92.8581 112.728 91.8799 113.397C90.9293 114.048 89.9858 114.709 89.0429 115.371C88.9279 115.451 88.8129 115.532 88.6944 115.615C88.5922 115.687 88.4901 115.759 88.3848 115.833C88.154 115.993 87.9207 116.15 87.6867 116.306C87.5549 117.079 87.8786 117.553 88.2983 118.167C89.9282 120.662 91.2513 123.338 92.5064 126.037C92.7474 126.554 92.9942 127.066 93.2525 127.574C93.3045 127.676 93.3565 127.778 93.4101 127.884C93.5094 128.078 93.6094 128.271 93.7103 128.465C93.9575 128.947 94.1372 129.381 94.2103 129.92C92.6538 128.604 91.1867 127.193 89.7431 125.754C89.638 125.65 89.5329 125.546 89.4246 125.438C88.769 124.781 88.1496 124.101 87.5449 123.397C87.2348 123.039 86.9213 122.685 86.6054 122.333C86.5279 122.244 86.4503 122.154 86.3705 122.062C85.9259 121.565 85.9259 121.565 85.3257 121.309C84.4706 121.571 84.0197 122.771 83.5918 123.503C83.4722 123.707 83.4722 123.707 83.3501 123.914C81.8443 126.49 80.3624 129.091 79.0359 131.764C78.9891 131.764 78.9423 131.764 78.8941 131.764C78.865 130.733 78.9537 129.752 79.098 128.733C79.2552 127.558 79.3606 126.398 79.4023 125.214C79.4515 124.009 79.5949 122.815 79.7428 121.619C79.8529 120.703 79.9615 119.782 79.8868 118.859C79.84 118.812 79.7932 118.765 79.745 118.717C79.4023 118.719 79.0673 118.731 78.7257 118.752C78.5714 118.762 78.5714 118.762 78.4139 118.772C77.5995 118.832 76.8271 118.981 76.0317 119.168C75.2715 119.331 74.5057 119.439 73.7362 119.549C72.8213 119.681 71.9127 119.837 71.0062 120.018C70.5104 120.112 70.1578 120.136 69.676 119.993C71.4715 118.933 73.2737 117.892 75.109 116.902C75.9651 116.439 76.8061 115.957 77.6359 115.448C78.1969 115.104 78.7659 114.789 79.3572 114.5C79.6991 114.251 79.8373 113.988 80.0286 113.611C80.2208 112.188 79.9248 110.666 79.7361 109.251C79.7208 109.133 79.7056 109.015 79.6898 108.894C79.3459 106.257 78.8967 103.638 78.4319 101.019C78.2964 100.254 78.1686 99.4875 78.0432 98.7207Z" fill="#0B2751"/>
<path d="M81.69 110.208C82.0412 110.559 82.1314 110.867 82.3016 111.334C82.6287 112.207 82.9991 113.05 83.3918 113.895C83.6498 114.458 83.8472 114.986 83.9591 115.597C84.0823 115.556 84.2055 115.515 84.3325 115.473C84.4959 115.42 84.6593 115.368 84.8277 115.313C84.989 115.261 85.1502 115.208 85.3163 115.154C85.7855 115.034 86.1722 115.006 86.6536 115.03C86.1141 115.586 85.5452 116.092 84.9518 116.59C85.0257 117.293 85.3563 117.764 85.7407 118.336C85.8009 118.427 85.8611 118.519 85.9232 118.613C86.0711 118.838 86.2204 119.061 86.37 119.284C85.7219 119.284 85.4044 118.806 84.9681 118.37C84.4902 117.911 84.4902 117.911 83.8173 117.866C83.5891 118.294 83.3619 118.723 83.1348 119.151C83.0707 119.272 83.0066 119.392 82.9406 119.516C82.5867 120.185 82.2599 120.852 81.9737 121.553C81.9269 121.553 81.8801 121.553 81.8318 121.553C81.8318 120.196 81.8318 118.839 81.8318 117.441C81.2584 117.154 80.9354 117.106 80.3073 117.068C80.1413 117.058 79.9753 117.047 79.8043 117.036C79.6778 117.029 79.5513 117.022 79.421 117.015C79.8361 116.56 80.2521 116.21 80.7682 115.872C80.8777 115.799 80.9872 115.727 81.1 115.652C81.3436 115.496 81.5915 115.346 81.8407 115.198C82.199 114.794 82.1498 114.499 82.1384 113.977C82.0997 113.361 82.0039 112.757 81.9027 112.149C81.8625 111.902 81.8226 111.654 81.7831 111.406C81.7653 111.299 81.7474 111.191 81.7291 111.08C81.69 110.775 81.69 110.775 81.69 110.208Z" fill="#0B2751"/>
<path d="M21.865 52.6228C22.3034 52.6317 22.5891 52.6998 22.9107 53.0061C23.1714 53.3217 23.4153 53.6453 23.6561 53.9763C23.7481 54.1 23.84 54.2237 23.9347 54.3512C26.6196 58.0103 28.9125 61.9467 30.8023 66.0697C30.9574 66.4067 31.1156 66.7419 31.2765 67.0762C31.8271 68.2313 32.2877 69.409 32.7261 70.61C32.8974 71.0767 33.0752 71.5389 33.2629 71.9992C34.3008 71.9027 35.2323 71.6621 36.2243 71.3479C36.3843 71.2981 36.5442 71.2484 36.7091 71.1972C37.0572 71.0888 37.4053 70.9801 37.7532 70.8709C38.3357 70.6887 38.919 70.5089 39.5024 70.3296C41.2372 69.7956 42.9709 69.2604 44.6913 68.6816C44.8071 68.6427 44.923 68.6039 45.0424 68.5638C45.5197 68.4036 45.9968 68.2428 46.4735 68.0805C46.6174 68.0337 46.7614 67.9869 46.9098 67.9387C47.025 67.9003 47.1402 67.8619 47.259 67.8223C47.6844 67.7499 47.9933 67.8078 48.4058 67.9285C48.7314 68.2542 48.7314 68.2542 48.7969 68.6415C48.7068 69.2284 48.4794 69.3592 48.0089 69.7094C47.8584 69.8223 47.7079 69.9353 47.5528 70.0516C47.0646 70.3982 46.5734 70.7365 46.0715 71.0629C45.5005 71.438 44.9383 71.8253 44.3758 72.2129C44.2619 72.2913 44.148 72.3697 44.0307 72.4505C43.6979 72.6798 43.3651 72.9094 43.0325 73.1389C42.8652 73.2544 42.6979 73.3698 42.5256 73.4888C42.3671 73.5983 42.2086 73.7079 42.0453 73.8208C41.8789 73.9358 41.7124 74.0508 41.541 74.1693C41.0189 74.5314 40.4995 74.8973 39.9801 75.2633C39.8127 75.3808 39.6454 75.4983 39.4729 75.6194C39.1369 75.8553 38.8013 76.0919 38.4663 76.3291C38.233 76.4926 38.233 76.4926 37.995 76.6594C37.8559 76.7575 37.7167 76.8557 37.5733 76.9567C37.1777 77.2052 36.7951 77.3768 36.3566 77.5353C36.8105 78.7691 37.3855 79.8996 38.0256 81.0462C38.7768 82.4115 39.4817 83.7834 40.1309 85.1996C40.4283 85.8481 40.7463 86.4851 41.0684 87.1217C42.1631 89.2962 43.1999 91.4856 44.1055 93.746C44.3157 94.2829 44.3157 94.2829 44.5323 94.6868C44.6607 94.9577 44.6607 94.9577 44.6099 95.3139C44.4979 95.609 44.4979 95.609 44.3351 95.7718C43.8743 95.8204 43.6124 95.8318 43.2195 95.574C43.1242 95.4815 43.0289 95.3889 42.9307 95.2935C42.4301 94.8256 41.9202 94.3871 41.3839 93.9604C40.5502 93.2833 39.7628 92.5651 38.9818 91.8283C38.5156 91.3889 38.0448 90.9601 37.5574 90.5442C36.6763 89.7779 35.8582 88.9475 35.0345 88.1207C34.7572 87.8425 34.479 87.5652 34.2007 87.288C34.0227 87.1099 33.8447 86.9317 33.6668 86.7534C33.5843 86.6713 33.5019 86.5892 33.417 86.5046C33.0868 86.1723 32.7798 85.8469 32.5049 85.4668C32.2889 85.1393 32.2889 85.1393 31.7974 85.0253C31.7408 85.1884 31.7408 85.1884 31.683 85.3548C31.4137 85.9727 31.063 86.5156 30.6984 87.081C30.1312 87.9615 29.6097 88.8564 29.1129 89.7787C28.8771 90.2162 28.637 90.6511 28.3953 91.0855C27.3968 92.8888 26.4684 94.7085 25.603 96.5789C25.2423 97.3494 24.8544 98.1066 24.4702 98.8655C24.3447 99.1199 24.2191 99.3743 24.0937 99.6288C23.8189 100.168 23.8189 100.168 23.6561 100.331C23.2592 100.362 23.2592 100.362 22.842 100.331C22.5163 100.005 22.5163 100.005 22.4866 99.6021C22.492 99.4329 22.4974 99.2637 22.503 99.0894C22.5118 98.8042 22.5118 98.8042 22.5207 98.5131C22.5294 98.307 22.538 98.1009 22.5469 97.8886C22.555 97.6759 22.563 97.4632 22.5714 97.244C22.6361 95.7012 22.7836 94.1753 22.9785 92.6436C23.1734 91.0931 23.2888 89.5415 23.388 87.9822C23.3996 87.8015 23.4113 87.6208 23.4233 87.4346C23.433 87.2757 23.4427 87.1167 23.4527 86.953C23.4954 86.467 23.5753 85.9947 23.6561 85.5138C23.6889 85.1855 23.7178 84.8568 23.7433 84.5279C23.7574 84.3474 23.7716 84.1669 23.7862 83.9809C23.8004 83.7949 23.8145 83.609 23.8291 83.4174C23.8439 83.2276 23.8587 83.0379 23.874 82.8424C23.9103 82.376 23.9462 81.9096 23.9818 81.4431C23.8839 81.4594 23.7859 81.4757 23.6851 81.4926C23.3871 81.5422 23.0891 81.5919 22.7911 81.6415C22.4401 81.7 22.0891 81.7586 21.7382 81.8171C20.8508 81.9651 19.9635 82.1128 19.076 82.2598C18.9161 82.2863 18.7562 82.3129 18.5914 82.3402C18.2686 82.3937 17.9457 82.4471 17.6228 82.5002C16.8126 82.6345 16.004 82.7743 15.1968 82.9257C13.6915 83.2058 12.2002 83.4527 10.6707 83.5497C10.5416 83.5591 10.4126 83.5684 10.2796 83.5781C9.78835 83.601 9.42316 83.6144 8.989 83.3671C8.8389 83.0714 8.8389 83.0714 8.81854 82.6789C9.08868 82.0571 9.56884 81.8438 10.1415 81.5347C10.2629 81.4662 10.3843 81.3978 10.5093 81.3272C10.9281 81.0918 11.3489 80.8605 11.7698 80.629C12.2597 80.3559 12.7492 80.082 13.2386 79.8081C13.5843 79.6148 13.9301 79.4218 14.2762 79.2291C15.5964 78.4923 16.9015 77.7325 18.1984 76.9553C19.1901 76.3626 20.1975 75.8051 21.2137 75.2557C21.7369 74.9687 22.259 74.6799 22.7809 74.3907C22.9113 74.3188 23.0416 74.2469 23.1759 74.1728C23.2995 74.1043 23.4232 74.0358 23.5505 73.9652C23.6611 73.904 23.7716 73.8429 23.8855 73.7799C24.1422 73.6434 24.1422 73.6434 24.3074 73.4646C24.4437 71.9399 24.1744 70.4031 23.9716 68.8953C23.9355 68.621 23.8995 68.3467 23.8635 68.0724C23.4669 65.0652 23.0457 62.0611 22.6219 59.0576C22.5996 58.8995 22.5774 58.7413 22.5544 58.5784C22.4449 57.8054 22.3315 57.0332 22.2106 56.2618C22.1877 56.1152 22.1649 55.9686 22.1414 55.8175C22.0988 55.545 22.0553 55.2726 22.0107 55.0004C21.8851 54.1977 21.846 53.4354 21.865 52.6228Z" fill="white"/>
<path d="M16.9803 44.3186C17.6489 44.3513 18.022 44.7902 18.4896 45.2294C18.6157 45.3475 18.6157 45.3475 18.7443 45.4679C19.7841 46.4484 20.7986 47.4553 21.809 48.4658C22.1403 48.7968 22.4728 49.1263 22.8055 49.4559C23.8642 50.5103 24.8814 51.5637 25.8011 52.7436C26.1002 53.1133 26.4182 53.4425 26.7601 53.7727C27.3483 54.3447 27.8529 54.9579 28.3578 55.6039C28.7286 56.0736 29.1118 56.531 29.4976 56.9885C31.8438 59.7893 34.005 62.7726 36.031 65.8117C38.0175 65.5905 39.975 65.323 41.9335 64.9162C42.8888 64.7216 43.8395 64.583 44.8077 64.4709C45.5679 64.3807 46.3197 64.2613 47.0727 64.1224C48.4902 63.8614 49.9146 63.6555 51.3409 63.4491C52.6187 63.2625 53.8875 63.0494 55.1549 62.802C55.8041 62.7077 56.3804 62.6817 57.0356 62.718C57.3613 63.0437 57.3613 63.0437 57.4211 63.4189C57.3416 64.0024 57.1135 64.2481 56.7303 64.6923C56.5968 64.8482 56.4633 65.0042 56.3258 65.1649C55.7714 65.789 55.2135 66.4094 54.6486 67.024C54.3232 67.3792 54.0036 67.738 53.6875 68.1015C52.6848 69.2521 51.6737 70.3829 50.5773 71.4458C50.2567 71.7749 49.9584 72.1105 49.6595 72.459C49.0855 73.1198 48.4696 73.7172 47.8257 74.3092C47.7137 74.4132 47.6016 74.5172 47.4862 74.6243C47.2553 74.8384 47.0242 75.0523 46.7929 75.2659C46.4643 75.5699 46.137 75.8752 45.8101 76.1811C45.6102 76.3679 45.4103 76.5547 45.2103 76.7414C45.12 76.8261 45.0296 76.9107 44.9365 76.9979C44.3717 77.5234 43.792 78.0231 43.1954 78.5122C43.3995 79.1928 43.665 79.8032 43.9936 80.4298C44.2365 80.9218 44.4484 81.4259 44.6608 81.9315C44.7276 82.089 44.7276 82.089 44.7957 82.2496C46.9165 87.2886 48.4869 92.5592 49.5456 97.9191C49.5707 98.0444 49.5958 98.1697 49.6217 98.2988C50.1767 101.096 50.1767 101.096 50.0341 102.285C49.8713 102.448 49.8713 102.448 49.4981 102.483C48.9937 102.443 48.7682 102.322 48.3511 102.042C48.2193 101.955 48.0876 101.868 47.9518 101.778C47.8128 101.683 47.6738 101.589 47.5306 101.491C47.3859 101.395 47.2411 101.298 47.092 101.199C46.6604 100.911 46.2305 100.621 45.8006 100.331C45.5771 100.182 45.3534 100.033 45.1296 99.8851C44.6356 99.5576 44.1427 99.2283 43.6504 98.8983C43.2487 98.6293 42.8464 98.3612 42.4441 98.0932C42.1379 97.8892 41.8318 97.685 41.5258 97.4808C41.1211 97.2111 40.7162 96.9419 40.3109 96.6731C38.2437 95.301 36.1866 93.9179 34.2046 92.424C33.7833 92.1095 33.4399 91.8687 32.9373 91.7011C32.8678 91.8082 32.7983 91.9152 32.7268 92.0255C31.238 94.2909 29.6373 96.4728 27.9455 98.5903C27.7219 98.8717 27.5008 99.1548 27.2803 99.4386C26.4723 100.478 25.6484 101.499 24.7931 102.499C24.3267 103.045 23.8716 103.598 23.4221 104.157C22.7109 105.032 21.9507 105.854 21.1813 106.677C20.8052 107.081 20.4421 107.493 20.0842 107.913C19.6795 108.375 19.3022 108.802 18.7714 109.124C18.3236 109.103 18.3236 109.103 17.9572 108.961C17.6973 108.441 17.8032 107.89 17.8351 107.322C17.8426 107.186 17.8501 107.049 17.8578 106.909C17.9471 105.462 18.1249 104.029 18.307 102.592C18.4372 101.552 18.5551 100.51 18.669 99.4678C18.8526 97.8022 19.0401 96.1371 19.2312 94.4724C19.2437 94.3639 19.2561 94.2555 19.269 94.1437C19.3446 93.4852 19.4203 92.8267 19.4961 92.1682C19.5617 91.5982 19.6272 91.0281 19.6927 90.458C19.8197 89.3526 19.9468 88.2473 20.074 87.142C19.9241 87.1673 19.7741 87.1926 19.6197 87.2187C3.49706 89.931 3.49706 89.931 0.0463193 87.6305C-0.0437262 87.0423 -0.0262526 86.7583 0.315365 86.2649C0.438153 86.1413 0.56094 86.0176 0.687449 85.8903C1.20582 85.3609 1.67511 84.8218 2.13444 84.2397C3.08475 83.0695 4.14722 82.0153 5.21551 80.9534C5.56144 80.6092 5.9056 80.2633 6.24963 79.9172C7.44385 78.7218 8.65071 77.6044 9.97874 76.5583C10.1703 76.3945 10.3607 76.2293 10.5493 76.0621C12.4677 74.3637 14.5486 72.9051 16.675 71.4801C16.7945 71.3998 16.9141 71.3194 17.0373 71.2367C17.642 70.8349 18.2515 70.4533 18.8833 70.0954C19.0048 70.0251 19.1263 69.9547 19.2515 69.8822C19.4813 69.7503 19.7135 69.6224 19.9481 69.4994C20.3039 69.3077 20.3039 69.3077 20.7253 68.9054C20.9011 68.1469 20.6958 67.4189 20.4912 66.6831C20.3801 66.2185 20.3193 65.7562 20.2572 65.2825C20.1296 64.3439 19.9604 63.4217 19.7687 62.4941C19.5189 61.2836 19.3034 60.0712 19.1072 58.8509C18.8654 57.3504 18.5696 55.8678 18.2483 54.3825C17.9912 53.1709 17.807 51.9595 17.6475 50.7316C17.5288 49.8527 17.3555 49.0106 17.1228 48.1552C16.8149 46.9986 16.6023 45.8476 16.6546 44.6443C16.7621 44.5368 16.8696 44.4293 16.9803 44.3186ZM18.1201 46.761C18.3483 48.5618 18.5818 50.346 18.987 52.1165C19.0921 52.6001 19.1702 53.0793 19.2395 53.5692C19.4224 54.8265 19.6816 56.0681 19.9353 57.3128C20.158 58.4068 20.3667 59.5022 20.5625 60.6013C20.6007 60.8116 20.6389 61.0219 20.6782 61.2386C20.9619 62.824 21.2209 64.4125 21.4668 66.0042C21.6029 66.8723 21.7548 67.7277 21.9658 68.581C22.0703 69.1267 22.048 69.6542 22.0279 70.208C21.9124 70.2619 21.7968 70.3158 21.6778 70.3713C20.4389 70.9675 19.2922 71.6602 18.1556 72.4304C17.8768 72.6192 17.5969 72.8062 17.3167 72.9929C15.4448 74.2468 13.6629 75.6029 11.9327 77.0467C11.6868 77.2498 11.6868 77.2498 11.4359 77.457C9.39323 79.1539 7.48796 80.9887 5.60278 82.8576C5.39089 83.0663 5.39089 83.0663 5.17472 83.2792C4.21505 84.2376 3.28295 85.2252 2.48872 86.3279C2.48872 86.4353 2.48872 86.5428 2.48872 86.6535C3.68957 86.6619 4.89042 86.6675 6.0913 86.6714C6.49784 86.673 6.90437 86.6752 7.3109 86.6781C10.9507 86.703 14.5523 86.6161 18.1201 85.8394C18.4559 85.7689 18.7919 85.6995 19.1281 85.631C19.4324 85.5688 19.7364 85.5048 20.0403 85.4406C20.505 85.3608 20.9077 85.3068 21.3766 85.3509C21.7023 85.6765 21.7023 85.6765 21.7063 86.1251C21.6894 86.3118 21.6726 86.4986 21.6552 86.691C21.6373 86.897 21.6194 87.103 21.601 87.3152C21.5807 87.5267 21.5604 87.7382 21.5394 87.9561C21.5221 88.1473 21.5047 88.3384 21.4868 88.5353C21.4324 89.1194 21.3746 89.703 21.3155 90.2866C21.2838 90.6036 21.2838 90.6036 21.2513 90.9271C21.0986 92.4362 20.922 93.9416 20.7343 95.4467C20.5767 96.7327 20.465 98.0195 20.3628 99.3109C20.2675 100.452 20.1008 101.569 19.9065 102.697C19.7393 103.704 19.6933 104.683 19.7483 105.704C20.5585 105.072 21.2042 104.372 21.8651 103.587C22.0034 103.425 22.1417 103.263 22.2842 103.096C23.794 101.323 25.2614 99.5189 26.6927 97.6823C26.8995 97.4171 27.1067 97.1522 27.314 96.8874C28.64 95.1811 29.8942 93.4234 31.1487 91.6642C31.2242 91.5584 31.2997 91.4526 31.3774 91.3436C31.5186 91.1455 31.6596 90.9472 31.8004 90.7487C32.3886 89.9215 32.3886 89.9215 32.7904 89.8452C33.5016 89.9428 33.9231 90.3446 34.474 90.7852C34.7079 90.9665 34.9419 91.1476 35.1762 91.3284C35.2929 91.4192 35.4096 91.5101 35.5298 91.6037C36.0108 91.9737 36.5025 92.3275 36.9978 92.6781C37.0899 92.7435 37.182 92.8089 37.2769 92.8763C37.5669 93.082 37.8573 93.2871 38.1477 93.4922C38.3621 93.644 38.5764 93.7958 38.7908 93.9476C39.3714 94.3585 39.9528 94.7683 40.5345 95.1777C40.799 95.3639 41.0634 95.5503 41.3276 95.7369C43.4107 97.214 43.4107 97.214 45.5513 98.6054C46.2158 99.0248 46.8595 99.4755 47.5052 99.9232C47.9074 100.21 47.9074 100.21 48.4058 100.168C48.1057 93.2204 44.7638 85.0898 41.5385 78.9626C41.4043 78.675 41.4043 78.675 41.4132 78.2718C41.6226 77.7127 41.9277 77.5062 42.4016 77.1485C43.0484 76.6444 43.6406 76.1367 44.2075 75.5457C44.4957 75.2579 44.7945 74.9934 45.1041 74.729C45.7848 74.1371 46.4265 73.5136 47.0631 72.8749C47.1779 72.7604 47.2926 72.6458 47.4108 72.5278C47.6514 72.2873 47.8918 72.0466 48.132 71.8057C48.4965 71.4404 48.8618 71.0759 49.2273 70.7115C49.4625 70.4761 49.6978 70.2406 49.933 70.0051C50.0405 69.8979 50.1481 69.7907 50.2589 69.6802C50.8864 69.0496 51.4846 68.4015 52.0651 67.7273C52.544 67.1737 53.0478 66.6422 53.5463 66.1062C53.9889 65.5946 54.3703 65.0645 54.7561 64.5091C52.6921 64.7987 50.6308 65.1001 48.5733 65.4327C48.2829 65.4796 47.9923 65.5258 47.7017 65.5719C46.8606 65.7078 46.0272 65.865 45.1932 66.0394C43.7724 66.3291 42.3416 66.53 40.9056 66.7276C40.5256 66.7806 40.1455 66.8337 39.7655 66.887C39.5319 66.9196 39.2983 66.9521 39.0647 66.9843C38.5873 67.0504 38.1114 67.1204 37.636 67.2C36.1205 67.4512 36.1205 67.4512 35.3797 67.2771C34.8636 66.8342 34.5627 66.2974 34.2297 65.7099C34.0356 65.3939 33.8412 65.078 33.6465 64.7622C33.5536 64.6071 33.4607 64.4519 33.3649 64.292C33.0167 63.721 32.6389 63.177 32.2453 62.6366C32.181 62.5473 32.1167 62.458 32.0504 62.3661C31.3367 61.3811 30.591 60.4209 29.8436 59.4615C29.7073 59.283 29.7073 59.283 29.5682 59.1008C28.1728 57.2788 26.7075 55.505 25.1496 53.8198C24.826 53.4694 24.5091 53.1145 24.1955 52.7551C24.107 52.6537 24.0184 52.5523 23.9271 52.4478C23.7315 52.2214 23.5375 51.9935 23.3445 51.7647C23.2425 51.6449 23.1405 51.525 23.0354 51.4016C22.9437 51.2924 22.8519 51.1833 22.7574 51.0708C22.5345 50.7934 22.5345 50.7934 22.1907 50.8317C22.147 50.735 22.1033 50.6383 22.0582 50.5386C21.8642 50.1788 21.6693 49.9448 21.3804 49.6582C21.2852 49.5631 21.1899 49.4681 21.0918 49.3701C20.991 49.2714 20.8902 49.1728 20.7864 49.0711C20.684 48.9699 20.5816 48.8687 20.4762 48.7645C19.4085 47.5081 19.4085 47.5081 18.1201 46.761Z" fill="white"/>
<path d="M23.4933 56.8562C23.9978 57.288 24.2436 57.8007 24.5421 58.3878C24.5949 58.4907 24.6476 58.5937 24.7019 58.6997C24.8732 59.0346 25.0432 59.3701 25.2132 59.7057C25.3906 60.0536 25.5684 60.4014 25.7463 60.7491C25.8639 60.9792 25.9814 61.2093 26.0988 61.4395C26.5406 62.3049 26.9938 63.1637 27.452 64.0206C28.2103 65.4462 28.903 66.9017 29.5923 68.3616C29.9267 69.0685 30.2733 69.7685 30.6246 70.4671C30.932 71.0826 31.2285 71.7029 31.5227 72.3247C31.5811 72.4467 31.6396 72.5686 31.6998 72.6943C32.1231 73.5892 32.1231 73.5892 32.1231 73.953C33.4294 73.8919 34.563 73.6324 35.7969 73.2101C36.1519 73.0929 36.5071 72.9758 36.8623 72.859C37.1363 72.768 37.1363 72.768 37.4159 72.6752C38.383 72.3563 39.3536 72.0489 40.3255 71.7447C40.5983 71.6571 40.5983 71.6571 40.8767 71.5678C41.0453 71.5151 41.2139 71.4625 41.3877 71.4082C41.5366 71.3611 41.6855 71.3139 41.8389 71.2654C42.2184 71.1849 42.2184 71.1849 42.7068 71.3478C41.6126 72.1568 40.503 72.9389 39.3799 73.707C38.2885 74.4542 37.2052 75.2129 36.1226 75.9728C35.9905 76.0655 35.8585 76.1581 35.7225 76.2536C35.6052 76.3359 35.4879 76.4183 35.367 76.5032C35.1021 76.6876 34.8341 76.8676 34.5655 77.0467C34.4141 77.9342 34.7858 78.4786 35.2677 79.1838C37.139 82.0485 38.6582 85.1209 40.0992 88.2197C40.3759 88.8125 40.6593 89.4006 40.9558 89.9838C41.0155 90.1012 41.0752 90.2186 41.1368 90.3396C41.2508 90.5625 41.3656 90.7849 41.4815 91.0068C41.7653 91.5611 41.9717 92.0591 42.0555 92.678C40.2685 91.1663 38.584 89.5469 36.9265 87.895C36.8058 87.7751 36.6852 87.6552 36.5609 87.5317C35.8081 86.7768 35.097 85.9967 34.4027 85.188C34.0466 84.7777 33.6867 84.3712 33.324 83.9668C33.235 83.864 33.146 83.7611 33.0543 83.6552C32.5438 83.0853 32.5438 83.0853 31.8547 82.7914C30.8729 83.0915 30.3552 84.4695 29.8639 85.3101C29.7266 85.5439 29.7266 85.5439 29.5865 85.7824C27.8576 88.7393 26.1562 91.7257 24.6331 94.7948C24.5794 94.7948 24.5256 94.7948 24.4703 94.7948C24.4368 93.6117 24.5387 92.4847 24.7043 91.3144C24.8848 89.9652 25.0059 88.6342 25.0538 87.2744C25.1103 85.8905 25.2749 84.5205 25.4447 83.1465C25.5711 82.0947 25.6958 81.0379 25.61 79.9776C25.5563 79.9238 25.5026 79.8701 25.4472 79.8147C25.0538 79.8167 24.6691 79.8305 24.2769 79.8555C24.0997 79.8667 24.0997 79.8667 23.919 79.8781C22.9839 79.9474 22.097 80.1185 21.1838 80.3325C20.3109 80.5201 19.4318 80.6435 18.5482 80.7698C17.4978 80.9214 16.4546 81.1004 15.4138 81.3085C14.8446 81.4161 14.4397 81.4437 13.8865 81.2802C15.948 80.063 18.0172 78.868 20.1244 77.7315C21.1073 77.1994 22.0729 76.6458 23.0257 76.0614C23.6698 75.6665 24.3231 75.3047 25.002 74.9732C25.3945 74.6868 25.5532 74.3853 25.7729 73.953C25.9935 72.3183 25.6536 70.5714 25.437 68.9461C25.4195 68.8111 25.402 68.6762 25.3839 68.5371C24.989 65.5085 24.4733 62.5017 23.9396 59.4949C23.7841 58.6165 23.6372 57.7366 23.4933 56.8562Z" fill="#0B2751"/>
<path d="M27.6805 70.0452C28.0837 70.4484 28.1872 70.8022 28.3827 71.3376C28.7582 72.3401 29.1835 73.3084 29.6344 74.2787C29.9306 74.925 30.1572 75.5306 30.2857 76.2326C30.4272 76.1856 30.5686 76.1385 30.7144 76.0901C30.902 76.0297 31.0897 75.9692 31.283 75.9069C31.4681 75.8465 31.6533 75.786 31.844 75.7237C32.3827 75.5863 32.8267 75.5544 33.3794 75.5813C32.76 76.2195 32.1068 76.801 31.4255 77.3724C31.5104 78.1795 31.8899 78.7209 32.3312 79.3772C32.4004 79.4822 32.4695 79.5873 32.5408 79.6955C32.7106 79.9531 32.882 80.2097 33.0538 80.4661C32.3096 80.4661 31.9452 79.9168 31.4443 79.4166C30.8955 78.8895 30.8955 78.8895 30.1229 78.8378C29.8609 79.3293 29.6 79.8213 29.3393 80.3134C29.2657 80.4514 29.1921 80.5894 29.1163 80.7316C28.71 81.4998 28.3348 82.2666 28.0061 83.0713C27.9524 83.0713 27.8987 83.0713 27.8433 83.0713C27.8433 81.513 27.8433 79.9548 27.8433 78.3493C27.1849 78.0201 26.814 77.9652 26.0929 77.9219C25.9023 77.9097 25.7118 77.8976 25.5154 77.885C25.3702 77.877 25.2249 77.8691 25.0753 77.8608C25.5519 77.338 26.0295 76.9368 26.6221 76.5481C26.7478 76.4649 26.8736 76.3818 27.0031 76.2962C27.2827 76.1162 27.5673 75.944 27.8535 75.7746C28.2648 75.3102 28.2084 74.9723 28.1953 74.3721C28.1509 73.6652 28.0408 72.9721 27.9247 72.2739C27.8785 71.9896 27.8327 71.7053 27.7873 71.4209C27.7669 71.2972 27.7464 71.1735 27.7253 71.0461C27.6805 70.6965 27.6805 70.6965 27.6805 70.0452Z" fill="#0B2751"/>
</svg>
