<svg width="100" height="110" viewBox="0 0 100 110" fill="none" xmlns="http://www.w3.org/2000/svg">
<mask id="path-1-inside-1_22_121" fill="white">
<path d="M21.865 8.3042C22.3034 8.31306 22.5891 8.38122 22.9107 8.68749C23.1714 9.00312 23.4153 9.32665 23.6561 9.65769C23.7481 9.78141 23.84 9.90513 23.9347 10.0326C26.6196 13.6917 28.9125 17.6281 30.8023 21.7511C30.9574 22.0881 31.1156 22.4233 31.2765 22.7576C31.8271 23.9127 32.2877 25.0904 32.7261 26.2914C32.8974 26.7581 33.0752 27.2203 33.2629 27.6806C34.3008 27.5841 35.2323 27.3435 36.2243 27.0293C36.3843 26.9795 36.5442 26.9298 36.7091 26.8786C37.0572 26.7702 37.4053 26.6615 37.7532 26.5523C38.3357 26.3701 38.919 26.1903 39.5024 26.011C41.2372 25.477 42.9709 24.9418 44.6913 24.363C44.8071 24.3241 44.923 24.2853 45.0424 24.2452C45.5197 24.085 45.9968 23.9242 46.4735 23.7619C46.6174 23.7151 46.7614 23.6683 46.9098 23.6201C47.025 23.5817 47.1402 23.5433 47.259 23.5037C47.6844 23.4313 47.9933 23.4892 48.4058 23.6099C48.7314 23.9355 48.7314 23.9355 48.7969 24.3229C48.7068 24.9098 48.4794 25.0406 48.0089 25.3908C47.8584 25.5037 47.7079 25.6167 47.5528 25.733C47.0646 26.0796 46.5734 26.4179 46.0715 26.7443C45.5005 27.1194 44.9383 27.5067 44.3758 27.8943C44.2619 27.9727 44.148 28.0511 44.0307 28.1319C43.6979 28.3612 43.3651 28.5908 43.0325 28.8203C42.8652 28.9358 42.6979 29.0512 42.5256 29.1702C42.3671 29.2797 42.2086 29.3893 42.0453 29.5022C41.8789 29.6172 41.7124 29.7322 41.541 29.8507C41.0189 30.2128 40.4995 30.5787 39.9801 30.9447C39.8127 31.0622 39.6454 31.1797 39.4729 31.3008C39.1369 31.5367 38.8013 31.7733 38.4663 32.0105C38.233 32.174 38.233 32.174 37.995 32.3408C37.8559 32.4389 37.7167 32.5371 37.5733 32.6381C37.1777 32.8866 36.7951 33.0582 36.3566 33.2167C36.8105 34.4505 37.3855 35.581 38.0256 36.7276C38.7768 38.0929 39.4817 39.4648 40.1309 40.881C40.4283 41.5295 40.7463 42.1665 41.0684 42.8031C42.1631 44.9776 43.1999 47.167 44.1055 49.4274C44.3157 49.9643 44.3157 49.9643 44.5323 50.3681C44.6607 50.6391 44.6607 50.6391 44.6099 50.9953C44.4979 51.2904 44.4979 51.2904 44.3351 51.4532C43.8743 51.5018 43.6124 51.5132 43.2195 51.2554C43.1242 51.1629 43.0289 51.0703 42.9307 50.9749C42.4301 50.507 41.9202 50.0685 41.3839 49.6418C40.5502 48.9647 39.7628 48.2465 38.9818 47.5097C38.5156 47.0703 38.0448 46.6415 37.5574 46.2256C36.6763 45.4593 35.8582 44.6289 35.0345 43.8021C34.7572 43.5239 34.479 43.2466 34.2007 42.9694C34.0227 42.7913 33.8447 42.6131 33.6668 42.4348C33.5843 42.3527 33.5019 42.2706 33.417 42.186C33.0868 41.8537 32.7798 41.5283 32.5049 41.1482C32.2889 40.8207 32.2889 40.8207 31.7974 40.7067C31.7408 40.8698 31.7408 40.8698 31.683 41.0362C31.4137 41.6541 31.063 42.197 30.6984 42.7624C30.1312 43.6429 29.6097 44.5378 29.1129 45.4601C28.8771 45.8976 28.637 46.3325 28.3953 46.7669C27.3968 48.5702 26.4684 50.3899 25.603 52.2603C25.2423 53.0308 24.8544 53.7879 24.4702 54.5469C24.3447 54.8013 24.2191 55.0557 24.0937 55.3102C23.8189 55.8496 23.8189 55.8496 23.6561 56.0124C23.2592 56.0429 23.2592 56.0429 22.842 56.0124C22.5163 55.6867 22.5163 55.6867 22.4866 55.2835C22.492 55.1143 22.4974 54.9451 22.503 54.7708C22.5118 54.4856 22.5118 54.4856 22.5207 54.1945C22.5294 53.9884 22.538 53.7823 22.5469 53.57C22.555 53.3573 22.563 53.1446 22.5714 52.9254C22.6361 51.3826 22.7836 49.8567 22.9785 48.325C23.1734 46.7745 23.2888 45.2229 23.388 43.6636C23.3996 43.4829 23.4113 43.3022 23.4233 43.116C23.433 42.9571 23.4427 42.7981 23.4527 42.6344C23.4954 42.1484 23.5753 41.6761 23.6561 41.1952C23.6889 40.8669 23.7178 40.5382 23.7433 40.2093C23.7574 40.0288 23.7716 39.8483 23.7862 39.6623C23.8004 39.4763 23.8145 39.2904 23.8291 39.0988C23.8439 38.909 23.8587 38.7193 23.874 38.5238C23.9103 38.0574 23.9462 37.591 23.9818 37.1245C23.8839 37.1408 23.7859 37.1571 23.6851 37.174C23.3871 37.2236 23.0891 37.2733 22.7911 37.3229C22.4401 37.3814 22.0891 37.44 21.7382 37.4985C20.8508 37.6465 19.9635 37.7942 19.076 37.9412C18.9161 37.9677 18.7562 37.9943 18.5914 38.0216C18.2686 38.0751 17.9457 38.1285 17.6228 38.1816C16.8126 38.3159 16.004 38.4557 15.1968 38.6071C13.6915 38.8872 12.2002 39.134 10.6707 39.2311C10.5416 39.2404 10.4126 39.2498 10.2796 39.2595C9.78835 39.2824 9.42316 39.2958 8.989 39.0485C8.8389 38.7528 8.8389 38.7528 8.81854 38.3603C9.08868 37.7385 9.56884 37.5252 10.1415 37.2161C10.2629 37.1476 10.3843 37.0792 10.5093 37.0086C10.9281 36.7732 11.3489 36.5419 11.7698 36.3104C12.2597 36.0373 12.7492 35.7634 13.2386 35.4895C13.5843 35.2962 13.9301 35.1032 14.2762 34.9105C15.5964 34.1737 16.9015 33.4139 18.1984 32.6367C19.1901 32.044 20.1975 31.4865 21.2137 30.9371C21.7369 30.6501 22.259 30.3613 22.7809 30.0721C22.9113 30.0002 23.0416 29.9283 23.1759 29.8542C23.2995 29.7857 23.4232 29.7172 23.5505 29.6466C23.6611 29.5854 23.7716 29.5243 23.8855 29.4613C24.1422 29.3248 24.1422 29.3248 24.3074 29.146C24.4437 27.6213 24.1744 26.0845 23.9716 24.5767C23.9355 24.3024 23.8995 24.0281 23.8635 23.7538C23.4669 20.7466 23.0457 17.7425 22.6219 14.739C22.5996 14.5809 22.5774 14.4227 22.5544 14.2598C22.4449 13.4867 22.3315 12.7146 22.2106 11.9432C22.1877 11.7966 22.1649 11.65 22.1414 11.4989C22.0988 11.2264 22.0553 10.954 22.0107 10.6818C21.8851 9.87907 21.846 9.11682 21.865 8.3042Z"/>
</mask>
<path d="M21.865 8.3042C22.3034 8.31306 22.5891 8.38122 22.9107 8.68749C23.1714 9.00312 23.4153 9.32665 23.6561 9.65769C23.7481 9.78141 23.84 9.90513 23.9347 10.0326C26.6196 13.6917 28.9125 17.6281 30.8023 21.7511C30.9574 22.0881 31.1156 22.4233 31.2765 22.7576C31.8271 23.9127 32.2877 25.0904 32.7261 26.2914C32.8974 26.7581 33.0752 27.2203 33.2629 27.6806C34.3008 27.5841 35.2323 27.3435 36.2243 27.0293C36.3843 26.9795 36.5442 26.9298 36.7091 26.8786C37.0572 26.7702 37.4053 26.6615 37.7532 26.5523C38.3357 26.3701 38.919 26.1903 39.5024 26.011C41.2372 25.477 42.9709 24.9418 44.6913 24.363C44.8071 24.3241 44.923 24.2853 45.0424 24.2452C45.5197 24.085 45.9968 23.9242 46.4735 23.7619C46.6174 23.7151 46.7614 23.6683 46.9098 23.6201C47.025 23.5817 47.1402 23.5433 47.259 23.5037C47.6844 23.4313 47.9933 23.4892 48.4058 23.6099C48.7314 23.9355 48.7314 23.9355 48.7969 24.3229C48.7068 24.9098 48.4794 25.0406 48.0089 25.3908C47.8584 25.5037 47.7079 25.6167 47.5528 25.733C47.0646 26.0796 46.5734 26.4179 46.0715 26.7443C45.5005 27.1194 44.9383 27.5067 44.3758 27.8943C44.2619 27.9727 44.148 28.0511 44.0307 28.1319C43.6979 28.3612 43.3651 28.5908 43.0325 28.8203C42.8652 28.9358 42.6979 29.0512 42.5256 29.1702C42.3671 29.2797 42.2086 29.3893 42.0453 29.5022C41.8789 29.6172 41.7124 29.7322 41.541 29.8507C41.0189 30.2128 40.4995 30.5787 39.9801 30.9447C39.8127 31.0622 39.6454 31.1797 39.4729 31.3008C39.1369 31.5367 38.8013 31.7733 38.4663 32.0105C38.233 32.174 38.233 32.174 37.995 32.3408C37.8559 32.4389 37.7167 32.5371 37.5733 32.6381C37.1777 32.8866 36.7951 33.0582 36.3566 33.2167C36.8105 34.4505 37.3855 35.581 38.0256 36.7276C38.7768 38.0929 39.4817 39.4648 40.1309 40.881C40.4283 41.5295 40.7463 42.1665 41.0684 42.8031C42.1631 44.9776 43.1999 47.167 44.1055 49.4274C44.3157 49.9643 44.3157 49.9643 44.5323 50.3681C44.6607 50.6391 44.6607 50.6391 44.6099 50.9953C44.4979 51.2904 44.4979 51.2904 44.3351 51.4532C43.8743 51.5018 43.6124 51.5132 43.2195 51.2554C43.1242 51.1629 43.0289 51.0703 42.9307 50.9749C42.4301 50.507 41.9202 50.0685 41.3839 49.6418C40.5502 48.9647 39.7628 48.2465 38.9818 47.5097C38.5156 47.0703 38.0448 46.6415 37.5574 46.2256C36.6763 45.4593 35.8582 44.6289 35.0345 43.8021C34.7572 43.5239 34.479 43.2466 34.2007 42.9694C34.0227 42.7913 33.8447 42.6131 33.6668 42.4348C33.5843 42.3527 33.5019 42.2706 33.417 42.186C33.0868 41.8537 32.7798 41.5283 32.5049 41.1482C32.2889 40.8207 32.2889 40.8207 31.7974 40.7067C31.7408 40.8698 31.7408 40.8698 31.683 41.0362C31.4137 41.6541 31.063 42.197 30.6984 42.7624C30.1312 43.6429 29.6097 44.5378 29.1129 45.4601C28.8771 45.8976 28.637 46.3325 28.3953 46.7669C27.3968 48.5702 26.4684 50.3899 25.603 52.2603C25.2423 53.0308 24.8544 53.7879 24.4702 54.5469C24.3447 54.8013 24.2191 55.0557 24.0937 55.3102C23.8189 55.8496 23.8189 55.8496 23.6561 56.0124C23.2592 56.0429 23.2592 56.0429 22.842 56.0124C22.5163 55.6867 22.5163 55.6867 22.4866 55.2835C22.492 55.1143 22.4974 54.9451 22.503 54.7708C22.5118 54.4856 22.5118 54.4856 22.5207 54.1945C22.5294 53.9884 22.538 53.7823 22.5469 53.57C22.555 53.3573 22.563 53.1446 22.5714 52.9254C22.6361 51.3826 22.7836 49.8567 22.9785 48.325C23.1734 46.7745 23.2888 45.2229 23.388 43.6636C23.3996 43.4829 23.4113 43.3022 23.4233 43.116C23.433 42.9571 23.4427 42.7981 23.4527 42.6344C23.4954 42.1484 23.5753 41.6761 23.6561 41.1952C23.6889 40.8669 23.7178 40.5382 23.7433 40.2093C23.7574 40.0288 23.7716 39.8483 23.7862 39.6623C23.8004 39.4763 23.8145 39.2904 23.8291 39.0988C23.8439 38.909 23.8587 38.7193 23.874 38.5238C23.9103 38.0574 23.9462 37.591 23.9818 37.1245C23.8839 37.1408 23.7859 37.1571 23.6851 37.174C23.3871 37.2236 23.0891 37.2733 22.7911 37.3229C22.4401 37.3814 22.0891 37.44 21.7382 37.4985C20.8508 37.6465 19.9635 37.7942 19.076 37.9412C18.9161 37.9677 18.7562 37.9943 18.5914 38.0216C18.2686 38.0751 17.9457 38.1285 17.6228 38.1816C16.8126 38.3159 16.004 38.4557 15.1968 38.6071C13.6915 38.8872 12.2002 39.134 10.6707 39.2311C10.5416 39.2404 10.4126 39.2498 10.2796 39.2595C9.78835 39.2824 9.42316 39.2958 8.989 39.0485C8.8389 38.7528 8.8389 38.7528 8.81854 38.3603C9.08868 37.7385 9.56884 37.5252 10.1415 37.2161C10.2629 37.1476 10.3843 37.0792 10.5093 37.0086C10.9281 36.7732 11.3489 36.5419 11.7698 36.3104C12.2597 36.0373 12.7492 35.7634 13.2386 35.4895C13.5843 35.2962 13.9301 35.1032 14.2762 34.9105C15.5964 34.1737 16.9015 33.4139 18.1984 32.6367C19.1901 32.044 20.1975 31.4865 21.2137 30.9371C21.7369 30.6501 22.259 30.3613 22.7809 30.0721C22.9113 30.0002 23.0416 29.9283 23.1759 29.8542C23.2995 29.7857 23.4232 29.7172 23.5505 29.6466C23.6611 29.5854 23.7716 29.5243 23.8855 29.4613C24.1422 29.3248 24.1422 29.3248 24.3074 29.146C24.4437 27.6213 24.1744 26.0845 23.9716 24.5767C23.9355 24.3024 23.8995 24.0281 23.8635 23.7538C23.4669 20.7466 23.0457 17.7425 22.6219 14.739C22.5996 14.5809 22.5774 14.4227 22.5544 14.2598C22.4449 13.4867 22.3315 12.7146 22.2106 11.9432C22.1877 11.7966 22.1649 11.65 22.1414 11.4989C22.0988 11.2264 22.0553 10.954 22.0107 10.6818C21.8851 9.87907 21.846 9.11682 21.865 8.3042Z" stroke="white" stroke-width="2" mask="url(#path-1-inside-1_22_121)"/>
<path d="M16.9803 0C17.6489 0.0327245 18.022 0.471605 18.4896 0.910811C18.6157 1.02889 18.6157 1.02889 18.7443 1.14935C19.7841 2.12975 20.7986 3.1367 21.809 4.14723C22.1403 4.47815 22.4728 4.80774 22.8055 5.1373C23.8642 6.19168 24.8814 7.24509 25.8011 8.42496C26.1002 8.79468 26.4182 9.12389 26.7601 9.45412C27.3483 10.0261 27.8529 10.6393 28.3578 11.2853C28.7286 11.755 29.1118 12.2124 29.4976 12.6699C31.8438 15.4707 34.005 18.454 36.031 21.4931C38.0175 21.2719 39.975 21.0044 41.9335 20.5976C42.8888 20.403 43.8395 20.2644 44.8077 20.1523C45.5679 20.0621 46.3197 19.9427 47.0727 19.8038C48.4902 19.5428 49.9146 19.3369 51.3409 19.1305C52.6187 18.9439 53.8875 18.7308 55.1549 18.4834C55.8041 18.3891 56.3804 18.3631 57.0356 18.3994C57.3613 18.7251 57.3613 18.7251 57.4211 19.1003C57.3416 19.6838 57.1135 19.9295 56.7303 20.3737C56.5968 20.5296 56.4633 20.6856 56.3258 20.8463C55.7714 21.4704 55.2135 22.0908 54.6486 22.7054C54.3232 23.0606 54.0036 23.4194 53.6875 23.7829C52.6848 24.9335 51.6737 26.0643 50.5773 27.1272C50.2567 27.4563 49.9584 27.7919 49.6595 28.1404C49.0855 28.8012 48.4696 29.3985 47.8257 29.9906C47.7137 30.0946 47.6016 30.1986 47.4862 30.3057C47.2553 30.5198 47.0242 30.7337 46.7929 30.9473C46.4643 31.2513 46.137 31.5566 45.8101 31.8625C45.6102 32.0493 45.4103 32.2361 45.2103 32.4228C45.12 32.5075 45.0296 32.5921 44.9365 32.6793C44.3717 33.2048 43.792 33.7045 43.1954 34.1936C43.3995 34.8742 43.665 35.4846 43.9936 36.1112C44.2365 36.6032 44.4484 37.1073 44.6608 37.6129C44.7276 37.7704 44.7276 37.7704 44.7957 37.931C46.9165 42.97 48.4869 48.2406 49.5456 53.6005C49.5707 53.7258 49.5958 53.8511 49.6217 53.9802C50.1767 56.7771 50.1767 56.7771 50.0341 57.9663C49.8713 58.1291 49.8713 58.1291 49.4981 58.1646C48.9937 58.124 48.7682 58.0034 48.3511 57.7233C48.2193 57.6361 48.0876 57.549 47.9518 57.4592C47.8128 57.3646 47.6738 57.27 47.5306 57.1725C47.3859 57.0761 47.2411 56.9797 47.092 56.8803C46.6604 56.5926 46.2305 56.3025 45.8006 56.0123C45.5771 55.8635 45.3534 55.7148 45.1296 55.5665C44.6356 55.239 44.1427 54.9097 43.6504 54.5797C43.2487 54.3107 42.8464 54.0426 42.4441 53.7746C42.1379 53.5706 41.8318 53.3664 41.5258 53.1622C41.1211 52.8925 40.7162 52.6232 40.3109 52.3545C38.2437 50.9824 36.1866 49.5993 34.2046 48.1054C33.7833 47.7909 33.4399 47.5501 32.9373 47.3825C32.8678 47.4896 32.7983 47.5966 32.7268 47.7069C31.238 49.9723 29.6373 52.1542 27.9455 54.2717C27.7219 54.5531 27.5008 54.8362 27.2803 55.12C26.4723 56.159 25.6484 57.1801 24.7931 58.1806C24.3267 58.7262 23.8716 59.2791 23.4221 59.8388C22.7109 60.7134 21.9507 61.5357 21.1813 62.3588C20.8052 62.762 20.4421 63.1744 20.0842 63.5939C19.6795 64.0564 19.3022 64.4837 18.7714 64.805C18.3236 64.7846 18.3236 64.7846 17.9572 64.6421C17.6973 64.1222 17.8032 63.5711 17.8351 63.0037C17.8426 62.8672 17.8501 62.7306 17.8578 62.59C17.9471 61.1437 18.1249 59.7103 18.307 58.2733C18.4372 57.2329 18.5551 56.1915 18.669 55.1492C18.8526 53.4836 19.0401 51.8185 19.2312 50.1538C19.2437 50.0453 19.2561 49.9369 19.269 49.8251C19.3446 49.1666 19.4203 48.5081 19.4961 47.8496C19.5617 47.2796 19.6272 46.7095 19.6927 46.1394C19.8197 45.034 19.9468 43.9287 20.074 42.8234C19.9241 42.8487 19.7741 42.874 19.6197 42.9001C3.49706 45.6124 3.49706 45.6124 0.0463193 43.3119C-0.0437262 42.7237 -0.0262526 42.4397 0.315365 41.9463C0.438153 41.8227 0.56094 41.699 0.687449 41.5717C1.20582 41.0423 1.67511 40.5032 2.13444 39.9211C3.08475 38.7509 4.14722 37.6967 5.21551 36.6348C5.56144 36.2906 5.9056 35.9447 6.24963 35.5986C7.44385 34.4032 8.65071 33.2858 9.97874 32.2397C10.1703 32.0759 10.3607 31.9107 10.5493 31.7435C12.4677 30.0451 14.5486 28.5865 16.675 27.1615C16.7945 27.0812 16.9141 27.0008 17.0373 26.9181C17.642 26.5163 18.2515 26.1347 18.8833 25.7768C19.0048 25.7065 19.1263 25.6361 19.2515 25.5636C19.4813 25.4317 19.7135 25.3038 19.9481 25.1808C20.3039 24.9891 20.3039 24.9891 20.7253 24.5868C20.9011 23.8283 20.6958 23.1003 20.4912 22.3645C20.3801 21.8999 20.3193 21.4376 20.2572 20.9639C20.1296 20.0253 19.9604 19.1031 19.7687 18.1755C19.5189 16.965 19.3034 15.7526 19.1072 14.5323C18.8654 13.0318 18.5696 11.5492 18.2483 10.0639C17.9912 8.85226 17.807 7.64088 17.6475 6.41304C17.5288 5.53414 17.3555 4.69204 17.1228 3.8366C16.8149 2.67995 16.6023 1.52899 16.6546 0.325653C16.7621 0.218188 16.8696 0.110722 16.9803 0ZM18.1201 2.4424C18.3483 4.24315 18.5818 6.0274 18.987 7.79787C19.0921 8.2815 19.1702 8.76068 19.2395 9.25058C19.4224 10.5079 19.6816 11.7495 19.9353 12.9942C20.158 14.0882 20.3667 15.1836 20.5625 16.2827C20.6007 16.493 20.6389 16.7033 20.6782 16.92C20.9619 18.5054 21.2209 20.0939 21.4668 21.6856C21.6029 22.5537 21.7548 23.4091 21.9658 24.2624C22.0703 24.8081 22.048 25.3356 22.0279 25.8894C21.9124 25.9433 21.7968 25.9972 21.6778 26.0527C20.4389 26.6489 19.2922 27.3416 18.1556 28.1118C17.8768 28.3006 17.5969 28.4876 17.3167 28.6743C15.4448 29.9282 13.6629 31.2843 11.9327 32.7281C11.6868 32.9312 11.6868 32.9312 11.4359 33.1384C9.39323 34.8353 7.48796 36.6701 5.60278 38.539C5.39089 38.7477 5.39089 38.7477 5.17472 38.9606C4.21505 39.919 3.28295 40.9066 2.48872 42.0093C2.48872 42.1167 2.48872 42.2242 2.48872 42.3349C3.68957 42.3433 4.89042 42.3489 6.0913 42.3528C6.49784 42.3544 6.90437 42.3566 7.3109 42.3595C10.9507 42.3844 14.5523 42.2975 18.1201 41.5208C18.4559 41.4503 18.7919 41.3809 19.1281 41.3124C19.4324 41.2502 19.7364 41.1862 20.0403 41.122C20.505 41.0422 20.9077 40.9881 21.3766 41.0323C21.7023 41.3579 21.7023 41.3579 21.7063 41.8065C21.6894 41.9932 21.6726 42.18 21.6552 42.3724C21.6373 42.5784 21.6194 42.7844 21.601 42.9966C21.5807 43.2081 21.5604 43.4196 21.5394 43.6375C21.5221 43.8287 21.5047 44.0198 21.4868 44.2167C21.4324 44.8008 21.3746 45.3844 21.3155 45.968C21.2838 46.285 21.2838 46.285 21.2513 46.6085C21.0986 48.1176 20.922 49.623 20.7343 51.1281C20.5767 52.4141 20.465 53.7009 20.3628 54.9923C20.2675 56.133 20.1008 57.2507 19.9065 58.3782C19.7393 59.3851 19.6933 60.3648 19.7483 61.3856C20.5585 60.7533 21.2042 60.0536 21.8651 59.2689C22.0034 59.1066 22.1417 58.9444 22.2842 58.7772C23.794 57.0045 25.2614 55.2003 26.6927 53.3637C26.8995 53.0984 27.1067 52.8336 27.314 52.5688C28.64 50.8625 29.8942 49.1048 31.1487 47.3456C31.2242 47.2398 31.2997 47.134 31.3774 47.025C31.5186 46.8269 31.6596 46.6286 31.8004 46.4301C32.3886 45.6029 32.3886 45.6029 32.7904 45.5266C33.5016 45.6242 33.9231 46.026 34.474 46.4666C34.7079 46.6479 34.9419 46.829 35.1762 47.0098C35.2929 47.1006 35.4096 47.1915 35.5298 47.2851C36.0108 47.6551 36.5025 48.0089 36.9978 48.3595C37.0899 48.4249 37.182 48.4903 37.2769 48.5577C37.5669 48.7634 37.8573 48.9685 38.1477 49.1736C38.3621 49.3254 38.5764 49.4772 38.7908 49.629C39.3714 50.0399 39.9528 50.4497 40.5345 50.859C40.799 51.0453 41.0634 51.2317 41.3276 51.4183C43.4107 52.8954 43.4107 52.8954 45.5513 54.2868C46.2158 54.7062 46.8595 55.1569 47.5052 55.6046C47.9074 55.8911 47.9074 55.8911 48.4058 55.8495C48.1057 48.9018 44.7638 40.7712 41.5385 34.644C41.4043 34.3564 41.4043 34.3564 41.4132 33.9532C41.6226 33.3941 41.9277 33.1876 42.4016 32.8299C43.0484 32.3258 43.6406 31.8181 44.2075 31.2271C44.4957 30.9393 44.7945 30.6748 45.1041 30.4104C45.7848 29.8185 46.4265 29.195 47.0631 28.5563C47.1779 28.4418 47.2926 28.3272 47.4108 28.2092C47.6514 27.9687 47.8918 27.728 48.132 27.4871C48.4965 27.1217 48.8618 26.7573 49.2273 26.3928C49.4625 26.1575 49.6978 25.922 49.933 25.6865C50.0405 25.5793 50.1481 25.4721 50.2589 25.3616C50.8864 24.731 51.4846 24.0829 52.0651 23.4087C52.544 22.8551 53.0478 22.3236 53.5463 21.7876C53.9889 21.276 54.3703 20.7458 54.7561 20.1905C52.6921 20.4801 50.6308 20.7815 48.5733 21.1141C48.2829 21.161 47.9923 21.2072 47.7017 21.2533C46.8606 21.3892 46.0272 21.5464 45.1932 21.7208C43.7724 22.0105 42.3416 22.2114 40.9056 22.409C40.5256 22.462 40.1455 22.5151 39.7655 22.5683C39.5319 22.601 39.2983 22.6335 39.0647 22.6657C38.5873 22.7318 38.1114 22.8018 37.636 22.8814C36.1205 23.1326 36.1205 23.1326 35.3797 22.9585C34.8636 22.5156 34.5627 21.9788 34.2297 21.3913C34.0356 21.0753 33.8412 20.7594 33.6465 20.4436C33.5536 20.2885 33.4607 20.1333 33.3649 19.9734C33.0167 19.4024 32.6389 18.8584 32.2453 18.318C32.181 18.2287 32.1167 18.1394 32.0504 18.0475C31.3367 17.0624 30.591 16.1023 29.8436 15.1429C29.7073 14.9644 29.7073 14.9644 29.5682 14.7822C28.1728 12.9602 26.7075 11.1864 25.1496 9.50118C24.826 9.15076 24.5091 8.79585 24.1955 8.43645C24.107 8.33507 24.0184 8.23369 23.9271 8.12924C23.7315 7.9028 23.5375 7.67491 23.3445 7.44613C23.2425 7.32629 23.1405 7.20644 23.0354 7.08295C22.9437 6.97381 22.8519 6.86467 22.7574 6.75221C22.5345 6.47484 22.5345 6.47484 22.1907 6.51306C22.147 6.41637 22.1033 6.31967 22.0582 6.22005C21.8642 5.86015 21.6693 5.62623 21.3804 5.33957C21.2852 5.24451 21.1899 5.14946 21.0918 5.05152C20.991 4.95284 20.8902 4.85417 20.7864 4.7525C20.684 4.65131 20.5816 4.55011 20.4762 4.44585C19.4085 3.1895 19.4085 3.1895 18.1201 2.4424Z" fill="white"/>
<mask id="path-3-inside-2_22_121" fill="white">
<path d="M76.1707 23.063C76.4548 23.0687 76.6399 23.1129 76.8484 23.3114C77.0173 23.516 77.1754 23.7256 77.3315 23.9402C77.3911 24.0204 77.4507 24.1006 77.5121 24.1832C79.2521 26.5546 80.7381 29.1058 81.9629 31.7779C82.0634 31.9963 82.1659 32.2136 82.2703 32.4302C82.6271 33.1789 82.9256 33.9421 83.2097 34.7205C83.3208 35.0229 83.436 35.3225 83.5576 35.6208C84.2303 35.5583 84.834 35.4023 85.4769 35.1987C85.5806 35.1664 85.6843 35.1342 85.7911 35.101C86.0167 35.0308 86.2423 34.9603 86.4678 34.8896C86.8453 34.7714 87.2233 34.6549 87.6015 34.5387C88.7258 34.1926 89.8493 33.8458 90.9643 33.4707C91.0394 33.4455 91.1145 33.4203 91.1919 33.3943C91.5012 33.2905 91.8104 33.1863 92.1194 33.0811C92.2127 33.0508 92.306 33.0204 92.4021 32.9892C92.4768 32.9643 92.5515 32.9394 92.6285 32.9137C92.9042 32.8668 93.1044 32.9044 93.3717 32.9826C93.5827 33.1936 93.5827 33.1936 93.6252 33.4447C93.5668 33.8251 93.4194 33.9098 93.1145 34.1368C93.0169 34.21 92.9194 34.2832 92.8189 34.3586C92.5025 34.5832 92.1842 34.8025 91.8588 35.014C91.4888 35.2571 91.1244 35.5081 90.7599 35.7593C90.6861 35.8101 90.6123 35.8609 90.5362 35.9133C90.3205 36.0619 90.1049 36.2107 89.8893 36.3595C89.7808 36.4343 89.6724 36.5091 89.5607 36.5862C89.458 36.6572 89.3553 36.7282 89.2495 36.8014C89.1416 36.8759 89.0338 36.9505 88.9226 37.0273C88.5842 37.2619 88.2476 37.4991 87.911 37.7363C87.8026 37.8124 87.6941 37.8886 87.5823 37.967C87.3646 38.1199 87.1471 38.2733 86.9299 38.427C86.7787 38.533 86.7787 38.533 86.6245 38.6411C86.5343 38.7047 86.4441 38.7683 86.3512 38.8338C86.0948 38.9948 85.8468 39.106 85.5626 39.2087C85.8568 40.0084 86.2295 40.7411 86.6443 41.4842C87.1312 42.369 87.588 43.2581 88.0087 44.1759C88.2015 44.5962 88.4076 45.0091 88.6163 45.4217C89.3258 46.831 89.9978 48.2499 90.5847 49.7149C90.7209 50.0628 90.7209 50.0628 90.8613 50.3246C90.9445 50.5002 90.9445 50.5002 90.9116 50.731C90.839 50.9223 90.839 50.9223 90.7335 51.0278C90.4349 51.0593 90.2651 51.0667 90.0105 50.8996C89.9487 50.8396 89.8869 50.7796 89.8233 50.7178C89.4989 50.4146 89.1684 50.1304 88.8208 49.8538C88.2805 49.415 87.7702 48.9496 87.264 48.472C86.9619 48.1872 86.6568 47.9093 86.3409 47.6398C85.7699 47.1431 85.2396 46.605 84.7058 46.0691C84.526 45.8888 84.3458 45.7091 84.1654 45.5295C84.05 45.414 83.9347 45.2985 83.8194 45.183C83.7659 45.1298 83.7125 45.0766 83.6575 45.0217C83.4435 44.8063 83.2445 44.5955 83.0664 44.3491C82.9264 44.1369 82.9264 44.1369 82.6079 44.063C82.5711 44.1687 82.5711 44.1687 82.5337 44.2765C82.3592 44.677 82.1319 45.0288 81.8955 45.3953C81.528 45.9659 81.19 46.546 80.868 47.1436C80.7152 47.4272 80.5596 47.7091 80.4029 47.9906C79.7558 49.1593 79.1541 50.3386 78.5932 51.5509C78.3595 52.0502 78.1081 52.5409 77.8591 53.0328C77.7777 53.1977 77.6964 53.3626 77.6151 53.5275C77.437 53.8771 77.437 53.8771 77.3315 53.9826C77.0743 54.0024 77.0743 54.0024 76.8038 53.9826C76.5928 53.7715 76.5928 53.7715 76.5735 53.5102C76.577 53.4005 76.5805 53.2909 76.5841 53.1779C76.5898 52.9931 76.5898 52.9931 76.5956 52.8044C76.6012 52.6709 76.6068 52.5373 76.6126 52.3997C76.6178 52.2618 76.6231 52.124 76.6285 51.9819C76.6704 50.982 76.766 49.9931 76.8923 49.0004C77.0186 47.9955 77.0934 46.99 77.1577 45.9794C77.1653 45.8622 77.1728 45.7451 77.1806 45.6245C77.1869 45.5215 77.1932 45.4184 77.1996 45.3123C77.2273 44.9974 77.2791 44.6913 77.3315 44.3796C77.3527 44.1668 77.3715 43.9538 77.388 43.7406C77.3971 43.6236 77.4063 43.5067 77.4158 43.3861C77.425 43.2656 77.4341 43.1451 77.4436 43.0209C77.4532 42.8979 77.4628 42.775 77.4727 42.6483C77.4962 42.346 77.5195 42.0437 77.5425 41.7414C77.4791 41.752 77.4156 41.7625 77.3502 41.7734C77.1571 41.8056 76.964 41.8378 76.7708 41.87C76.5434 41.9079 76.3159 41.9458 76.0885 41.9838C75.5134 42.0797 74.9383 42.1754 74.3631 42.2707C74.2595 42.2879 74.1558 42.3051 74.0491 42.3228C73.8398 42.3575 73.6306 42.3921 73.4213 42.4265C72.8962 42.5135 72.3722 42.6041 71.849 42.7023C70.8735 42.8838 69.9069 43.0438 68.9156 43.1066C68.832 43.1127 68.7484 43.1188 68.6622 43.1251C68.3438 43.1399 68.1071 43.1486 67.8257 42.9883C67.7285 42.7967 67.7285 42.7967 67.7153 42.5423C67.8903 42.1393 68.2015 42.0011 68.5727 41.8007C68.6514 41.7564 68.73 41.712 68.8111 41.6663C69.0824 41.5137 69.3552 41.3638 69.628 41.2137C69.9455 41.0368 70.2627 40.8593 70.5799 40.6817C70.8039 40.5564 71.0281 40.4314 71.2524 40.3065C72.108 39.829 72.9538 39.3365 73.7943 38.8329C74.437 38.4487 75.0899 38.0874 75.7486 37.7313C76.0876 37.5453 76.426 37.3582 76.7643 37.1707C76.8487 37.1241 76.9332 37.0775 77.0203 37.0295C77.1004 36.9851 77.1805 36.9407 77.263 36.8949C77.3347 36.8553 77.4063 36.8157 77.4801 36.7749C77.6465 36.6864 77.6465 36.6864 77.7536 36.5705C77.8419 35.5824 77.6674 34.5864 77.5359 33.6092C77.5126 33.4314 77.4892 33.2536 77.4659 33.0758C77.2088 31.1269 76.9359 29.1799 76.6612 27.2334C76.6468 27.1309 76.6324 27.0284 76.6175 26.9228C76.5465 26.4218 76.473 25.9213 76.3946 25.4214C76.3798 25.3264 76.3651 25.2314 76.3498 25.1335C76.3222 24.9569 76.294 24.7803 76.2651 24.6039C76.1837 24.0837 76.1583 23.5896 76.1707 23.063Z"/>
</mask>
<path d="M76.1707 23.063C76.4548 23.0687 76.6399 23.1129 76.8484 23.3114C77.0173 23.516 77.1754 23.7256 77.3315 23.9402C77.3911 24.0204 77.4507 24.1006 77.5121 24.1832C79.2521 26.5546 80.7381 29.1058 81.9629 31.7779C82.0634 31.9963 82.1659 32.2136 82.2703 32.4302C82.6271 33.1789 82.9256 33.9421 83.2097 34.7205C83.3208 35.0229 83.436 35.3225 83.5576 35.6208C84.2303 35.5583 84.834 35.4023 85.4769 35.1987C85.5806 35.1664 85.6843 35.1342 85.7911 35.101C86.0167 35.0308 86.2423 34.9603 86.4678 34.8896C86.8453 34.7714 87.2233 34.6549 87.6015 34.5387C88.7258 34.1926 89.8493 33.8458 90.9643 33.4707C91.0394 33.4455 91.1145 33.4203 91.1919 33.3943C91.5012 33.2905 91.8104 33.1863 92.1194 33.0811C92.2127 33.0508 92.306 33.0204 92.4021 32.9892C92.4768 32.9643 92.5515 32.9394 92.6285 32.9137C92.9042 32.8668 93.1044 32.9044 93.3717 32.9826C93.5827 33.1936 93.5827 33.1936 93.6252 33.4447C93.5668 33.8251 93.4194 33.9098 93.1145 34.1368C93.0169 34.21 92.9194 34.2832 92.8189 34.3586C92.5025 34.5832 92.1842 34.8025 91.8588 35.014C91.4888 35.2571 91.1244 35.5081 90.7599 35.7593C90.6861 35.8101 90.6123 35.8609 90.5362 35.9133C90.3205 36.0619 90.1049 36.2107 89.8893 36.3595C89.7808 36.4343 89.6724 36.5091 89.5607 36.5862C89.458 36.6572 89.3553 36.7282 89.2495 36.8014C89.1416 36.8759 89.0338 36.9505 88.9226 37.0273C88.5842 37.2619 88.2476 37.4991 87.911 37.7363C87.8026 37.8124 87.6941 37.8886 87.5823 37.967C87.3646 38.1199 87.1471 38.2733 86.9299 38.427C86.7787 38.533 86.7787 38.533 86.6245 38.6411C86.5343 38.7047 86.4441 38.7683 86.3512 38.8338C86.0948 38.9948 85.8468 39.106 85.5626 39.2087C85.8568 40.0084 86.2295 40.7411 86.6443 41.4842C87.1312 42.369 87.588 43.2581 88.0087 44.1759C88.2015 44.5962 88.4076 45.0091 88.6163 45.4217C89.3258 46.831 89.9978 48.2499 90.5847 49.7149C90.7209 50.0628 90.7209 50.0628 90.8613 50.3246C90.9445 50.5002 90.9445 50.5002 90.9116 50.731C90.839 50.9223 90.839 50.9223 90.7335 51.0278C90.4349 51.0593 90.2651 51.0667 90.0105 50.8996C89.9487 50.8396 89.8869 50.7796 89.8233 50.7178C89.4989 50.4146 89.1684 50.1304 88.8208 49.8538C88.2805 49.415 87.7702 48.9496 87.264 48.472C86.9619 48.1872 86.6568 47.9093 86.3409 47.6398C85.7699 47.1431 85.2396 46.605 84.7058 46.0691C84.526 45.8888 84.3458 45.7091 84.1654 45.5295C84.05 45.414 83.9347 45.2985 83.8194 45.183C83.7659 45.1298 83.7125 45.0766 83.6575 45.0217C83.4435 44.8063 83.2445 44.5955 83.0664 44.3491C82.9264 44.1369 82.9264 44.1369 82.6079 44.063C82.5711 44.1687 82.5711 44.1687 82.5337 44.2765C82.3592 44.677 82.1319 45.0288 81.8955 45.3953C81.528 45.9659 81.19 46.546 80.868 47.1436C80.7152 47.4272 80.5596 47.7091 80.4029 47.9906C79.7558 49.1593 79.1541 50.3386 78.5932 51.5509C78.3595 52.0502 78.1081 52.5409 77.8591 53.0328C77.7777 53.1977 77.6964 53.3626 77.6151 53.5275C77.437 53.8771 77.437 53.8771 77.3315 53.9826C77.0743 54.0024 77.0743 54.0024 76.8038 53.9826C76.5928 53.7715 76.5928 53.7715 76.5735 53.5102C76.577 53.4005 76.5805 53.2909 76.5841 53.1779C76.5898 52.9931 76.5898 52.9931 76.5956 52.8044C76.6012 52.6709 76.6068 52.5373 76.6126 52.3997C76.6178 52.2618 76.6231 52.124 76.6285 51.9819C76.6704 50.982 76.766 49.9931 76.8923 49.0004C77.0186 47.9955 77.0934 46.99 77.1577 45.9794C77.1653 45.8622 77.1728 45.7451 77.1806 45.6245C77.1869 45.5215 77.1932 45.4184 77.1996 45.3123C77.2273 44.9974 77.2791 44.6913 77.3315 44.3796C77.3527 44.1668 77.3715 43.9538 77.388 43.7406C77.3971 43.6236 77.4063 43.5067 77.4158 43.3861C77.425 43.2656 77.4341 43.1451 77.4436 43.0209C77.4532 42.8979 77.4628 42.775 77.4727 42.6483C77.4962 42.346 77.5195 42.0437 77.5425 41.7414C77.4791 41.752 77.4156 41.7625 77.3502 41.7734C77.1571 41.8056 76.964 41.8378 76.7708 41.87C76.5434 41.9079 76.3159 41.9458 76.0885 41.9838C75.5134 42.0797 74.9383 42.1754 74.3631 42.2707C74.2595 42.2879 74.1558 42.3051 74.0491 42.3228C73.8398 42.3575 73.6306 42.3921 73.4213 42.4265C72.8962 42.5135 72.3722 42.6041 71.849 42.7023C70.8735 42.8838 69.9069 43.0438 68.9156 43.1066C68.832 43.1127 68.7484 43.1188 68.6622 43.1251C68.3438 43.1399 68.1071 43.1486 67.8257 42.9883C67.7285 42.7967 67.7285 42.7967 67.7153 42.5423C67.8903 42.1393 68.2015 42.0011 68.5727 41.8007C68.6514 41.7564 68.73 41.712 68.8111 41.6663C69.0824 41.5137 69.3552 41.3638 69.628 41.2137C69.9455 41.0368 70.2627 40.8593 70.5799 40.6817C70.8039 40.5564 71.0281 40.4314 71.2524 40.3065C72.108 39.829 72.9538 39.3365 73.7943 38.8329C74.437 38.4487 75.0899 38.0874 75.7486 37.7313C76.0876 37.5453 76.426 37.3582 76.7643 37.1707C76.8487 37.1241 76.9332 37.0775 77.0203 37.0295C77.1004 36.9851 77.1805 36.9407 77.263 36.8949C77.3347 36.8553 77.4063 36.8157 77.4801 36.7749C77.6465 36.6864 77.6465 36.6864 77.7536 36.5705C77.8419 35.5824 77.6674 34.5864 77.5359 33.6092C77.5126 33.4314 77.4892 33.2536 77.4659 33.0758C77.2088 31.1269 76.9359 29.1799 76.6612 27.2334C76.6468 27.1309 76.6324 27.0284 76.6175 26.9228C76.5465 26.4218 76.473 25.9213 76.3946 25.4214C76.3798 25.3264 76.3651 25.2314 76.3498 25.1335C76.3222 24.9569 76.294 24.7803 76.2651 24.6039C76.1837 24.0837 76.1583 23.5896 76.1707 23.063Z" stroke="white" stroke-width="1.2962" mask="url(#path-3-inside-2_22_121)"/>
<path d="M73.0049 17.6812C73.4382 17.7024 73.68 17.9868 73.9831 18.2714C74.0648 18.348 74.0648 18.348 74.1482 18.426C74.8221 19.0614 75.4795 19.714 76.1344 20.369C76.3491 20.5834 76.5646 20.797 76.7802 21.0106C77.4664 21.694 78.1256 22.3767 78.7216 23.1414C78.9155 23.381 79.1216 23.5943 79.3432 23.8084C79.7244 24.1791 80.0514 24.5765 80.3786 24.9951C80.619 25.2995 80.8673 25.596 81.1173 25.8925C82.6379 27.7077 84.0386 29.6412 85.3516 31.6108C86.6391 31.4674 87.9077 31.2941 89.177 31.0304C89.7961 30.9043 90.4123 30.8145 91.0398 30.7418C91.5325 30.6834 92.0198 30.606 92.5077 30.516C93.4264 30.3468 94.3496 30.2133 95.274 30.0796C96.1021 29.9587 96.9244 29.8205 97.7458 29.6602C98.1665 29.5991 98.54 29.5823 98.9647 29.6058C99.1758 29.8168 99.1758 29.8168 99.2145 30.06C99.163 30.4382 99.0152 30.5974 98.7668 30.8853C98.6803 30.9864 98.5938 31.0874 98.5047 31.1916C98.1454 31.5961 97.7838 31.9982 97.4176 32.3965C97.2068 32.6267 96.9996 32.8592 96.7948 33.0948C96.1449 33.8405 95.4897 34.5734 94.779 35.2622C94.5713 35.4756 94.3779 35.6931 94.1842 35.9189C93.8122 36.3472 93.413 36.7343 92.9958 37.118C92.9232 37.1854 92.8505 37.2528 92.7757 37.3222C92.6261 37.461 92.4763 37.5996 92.3264 37.7381C92.1134 37.935 91.9013 38.1329 91.6895 38.3312C91.5599 38.4522 91.4303 38.5733 91.3008 38.6943C91.2422 38.7492 91.1836 38.804 91.1233 38.8605C90.7572 39.2011 90.3815 39.525 89.9949 39.842C90.1272 40.283 90.2992 40.6787 90.5122 41.0848C90.6696 41.4036 90.807 41.7303 90.9446 42.058C90.9879 42.1601 90.9879 42.1601 91.032 42.2642C92.4065 45.53 93.4243 48.9458 94.1104 52.4195C94.1267 52.5008 94.143 52.582 94.1597 52.6657C94.5194 54.4783 94.5194 54.4783 94.427 55.249C94.3215 55.3545 94.3215 55.3545 94.0797 55.3776C93.7527 55.3512 93.6066 55.2731 93.3363 55.0915C93.2509 55.035 93.1655 54.9786 93.0775 54.9204C92.9874 54.8591 92.8973 54.7977 92.8045 54.7345C92.7107 54.6721 92.6169 54.6096 92.5202 54.5452C92.2406 54.3587 91.9619 54.1707 91.6833 53.9827C91.5384 53.8862 91.3935 53.7898 91.2484 53.6937C90.9282 53.4814 90.6088 53.2681 90.2897 53.0542C90.0294 52.8799 89.7687 52.7061 89.508 52.5324C89.3095 52.4002 89.1112 52.2678 88.9128 52.1355C88.6506 51.9607 88.3881 51.7862 88.1254 51.612C86.7857 50.7227 85.4525 49.8264 84.1679 48.8582C83.8949 48.6543 83.6723 48.4983 83.3466 48.3897C83.3016 48.4591 83.2566 48.5284 83.2102 48.5999C82.2453 50.0681 81.2079 51.4822 80.1114 52.8546C79.9665 53.0369 79.8232 53.2204 79.6803 53.4043C79.1567 54.0777 78.6227 54.7395 78.0683 55.3879C77.7661 55.7415 77.4712 56.0998 77.1798 56.4626C76.7189 57.0294 76.2262 57.5624 75.7276 58.0958C75.4838 58.3571 75.2485 58.6244 75.0165 58.8963C74.7543 59.196 74.5097 59.4729 74.1657 59.6812C73.8755 59.668 73.8755 59.668 73.6381 59.5756C73.4696 59.2387 73.5382 58.8815 73.5589 58.5138C73.5638 58.4253 73.5686 58.3368 73.5736 58.2456C73.6315 57.3083 73.7467 56.3793 73.8648 55.448C73.9491 54.7737 74.0255 54.0988 74.0993 53.4233C74.2183 52.3438 74.3398 51.2646 74.4637 50.1857C74.4718 50.1154 74.4799 50.0452 74.4882 49.9727C74.5372 49.546 74.5863 49.1192 74.6354 48.6924C74.6779 48.323 74.7203 47.9535 74.7628 47.584C74.8451 46.8676 74.9275 46.1513 75.0099 45.4349C74.9128 45.4513 74.8156 45.4677 74.7155 45.4846C64.2664 47.2425 64.2664 47.2425 62.03 45.7515C61.9717 45.3703 61.983 45.1863 62.2044 44.8665C62.284 44.7864 62.3635 44.7062 62.4455 44.6237C62.7815 44.2806 63.0856 43.9312 63.3833 43.554C63.9992 42.7955 64.6878 42.1123 65.3802 41.4241C65.6044 41.201 65.8274 40.9769 66.0504 40.7525C66.8243 39.9778 67.6065 39.2536 68.4672 38.5756C68.5914 38.4695 68.7147 38.3624 68.837 38.2541C70.0803 37.1534 71.4289 36.208 72.807 35.2845C72.8845 35.2324 72.962 35.1803 73.0418 35.1267C73.4338 34.8663 73.8288 34.619 74.2382 34.3871C74.317 34.3415 74.3957 34.2959 74.4769 34.2489C74.6258 34.1634 74.7763 34.0805 74.9284 34.0008C75.1589 33.8766 75.1589 33.8766 75.432 33.6158C75.546 33.1242 75.4129 32.6524 75.2803 32.1755C75.2083 31.8744 75.1689 31.5748 75.1286 31.2678C75.046 30.6595 74.9363 30.0618 74.8121 29.4607C74.6502 28.6762 74.5105 27.8904 74.3834 27.0995C74.2266 26.127 74.0349 25.1662 73.8267 24.2036C73.6601 23.4183 73.5407 22.6332 73.4373 21.8374C73.3604 21.2678 73.2481 20.7221 73.0972 20.1676C72.8977 19.418 72.7599 18.6721 72.7938 17.8922C72.8635 17.8226 72.9331 17.7529 73.0049 17.6812ZM73.7436 19.2641C73.8915 20.4311 74.0428 21.5875 74.3054 22.7349C74.3736 23.0484 74.4242 23.3589 74.4691 23.6764C74.5877 24.4913 74.7556 25.296 74.92 26.1027C75.0644 26.8117 75.1996 27.5216 75.3265 28.2339C75.3513 28.3702 75.376 28.5065 75.4015 28.647C75.5854 29.6745 75.7532 30.704 75.9126 31.7355C76.0008 32.2982 76.0992 32.8525 76.236 33.4056C76.3037 33.7592 76.2893 34.1011 76.2763 34.46C76.2014 34.495 76.1265 34.5299 76.0493 34.5659C75.2464 34.9522 74.5032 35.4012 73.7666 35.9004C73.586 36.0227 73.4045 36.1439 73.223 36.2649C72.0097 37.0776 70.8549 37.9565 69.7335 38.8922C69.5742 39.0238 69.5742 39.0238 69.4116 39.1581C68.0877 40.2579 66.8529 41.447 65.6312 42.6582C65.4938 42.7935 65.4938 42.7935 65.3537 42.9315C64.7318 43.5526 64.1277 44.1927 63.6129 44.9073C63.6129 44.9769 63.6129 45.0466 63.6129 45.1183C64.3912 45.1238 65.1695 45.1274 65.9478 45.1299C66.2112 45.131 66.4747 45.1324 66.7382 45.1343C69.0972 45.1504 71.4313 45.0941 73.7436 44.5907C73.9612 44.5451 74.179 44.5001 74.3969 44.4557C74.5941 44.4154 74.7911 44.3739 74.9881 44.3322C75.2892 44.2805 75.5502 44.2455 75.8541 44.2741C76.0652 44.4852 76.0652 44.4852 76.0678 44.7759C76.0569 44.8969 76.046 45.0179 76.0347 45.1427C76.0231 45.2762 76.0115 45.4097 75.9996 45.5472C75.9864 45.6843 75.9732 45.8213 75.9597 45.9626C75.9484 46.0864 75.9372 46.2103 75.9256 46.3379C75.8903 46.7165 75.8528 47.0947 75.8146 47.4729C75.794 47.6784 75.794 47.6784 75.773 47.8881C75.674 48.8661 75.5595 49.8418 75.4379 50.8172C75.3357 51.6506 75.2633 52.4846 75.1971 53.3216C75.1353 54.0608 75.0273 54.7853 74.9014 55.516C74.793 56.1685 74.7632 56.8035 74.7989 57.4651C75.3239 57.0553 75.7424 56.6018 76.1707 56.0932C76.2604 55.9881 76.35 55.8829 76.4424 55.7746C77.4209 54.6257 78.3719 53.4564 79.2995 52.2661C79.4335 52.0942 79.5678 51.9225 79.7022 51.7509C80.5615 50.645 81.3744 49.5059 82.1875 48.3658C82.2364 48.2972 82.2853 48.2286 82.3356 48.158C82.4271 48.0296 82.5185 47.901 82.6098 47.7724C82.991 47.2363 82.991 47.2363 83.2514 47.1868C83.7124 47.2501 83.9855 47.5105 84.3425 47.7961C84.4941 47.9136 84.6458 48.0309 84.7976 48.1481C84.8732 48.207 84.9489 48.2659 85.0268 48.3265C85.3386 48.5664 85.6572 48.7956 85.9782 49.0229C86.0379 49.0653 86.0976 49.1076 86.1591 49.1513C86.3471 49.2846 86.5353 49.4176 86.7235 49.5505C86.8624 49.6489 87.0013 49.7473 87.1402 49.8456C87.5165 50.1119 87.8933 50.3775 88.2703 50.6428C88.4418 50.7635 88.6131 50.8843 88.7844 51.0053C90.1344 51.9626 90.1344 51.9626 91.5217 52.8643C91.9524 53.1362 92.3695 53.4282 92.788 53.7184C93.0487 53.9041 93.0487 53.9041 93.3717 53.8771C93.1772 49.3743 91.0113 44.1049 88.921 40.1339C88.834 39.9475 88.834 39.9475 88.8398 39.6861C88.9755 39.3238 89.1733 39.19 89.4804 38.9582C89.8996 38.6315 90.2834 38.3024 90.6508 37.9194C90.8376 37.7329 91.0313 37.5615 91.2319 37.3901C91.6731 37.0065 92.0889 36.6024 92.5015 36.1885C92.5759 36.1142 92.6502 36.04 92.7268 35.9635C92.8828 35.8076 93.0386 35.6516 93.1942 35.4955C93.4305 35.2587 93.6673 35.0225 93.9041 34.7863C94.0566 34.6338 94.2091 34.4812 94.3615 34.3286C94.4312 34.2591 94.5009 34.1896 94.5727 34.1179C94.9794 33.7093 95.3671 33.2892 95.7433 32.8523C96.0537 32.4935 96.3802 32.149 96.7033 31.8017C96.9901 31.4701 97.2373 31.1265 97.4873 30.7666C96.1497 30.9543 94.8138 31.1496 93.4803 31.3652C93.2921 31.3956 93.1037 31.4255 92.9154 31.4554C92.3703 31.5435 91.8301 31.6453 91.2896 31.7584C90.3688 31.9461 89.4415 32.0764 88.5109 32.2044C88.2645 32.2387 88.0182 32.2732 87.772 32.3077C87.6206 32.3288 87.4692 32.3499 87.3178 32.3707C87.0084 32.4136 86.6999 32.459 86.3919 32.5106C85.4096 32.6734 85.4096 32.6734 84.9295 32.5605C84.595 32.2735 84.4 31.9256 84.1842 31.5448C84.0584 31.34 83.9324 31.1353 83.8062 30.9306C83.746 30.8301 83.6858 30.7295 83.6238 30.6259C83.3981 30.2558 83.1532 29.9032 82.8981 29.553C82.8564 29.4952 82.8148 29.4373 82.7718 29.3777C82.3093 28.7393 81.826 28.1171 81.3416 27.4952C81.2532 27.3795 81.2532 27.3795 81.1631 27.2615C80.2588 26.0806 79.3091 24.931 78.2994 23.8389C78.0897 23.6117 77.8843 23.3817 77.6811 23.1488C77.6237 23.0831 77.5663 23.0174 77.5071 22.9497C77.3803 22.8029 77.2546 22.6552 77.1295 22.507C77.0634 22.4293 76.9973 22.3516 76.9292 22.2716C76.8698 22.2009 76.8103 22.1301 76.7491 22.0573C76.6045 21.8775 76.6045 21.8775 76.3818 21.9023C76.3534 21.8396 76.3251 21.7769 76.2959 21.7124C76.1702 21.4791 76.0439 21.3275 75.8566 21.1417C75.7949 21.0801 75.7331 21.0185 75.6695 20.955C75.6042 20.8911 75.5389 20.8271 75.4716 20.7612C75.4053 20.6957 75.3389 20.6301 75.2706 20.5625C74.5786 19.7483 74.5786 19.7483 73.7436 19.2641Z" fill="white"/>
<mask id="path-5-inside-3_22_121" fill="white">
<path d="M44.7545 66.0444C45.0904 66.0512 45.3093 66.1035 45.5558 66.3381C45.7555 66.58 45.9424 66.8279 46.127 67.0816C46.1974 67.1764 46.2679 67.2712 46.3405 67.3689C48.3978 70.1727 50.1547 73.1891 51.6028 76.3484C51.7217 76.6066 51.8429 76.8635 51.9662 77.1196C52.3881 78.0048 52.7411 78.9072 53.077 79.8275C53.2083 80.1851 53.3445 80.5392 53.4883 80.8919C54.2836 80.818 54.9975 80.6336 55.7576 80.3929C55.8802 80.3548 56.0027 80.3167 56.129 80.2774C56.3958 80.1944 56.6625 80.111 56.9291 80.0274C57.3755 79.8877 57.8224 79.75 58.2695 79.6126C59.5988 79.2034 60.9273 78.7933 62.2456 78.3498C62.3343 78.32 62.4231 78.2902 62.5146 78.2595C62.8804 78.1368 63.2459 78.0135 63.6112 77.8892C63.7215 77.8533 63.8319 77.8175 63.9455 77.7805C64.0338 77.7511 64.1221 77.7217 64.2131 77.6913C64.5391 77.6359 64.7758 77.6803 65.0918 77.7727C65.3414 78.0223 65.3414 78.0223 65.3916 78.3191C65.3225 78.7688 65.1483 78.869 64.7877 79.1374C64.6724 79.2239 64.5571 79.3104 64.4383 79.3996C64.0642 79.6652 63.6878 79.9244 63.3032 80.1745C62.8656 80.4619 62.4349 80.7587 62.0038 81.0557C61.9166 81.1158 61.8293 81.1759 61.7394 81.2378C61.4843 81.4135 61.2294 81.5894 60.9745 81.7653C60.8463 81.8538 60.7181 81.9422 60.586 82.0334C60.4646 82.1173 60.3432 82.2013 60.2181 82.2878C60.0905 82.3759 59.963 82.4641 59.8316 82.5549C59.4315 82.8324 59.0335 83.1127 58.6355 83.3932C58.5073 83.4832 58.379 83.5732 58.2469 83.666C57.9894 83.8468 57.7323 84.0281 57.4755 84.2099C57.2968 84.3352 57.2968 84.3352 57.1144 84.463C57.0078 84.5381 56.9012 84.6133 56.7913 84.6908C56.4881 84.8812 56.195 85.0127 55.8589 85.1341C56.2068 86.0795 56.6474 86.9458 57.1378 87.8244C57.7135 88.8706 58.2536 89.9219 58.751 91.007C58.979 91.5039 59.2227 91.9921 59.4694 92.4799C60.3083 94.1461 61.1028 95.8238 61.7967 97.5559C61.9578 97.9673 61.9578 97.9673 62.1237 98.2767C62.2222 98.4844 62.2222 98.4844 62.1832 98.7573C62.0974 98.9834 62.0974 98.9834 61.9726 99.1082C61.6196 99.1454 61.4188 99.1542 61.1178 98.9566C61.0447 98.8857 60.9717 98.8148 60.8965 98.7417C60.5129 98.3832 60.1222 98.0471 59.7112 97.7202C59.0724 97.2013 58.469 96.651 57.8705 96.0864C57.5133 95.7497 57.1526 95.4211 56.7791 95.1024C56.104 94.5152 55.477 93.879 54.8458 93.2454C54.6333 93.0322 54.4202 92.8197 54.207 92.6073C54.0705 92.4708 53.9342 92.3343 53.7978 92.1977C53.7347 92.1348 53.6715 92.0718 53.6064 92.007C53.3534 91.7524 53.1182 91.503 52.9075 91.2118C52.742 90.9608 52.742 90.9608 52.3654 90.8735C52.322 90.9984 52.322 90.9984 52.2777 91.1259C52.0714 91.5994 51.8026 92.0154 51.5232 92.4487C51.0886 93.1234 50.689 93.8092 50.3084 94.5158C50.1276 94.8511 49.9436 95.1844 49.7584 95.5172C48.9933 96.899 48.2819 98.2934 47.6188 99.7266C47.3424 100.317 47.0452 100.897 46.7508 101.479C46.6546 101.674 46.5584 101.869 46.4623 102.064C46.2517 102.477 46.2517 102.477 46.127 102.602C45.8228 102.625 45.8228 102.625 45.5031 102.602C45.2536 102.352 45.2536 102.352 45.2308 102.043C45.2349 101.914 45.2391 101.784 45.2433 101.65C45.2501 101.432 45.2501 101.432 45.257 101.209C45.2636 101.051 45.2702 100.893 45.277 100.73C45.2832 100.567 45.2894 100.404 45.2958 100.236C45.3454 99.0541 45.4584 97.8849 45.6077 96.7112C45.7571 95.523 45.8455 94.3341 45.9215 93.1393C45.9304 93.0008 45.9394 92.8623 45.9486 92.7197C45.956 92.5979 45.9634 92.4761 45.9711 92.3506C46.0038 91.9782 46.0651 91.6163 46.127 91.2478C46.1521 90.9962 46.1742 90.7444 46.1937 90.4923C46.2046 90.354 46.2154 90.2157 46.2266 90.0732C46.2375 89.9307 46.2483 89.7882 46.2595 89.6414C46.2709 89.496 46.2822 89.3506 46.2939 89.2008C46.3217 88.8434 46.3492 88.486 46.3765 88.1285C46.3015 88.141 46.2264 88.1536 46.1491 88.1664C45.9208 88.2045 45.6924 88.2426 45.4641 88.2806C45.1952 88.3254 44.9262 88.3703 44.6573 88.4151C43.9774 88.5285 43.2974 88.6417 42.6173 88.7543C42.4948 88.7747 42.3723 88.795 42.2461 88.816C41.9987 88.857 41.7513 88.8979 41.5038 88.9386C40.883 89.0414 40.2634 89.1486 39.6448 89.2646C38.4914 89.4793 37.3486 89.6684 36.1766 89.7427C36.0777 89.7499 35.9789 89.7571 35.877 89.7645C35.5005 89.782 35.2207 89.7923 34.888 89.6029C34.773 89.3762 34.773 89.3762 34.7574 89.0755C34.9644 88.599 35.3323 88.4356 35.7711 88.1987C35.8641 88.1463 35.9572 88.0938 36.053 88.0397C36.3738 87.8594 36.6963 87.6821 37.0188 87.5047C37.3942 87.2955 37.7693 87.0856 38.1444 86.8757C38.4092 86.7275 38.6742 86.5797 38.9394 86.432C39.9511 85.8674 40.9511 85.2852 41.9449 84.6897C42.7048 84.2355 43.4767 83.8083 44.2554 83.3873C44.6563 83.1674 45.0564 82.9461 45.4563 82.7245C45.5562 82.6694 45.6561 82.6143 45.759 82.5576C45.8537 82.505 45.9485 82.4525 46.0461 82.3984C46.1308 82.3516 46.2155 82.3047 46.3027 82.2565C46.4995 82.1519 46.4995 82.1519 46.626 82.0149C46.7304 80.8466 46.5241 79.669 46.3687 78.5135C46.3411 78.3033 46.3135 78.0932 46.2859 77.883C45.982 75.5786 45.6592 73.2767 45.3345 70.9752C45.3174 70.8541 45.3004 70.7329 45.2828 70.608C45.1988 70.0157 45.1119 69.424 45.0193 68.8329C45.0018 68.7206 44.9843 68.6082 44.9663 68.4925C44.9336 68.2836 44.9003 68.0749 44.8662 67.8663C44.7699 67.2512 44.7399 66.6671 44.7545 66.0444Z"/>
</mask>
<path d="M44.7545 66.0444C45.0904 66.0512 45.3093 66.1035 45.5558 66.3381C45.7555 66.58 45.9424 66.8279 46.127 67.0816C46.1974 67.1764 46.2679 67.2712 46.3405 67.3689C48.3978 70.1727 50.1547 73.1891 51.6028 76.3484C51.7217 76.6066 51.8429 76.8635 51.9662 77.1196C52.3881 78.0048 52.7411 78.9072 53.077 79.8275C53.2083 80.1851 53.3445 80.5392 53.4883 80.8919C54.2836 80.818 54.9975 80.6336 55.7576 80.3929C55.8802 80.3548 56.0027 80.3167 56.129 80.2774C56.3958 80.1944 56.6625 80.111 56.9291 80.0274C57.3755 79.8877 57.8224 79.75 58.2695 79.6126C59.5988 79.2034 60.9273 78.7933 62.2456 78.3498C62.3343 78.32 62.4231 78.2902 62.5146 78.2595C62.8804 78.1368 63.2459 78.0135 63.6112 77.8892C63.7215 77.8533 63.8319 77.8175 63.9455 77.7805C64.0338 77.7511 64.1221 77.7217 64.2131 77.6913C64.5391 77.6359 64.7758 77.6803 65.0918 77.7727C65.3414 78.0223 65.3414 78.0223 65.3916 78.3191C65.3225 78.7688 65.1483 78.869 64.7877 79.1374C64.6724 79.2239 64.5571 79.3104 64.4383 79.3996C64.0642 79.6652 63.6878 79.9244 63.3032 80.1745C62.8656 80.4619 62.4349 80.7587 62.0038 81.0557C61.9166 81.1158 61.8293 81.1759 61.7394 81.2378C61.4843 81.4135 61.2294 81.5894 60.9745 81.7653C60.8463 81.8538 60.7181 81.9422 60.586 82.0334C60.4646 82.1173 60.3432 82.2013 60.2181 82.2878C60.0905 82.3759 59.963 82.4641 59.8316 82.5549C59.4315 82.8324 59.0335 83.1127 58.6355 83.3932C58.5073 83.4832 58.379 83.5732 58.2469 83.666C57.9894 83.8468 57.7323 84.0281 57.4755 84.2099C57.2968 84.3352 57.2968 84.3352 57.1144 84.463C57.0078 84.5381 56.9012 84.6133 56.7913 84.6908C56.4881 84.8812 56.195 85.0127 55.8589 85.1341C56.2068 86.0795 56.6474 86.9458 57.1378 87.8244C57.7135 88.8706 58.2536 89.9219 58.751 91.007C58.979 91.5039 59.2227 91.9921 59.4694 92.4799C60.3083 94.1461 61.1028 95.8238 61.7967 97.5559C61.9578 97.9673 61.9578 97.9673 62.1237 98.2767C62.2222 98.4844 62.2222 98.4844 62.1832 98.7573C62.0974 98.9834 62.0974 98.9834 61.9726 99.1082C61.6196 99.1454 61.4188 99.1542 61.1178 98.9566C61.0447 98.8857 60.9717 98.8148 60.8965 98.7417C60.5129 98.3832 60.1222 98.0471 59.7112 97.7202C59.0724 97.2013 58.469 96.651 57.8705 96.0864C57.5133 95.7497 57.1526 95.4211 56.7791 95.1024C56.104 94.5152 55.477 93.879 54.8458 93.2454C54.6333 93.0322 54.4202 92.8197 54.207 92.6073C54.0705 92.4708 53.9342 92.3343 53.7978 92.1977C53.7347 92.1348 53.6715 92.0718 53.6064 92.007C53.3534 91.7524 53.1182 91.503 52.9075 91.2118C52.742 90.9608 52.742 90.9608 52.3654 90.8735C52.322 90.9984 52.322 90.9984 52.2777 91.1259C52.0714 91.5994 51.8026 92.0154 51.5232 92.4487C51.0886 93.1234 50.689 93.8092 50.3084 94.5158C50.1276 94.8511 49.9436 95.1844 49.7584 95.5172C48.9933 96.899 48.2819 98.2934 47.6188 99.7266C47.3424 100.317 47.0452 100.897 46.7508 101.479C46.6546 101.674 46.5584 101.869 46.4623 102.064C46.2517 102.477 46.2517 102.477 46.127 102.602C45.8228 102.625 45.8228 102.625 45.5031 102.602C45.2536 102.352 45.2536 102.352 45.2308 102.043C45.2349 101.914 45.2391 101.784 45.2433 101.65C45.2501 101.432 45.2501 101.432 45.257 101.209C45.2636 101.051 45.2702 100.893 45.277 100.73C45.2832 100.567 45.2894 100.404 45.2958 100.236C45.3454 99.0541 45.4584 97.8849 45.6077 96.7112C45.7571 95.523 45.8455 94.3341 45.9215 93.1393C45.9304 93.0008 45.9394 92.8623 45.9486 92.7197C45.956 92.5979 45.9634 92.4761 45.9711 92.3506C46.0038 91.9782 46.0651 91.6163 46.127 91.2478C46.1521 90.9962 46.1742 90.7444 46.1937 90.4923C46.2046 90.354 46.2154 90.2157 46.2266 90.0732C46.2375 89.9307 46.2483 89.7882 46.2595 89.6414C46.2709 89.496 46.2822 89.3506 46.2939 89.2008C46.3217 88.8434 46.3492 88.486 46.3765 88.1285C46.3015 88.141 46.2264 88.1536 46.1491 88.1664C45.9208 88.2045 45.6924 88.2426 45.4641 88.2806C45.1952 88.3254 44.9262 88.3703 44.6573 88.4151C43.9774 88.5285 43.2974 88.6417 42.6173 88.7543C42.4948 88.7747 42.3723 88.795 42.2461 88.816C41.9987 88.857 41.7513 88.8979 41.5038 88.9386C40.883 89.0414 40.2634 89.1486 39.6448 89.2646C38.4914 89.4793 37.3486 89.6684 36.1766 89.7427C36.0777 89.7499 35.9789 89.7571 35.877 89.7645C35.5005 89.782 35.2207 89.7923 34.888 89.6029C34.773 89.3762 34.773 89.3762 34.7574 89.0755C34.9644 88.599 35.3323 88.4356 35.7711 88.1987C35.8641 88.1463 35.9572 88.0938 36.053 88.0397C36.3738 87.8594 36.6963 87.6821 37.0188 87.5047C37.3942 87.2955 37.7693 87.0856 38.1444 86.8757C38.4092 86.7275 38.6742 86.5797 38.9394 86.432C39.9511 85.8674 40.9511 85.2852 41.9449 84.6897C42.7048 84.2355 43.4767 83.8083 44.2554 83.3873C44.6563 83.1674 45.0564 82.9461 45.4563 82.7245C45.5562 82.6694 45.6561 82.6143 45.759 82.5576C45.8537 82.505 45.9485 82.4525 46.0461 82.3984C46.1308 82.3516 46.2155 82.3047 46.3027 82.2565C46.4995 82.1519 46.4995 82.1519 46.626 82.0149C46.7304 80.8466 46.5241 79.669 46.3687 78.5135C46.3411 78.3033 46.3135 78.0932 46.2859 77.883C45.982 75.5786 45.6592 73.2767 45.3345 70.9752C45.3174 70.8541 45.3004 70.7329 45.2828 70.608C45.1988 70.0157 45.1119 69.424 45.0193 68.8329C45.0018 68.7206 44.9843 68.6082 44.9663 68.4925C44.9336 68.2836 44.9003 68.0749 44.8662 67.8663C44.7699 67.2512 44.7399 66.6671 44.7545 66.0444Z" stroke="white" stroke-width="1.53254" mask="url(#path-5-inside-3_22_121)"/>
<path d="M41.0115 59.6812C41.5238 59.7062 41.8097 60.0425 42.168 60.3791C42.2646 60.4696 42.2646 60.4696 42.3632 60.5619C43.16 61.3131 43.9373 62.0847 44.7116 62.859C44.9654 63.1126 45.2202 63.3652 45.4751 63.6177C46.2864 64.4256 47.0659 65.2328 47.7706 66.1369C47.9998 66.4202 48.2435 66.6725 48.5054 66.9256C48.9562 67.3639 49.3428 67.8338 49.7297 68.3287C50.0139 68.6886 50.3075 69.0392 50.6031 69.3897C52.4009 71.5358 54.0569 73.8219 55.6094 76.1507C57.1316 75.9811 58.6316 75.7762 60.1323 75.4644C60.8643 75.3153 61.5929 75.2092 62.3348 75.1232C62.9173 75.0542 63.4934 74.9626 64.0703 74.8562C65.1565 74.6562 66.248 74.4984 67.341 74.3402C68.3201 74.1973 69.2923 74.034 70.2635 73.8444C70.7609 73.7721 71.2026 73.7522 71.7046 73.78C71.9542 74.0296 71.9542 74.0296 72 74.3171C71.9391 74.7643 71.7643 74.9525 71.4707 75.2929C71.3684 75.4124 71.2661 75.5319 71.1607 75.655C70.7359 76.1332 70.3084 76.6087 69.8755 77.0796C69.6262 77.3518 69.3813 77.6267 69.1391 77.9052C68.3707 78.787 67.596 79.6534 66.7558 80.4679C66.5101 80.7201 66.2816 80.9772 66.0525 81.2443C65.6127 81.7507 65.1407 82.2084 64.6474 82.662C64.5615 82.7417 64.4757 82.8214 64.3872 82.9035C64.2103 83.0676 64.0332 83.2314 63.856 83.3951C63.6041 83.628 63.3533 83.862 63.1029 84.0964C62.9497 84.2395 62.7965 84.3827 62.6433 84.5258C62.5741 84.5906 62.5048 84.6555 62.4335 84.7223C62.0007 85.1249 61.5564 85.5079 61.0993 85.8826C61.2557 86.4042 61.4591 86.8719 61.7109 87.3521C61.8971 87.729 62.0595 88.1153 62.2222 88.5028C62.2734 88.6234 62.2734 88.6234 62.3256 88.7465C63.9507 92.6078 65.154 96.6464 65.9653 100.754C65.9845 100.85 66.0037 100.946 66.0236 101.045C66.4488 103.188 66.4488 103.188 66.3396 104.099C66.2148 104.224 66.2148 104.224 65.9289 104.251C65.5424 104.22 65.3696 104.127 65.05 103.913C64.949 103.846 64.848 103.779 64.744 103.71C64.6375 103.638 64.531 103.565 64.4213 103.491C64.3103 103.417 64.1994 103.343 64.0851 103.267C63.7545 103.046 63.425 102.824 63.0956 102.602C62.9243 102.488 62.7529 102.374 62.5814 102.26C62.2029 102.009 61.8252 101.757 61.4479 101.504C61.1401 101.298 60.8319 101.092 60.5236 100.887C60.289 100.731 60.0545 100.574 59.8199 100.418C59.5099 100.211 59.1996 100.005 58.889 99.7988C57.3049 98.7474 55.7286 97.6875 54.2099 96.5429C53.8871 96.3018 53.624 96.1173 53.2388 95.9889C53.1856 96.071 53.1324 96.153 53.0775 96.2375C51.9367 97.9734 50.7101 99.6453 49.4138 101.268C49.2425 101.484 49.073 101.7 48.9041 101.918C48.2849 102.714 47.6536 103.497 46.9982 104.263C46.6408 104.681 46.2921 105.105 45.9476 105.534C45.4027 106.204 44.8201 106.834 44.2306 107.465C43.9424 107.774 43.6642 108.09 43.3899 108.411C43.0798 108.766 42.7907 109.093 42.3839 109.339C42.0408 109.324 42.0408 109.324 41.7601 109.214C41.5609 108.816 41.642 108.394 41.6665 107.959C41.6722 107.854 41.678 107.75 41.6839 107.642C41.7523 106.534 41.8886 105.435 42.0281 104.334C42.1279 103.537 42.2182 102.739 42.3055 101.94C42.4461 100.664 42.5898 99.3881 42.7363 98.1124C42.7458 98.0293 42.7554 97.9462 42.7652 97.8606C42.8232 97.356 42.8812 96.8514 42.9393 96.3469C42.9895 95.91 43.0397 95.4732 43.0899 95.0363C43.1872 94.1894 43.2846 93.3424 43.3821 92.4954C43.2672 92.5148 43.1523 92.5342 43.034 92.5542C30.6797 94.6325 30.6797 94.6325 28.0355 92.8697C27.9665 92.419 27.9799 92.2014 28.2417 91.8233C28.3357 91.7286 28.4298 91.6338 28.5268 91.5362C28.924 91.1306 29.2836 90.7175 29.6356 90.2715C30.3637 89.3748 31.1779 88.5669 31.9965 87.7533C32.2616 87.4895 32.5253 87.2245 32.7889 86.9593C33.704 86.0433 34.6288 85.1871 35.6464 84.3854C35.7932 84.2599 35.9391 84.1333 36.0836 84.0053C37.5536 82.7038 39.1481 81.5861 40.7775 80.4942C40.8691 80.4326 40.9608 80.3711 41.0552 80.3076C41.5185 79.9998 41.9856 79.7074 42.4697 79.4332C42.5628 79.3792 42.6559 79.3253 42.7518 79.2697C42.9279 79.1687 43.1058 79.0707 43.2856 78.9764C43.5583 78.8295 43.5583 78.8295 43.8812 78.5213C44.0159 77.94 43.8585 77.3822 43.7018 76.8184C43.6166 76.4624 43.57 76.1081 43.5224 75.7452C43.4247 75.0259 43.295 74.3192 43.1481 73.6085C42.9567 72.6809 42.7916 71.7519 42.6413 70.8168C42.456 69.667 42.2293 68.531 41.9831 67.3928C41.7861 66.4644 41.645 65.5361 41.5228 64.5953C41.4318 63.9218 41.299 63.2765 41.1206 62.621C40.8848 61.7347 40.7218 60.8528 40.7619 59.9307C40.8443 59.8483 40.9266 59.766 41.0115 59.6812ZM41.8849 61.5527C42.0597 62.9326 42.2386 64.2998 42.5492 65.6564C42.6297 66.027 42.6895 66.3942 42.7426 66.7696C42.8828 67.733 43.0814 68.6845 43.2758 69.6382C43.4465 70.4765 43.6064 71.3159 43.7564 72.1581C43.7857 72.3192 43.8149 72.4804 43.8451 72.6464C44.0625 73.8613 44.2609 75.0785 44.4494 76.2982C44.5537 76.9634 44.67 77.6188 44.8317 78.2727C44.9118 78.6908 44.8947 79.095 44.8793 79.5194C44.7908 79.5607 44.7022 79.602 44.611 79.6445C43.6617 80.1014 42.783 80.6322 41.9121 81.2224C41.6985 81.367 41.484 81.5103 41.2693 81.6534C39.8349 82.6142 38.4694 83.6534 37.1436 84.7597C36.9552 84.9153 36.9552 84.9153 36.763 85.0741C35.1977 86.3744 33.7378 87.7803 32.2932 89.2124C32.1309 89.3723 32.1309 89.3723 31.9652 89.5355C31.2299 90.2699 30.5156 91.0266 29.907 91.8716C29.907 91.9539 29.907 92.0362 29.907 92.1211C30.8272 92.1275 31.7474 92.1318 32.6676 92.1348C32.9791 92.136 33.2906 92.1377 33.6021 92.1399C36.3912 92.159 39.151 92.0925 41.8849 91.4972C42.1422 91.4433 42.3997 91.3901 42.6573 91.3376C42.8905 91.2899 43.1234 91.2409 43.3562 91.1917C43.7123 91.1305 44.0209 91.0891 44.3802 91.1229C44.6298 91.3725 44.6298 91.3725 44.6329 91.7162C44.62 91.8593 44.607 92.0024 44.5937 92.1498C44.58 92.3077 44.5663 92.4655 44.5522 92.6281C44.5366 92.7902 44.521 92.9523 44.505 93.1192C44.4917 93.2657 44.4784 93.4122 44.4647 93.5631C44.423 94.0106 44.3787 94.4578 44.3334 94.905C44.3091 95.148 44.3091 95.148 44.2843 95.3958C44.1672 96.5522 44.0319 97.7057 43.888 98.8591C43.7673 99.8445 43.6817 100.831 43.6034 101.82C43.5303 102.694 43.4026 103.551 43.2537 104.415C43.1256 105.186 43.0904 105.937 43.1325 106.719C43.7533 106.235 44.2481 105.698 44.7545 105.097C44.8605 104.973 44.9665 104.848 45.0757 104.72C46.2326 103.362 47.357 101.979 48.4538 100.572C48.6122 100.369 48.7711 100.166 48.9299 99.963C49.946 98.6555 50.907 97.3087 51.8683 95.9607C51.9261 95.8796 51.984 95.7985 52.0435 95.715C52.1517 95.5631 52.2598 95.4112 52.3676 95.2591C52.8184 94.6252 52.8184 94.6252 53.1262 94.5668C53.6713 94.6416 53.9943 94.9495 54.4163 95.2871C54.5956 95.426 54.7749 95.5647 54.9544 95.7033C55.0438 95.7729 55.1333 95.8425 55.2254 95.9142C55.594 96.1978 55.9707 96.4689 56.3503 96.7375C56.4208 96.7877 56.4914 96.8378 56.5641 96.8894C56.7864 97.047 57.0089 97.2042 57.2314 97.3614C57.3957 97.4777 57.5599 97.594 57.7242 97.7104C58.1691 98.0252 58.6146 98.3392 59.0603 98.6529C59.263 98.7956 59.4656 98.9384 59.6681 99.0814C61.2643 100.213 61.2643 100.213 62.9045 101.279C63.4138 101.601 63.907 101.946 64.4018 102.289C64.71 102.509 64.71 102.509 65.0919 102.477C64.8619 97.1531 62.3011 90.9229 59.8297 86.2278C59.7268 86.0074 59.7268 86.0074 59.7336 85.6984C59.8941 85.2701 60.1279 85.1118 60.491 84.8377C60.9866 84.4514 61.4405 84.0624 61.8749 83.6095C62.0957 83.389 62.3247 83.1863 62.5619 82.9837C63.0835 82.5302 63.5752 82.0524 64.063 81.563C64.1509 81.4752 64.2388 81.3874 64.3294 81.297C64.5138 81.1127 64.698 80.9283 64.882 80.7437C65.1613 80.4637 65.4413 80.1844 65.7213 79.9052C65.9016 79.7248 66.0819 79.5444 66.2621 79.3639C66.3445 79.2818 66.4269 79.1996 66.5119 79.1149C66.9927 78.6317 67.4511 78.1351 67.8959 77.6185C68.2629 77.1943 68.6489 76.787 69.0309 76.3763C69.37 75.9843 69.6623 75.5781 69.9579 75.1525C68.3763 75.3744 66.7968 75.6053 65.2203 75.8602C64.9977 75.8962 64.775 75.9316 64.5524 75.9669C63.9078 76.071 63.2692 76.1915 62.6301 76.3251C61.5414 76.5471 60.4451 76.7011 59.3447 76.8525C59.0535 76.8931 58.7623 76.9338 58.4711 76.9746C58.2921 76.9996 58.1131 77.0245 57.9341 77.0492C57.5683 77.0999 57.2036 77.1535 56.8393 77.2145C55.678 77.407 55.678 77.407 55.1104 77.2736C54.7149 76.9342 54.4843 76.5229 54.2292 76.0727C54.0804 75.8305 53.9315 75.5884 53.7823 75.3465C53.7111 75.2276 53.6399 75.1087 53.5665 74.9862C53.2997 74.5486 53.0102 74.1317 52.7086 73.7177C52.6593 73.6493 52.61 73.5809 52.5592 73.5104C52.0124 72.7556 51.4409 72.0199 50.8682 71.2847C50.7638 71.1479 50.7638 71.1479 50.6572 71.0083C49.588 69.6122 48.4651 68.2529 47.2714 66.9616C47.0234 66.6931 46.7806 66.4211 46.5403 66.1457C46.4724 66.0681 46.4046 65.9904 46.3346 65.9103C46.1847 65.7368 46.036 65.5622 45.8882 65.3869C45.81 65.2951 45.7319 65.2032 45.6513 65.1086C45.581 65.025 45.5107 64.9413 45.4383 64.8552C45.2675 64.6426 45.2675 64.6426 45.0041 64.6719C44.9706 64.5978 44.937 64.5237 44.9025 64.4474C44.7539 64.1716 44.6046 63.9924 44.3832 63.7727C44.3102 63.6999 44.2372 63.627 44.162 63.552C44.0847 63.4764 44.0075 63.4008 43.9279 63.3228C43.8495 63.2453 43.7711 63.1678 43.6903 63.0879C42.8721 62.1252 42.8721 62.1252 41.8849 61.5527Z" fill="white"/>
</svg>
